<svg width="144" height="193" viewBox="0 0 144 193" fill="none" xmlns="http://www.w3.org/2000/svg">
<path d="M129.696 105.605L120.8 100.366C117.627 98.4968 116.522 94.4118 118.39 91.2387L137.112 59.4504C146.456 43.5847 141.192 23.2367 125.326 13.8927L105.267 2.07913C104.021 1.34495 102.4 1.76421 101.666 3.0108L82.7109 35.1957C81.9434 36.4989 82.3626 38.1196 83.6092 38.8537L98.3417 47.5304C101.515 49.3992 102.563 53.4507 100.694 56.6239L49.402 143.716C47.5666 146.832 43.4817 147.937 40.3085 146.068L25.576 137.392C24.3294 136.657 22.7088 137.077 21.9746 138.323L2.98613 170.565C2.25195 171.811 2.6712 173.432 3.9178 174.166L23.9767 185.98C39.8425 195.324 60.2238 190.003 69.5345 174.194L89.1236 140.933C90.9924 137.759 95.1007 136.745 98.2738 138.613L107.17 143.853C108.417 144.587 110.037 144.168 110.805 142.864L130.594 109.263C131.362 107.96 130.942 106.339 129.696 105.605Z" fill="#CCF6CF" stroke="#1E1E1E" stroke-width="3.28802" stroke-linejoin="round"/>
</svg>
