<svg width="62" height="45" viewBox="0 0 62 45" fill="none" xmlns="http://www.w3.org/2000/svg">
<path d="M37.173 36.2077L43.2664 26.6754C40.813 26.2731 38.6411 24.9861 36.7507 22.8142C34.8201 20.6423 33.8548 17.9877 33.8548 14.8505C33.8548 11.311 35.1218 8.29449 37.6557 5.80081C40.1494 3.2669 43.2464 1.99994 46.9467 1.99994C50.6068 1.99994 53.6836 3.2669 56.1773 5.80081C59.1939 8.77714 60.4005 12.4976 59.7972 16.9621C59.6162 18.5307 59.1939 20.0993 58.5302 21.5472C57.5649 23.6387 56.1371 26.0318 54.2467 28.7266L45.6797 41.6978C44.9557 42.7838 43.5681 43.0854 42.4822 42.3614L37.897 39.4052C36.8111 38.6813 36.5094 37.2333 37.173 36.2077Z" fill="#34A853" stroke="#1E1E1E" stroke-width="3.01656" stroke-miterlimit="10"/>
<path d="M5.31821 36.2077L11.4116 26.6754C8.95817 26.2731 6.78622 24.9861 4.89585 22.8142C2.96525 20.6423 2 17.9877 2 14.8505C2 11.311 3.26691 8.29449 5.80082 5.80081C8.2945 3.2669 11.3714 1.99994 15.0315 1.99994C18.7318 1.99994 21.8288 3.2669 24.3225 5.80081C27.3391 8.77714 28.5457 12.4976 27.9424 16.9621C27.7614 18.5307 27.339 20.0993 26.615 21.5472C25.69 23.6387 24.2822 26.0318 22.3919 28.7266L13.8249 41.6978C13.1009 42.7838 11.7133 43.0854 10.6273 42.3614L5.98184 39.4052C4.95621 38.6813 4.65457 37.2333 5.31821 36.2077Z" fill="#34A853" stroke="#1E1E1E" stroke-width="3.01656" stroke-miterlimit="10"/>
</svg>
