<svg width="1512" height="386" viewBox="0 0 1512 386" fill="none" xmlns="http://www.w3.org/2000/svg">
<path d="M719.168 119.913L657.945 58.6905C656.958 57.7698 655.38 57.7698 654.394 58.6905L629.865 83.2848C628.879 84.2712 628.879 85.8495 629.865 86.7701L647.555 104.46H504V144.179H647.555L629.536 162.197C628.55 163.118 628.55 164.696 629.536 165.682L655.249 190.277C656.235 191.198 657.813 191.198 658.8 190.277L719.168 128.725C719.475 128.418 719.738 128.09 719.957 127.739C721.535 125.306 721.272 122.018 719.168 119.913Z" fill="#F9AB00" stroke="#1E1E1E" stroke-width="3.28802" stroke-linejoin="round"/>
<path d="M756.321 60L731.47 96.0634C756.114 113.844 762.19 148.138 744.839 173.318C727.489 198.497 693.241 205.085 667.851 188.388L643 224.451C688.317 254.88 749.821 243.275 780.903 198.168C811.947 153.116 800.891 91.5115 756.321 60Z" fill="#FF7DAF" stroke="#1E1E1E" stroke-width="3.28802" stroke-miterlimit="10"/>
<path d="M812.335 136.216L821.174 141.422C824.347 143.29 825.419 147.432 823.583 150.549L804.828 182.393C795.518 198.203 800.748 218.607 816.614 227.951L836.673 239.765C837.92 240.499 839.54 240.08 840.274 238.833L859.263 206.592C859.997 205.345 859.578 203.724 858.331 202.99L843.599 194.314C840.426 192.445 839.411 188.336 841.246 185.22L892.538 98.1282C894.407 94.955 898.459 93.9069 901.632 95.7757L916.364 104.452C917.611 105.186 919.232 104.767 919.999 103.464L938.954 71.2791C939.688 70.0325 939.269 68.4119 938.023 67.6777L917.964 55.8641C902.098 46.5201 881.75 51.7841 872.406 67.6498L852.85 100.855C850.981 104.028 846.84 105.099 843.667 103.23L834.827 98.0245C833.524 97.2569 831.903 97.6762 831.169 98.9228L811.346 132.581C810.612 133.827 811.031 135.448 812.335 136.216Z" fill="#CCF6CF" stroke="#1E1E1E" stroke-width="3.28802" stroke-linejoin="round"/>
<path d="M993.696 189.605L984.8 184.366C981.627 182.497 980.522 178.412 982.39 175.239L1001.11 143.45C1010.46 127.585 1005.19 107.237 989.326 97.8927L969.267 86.0791C968.021 85.345 966.4 85.7642 965.666 87.0108L946.711 119.196C945.943 120.499 946.363 122.12 947.609 122.854L962.342 131.53C965.515 133.399 966.563 137.451 964.694 140.624L913.402 227.716C911.567 230.832 907.482 231.937 904.308 230.068L889.576 221.392C888.329 220.657 886.709 221.077 885.975 222.323L866.986 254.565C866.252 255.811 866.671 257.432 867.918 258.166L887.977 269.98C903.842 279.324 924.224 274.003 933.534 258.194L953.124 224.933C954.992 221.759 959.101 220.745 962.274 222.613L971.17 227.853C972.417 228.587 974.037 228.168 974.805 226.864L994.594 193.263C995.362 191.96 994.942 190.339 993.696 189.605Z" fill="#CCF6CF" stroke="#1E1E1E" stroke-width="3.28802" stroke-linejoin="round"/>
<path d="M1122.97 106.911C1135.77 116.258 1138.57 134.176 1129.22 146.975C1119.87 159.773 1101.95 162.565 1089.15 153.218C1076.36 143.87 1073.56 125.952 1082.91 113.154C1092.26 100.355 1110.18 97.5632 1122.97 106.911Z" fill="#FFD427" stroke="#1E1E1E" stroke-width="3.28802" stroke-miterlimit="10"/>
<path d="M1179 147.829C1166.2 138.482 1148.28 141.274 1138.94 154.072C1129.59 166.871 1132.38 184.789 1145.18 194.137C1154.79 201.157 1167.24 201.288 1176.84 195.602C1178.75 194.552 1180.91 194.827 1182.09 197.89L1197.89 231.901C1198.28 232.922 1199.45 233.447 1200.47 233.052L1219.54 226.457C1220.61 226.102 1221.13 224.938 1220.74 223.917C1220.74 223.917 1191.7 164.11 1189.11 159.526C1187.85 157.306 1186.39 155.259 1184.71 153.386C1183.12 151.328 1181.23 149.458 1179 147.829Z" fill="#FFD427" stroke="#1E1E1E" stroke-width="3.28802" stroke-miterlimit="10"/>
<path d="M221.115 353.588C221.115 370.481 207.42 384.115 190.588 384.115C173.695 384.115 160 370.481 160 353.588C160 336.695 173.695 323 190.588 323C207.42 323 221.115 336.695 221.115 353.588Z" fill="#5CDB6D" stroke="#1E1E1E" stroke-width="3.01656" stroke-linejoin="round"/>
<path d="M299.291 353.588C299.291 370.481 285.596 384.115 268.703 384.115C251.811 384.115 238.115 370.481 238.115 353.588C238.115 336.695 251.811 323 268.703 323C285.596 323 299.291 336.695 299.291 353.588Z" fill="#5CDB6D" stroke="#1E1E1E" stroke-width="3.01656" stroke-linejoin="round"/>
<path d="M377.407 353.588C377.407 370.481 363.711 384.115 346.819 384.115C329.986 384.115 316.291 370.481 316.291 353.588C316.291 336.695 329.986 323 346.819 323C363.711 323 377.407 336.695 377.407 353.588Z" fill="#5CDB6D" stroke="#1E1E1E" stroke-width="3.01656" stroke-linejoin="round"/>
<path d="M379.356 285.01L480.536 262.523C481.832 262.236 483.127 263.06 483.441 264.473L491.164 299.221C491.478 300.634 490.667 301.989 489.371 302.277L388.191 324.764C386.895 325.052 385.586 324.169 385.272 322.755L377.55 288.008C377.236 286.594 378.06 285.298 379.356 285.01Z" fill="#57CAFF" stroke="#1E1E1E" stroke-width="3.01656" stroke-linejoin="round"/>
<path d="M392.602 344.611L493.782 322.124C495.078 321.836 496.386 322.72 496.688 324.074L504.423 358.881C504.724 360.235 503.913 361.59 502.617 361.878L401.437 384.365C400.141 384.653 398.832 383.769 398.531 382.415L390.796 347.608C390.495 346.254 391.306 344.899 392.602 344.611Z" fill="#57CAFF" stroke="#1E1E1E" stroke-width="3.01656" stroke-linejoin="round"/>
<path d="M782.295 262.716C759.634 257.585 737.253 265.553 722.889 281.453C721.636 282.803 719.376 282.414 718.795 280.699C711.788 260.909 694.738 245.209 672.609 240.8C650.481 236.391 628.716 244.358 614.659 259.951C613.465 261.312 611.228 260.805 610.588 259.078C603.415 238.886 585.798 222.95 562.9 219.003C531.151 213.477 498.913 235.105 492.18 266.429C485.022 299.883 506.84 332.712 540.507 339.42C562.636 343.829 584.401 335.863 598.458 320.27C599.652 318.908 601.9 319.356 602.481 321.071C609.488 340.861 626.537 356.561 648.666 360.97C670.795 365.38 692.56 357.413 706.617 341.82C707.811 340.458 710.059 340.906 710.64 342.621C717.647 362.411 734.697 378.112 756.825 382.521C790.492 389.228 823.227 367.268 829.438 333.626C835.224 302.113 813.738 269.78 782.295 262.716Z" fill="#F8D8D8" stroke="#1E1E1E" stroke-width="3.01656" stroke-miterlimit="10"/>
<path d="M549.759 349.548L543.725 359.081C546.139 359.483 548.311 360.77 550.241 362.942C552.132 365.114 553.077 367.768 553.077 370.906C553.077 374.405 551.83 377.421 549.336 379.955C546.802 382.449 543.705 383.696 540.045 383.696C536.385 383.696 533.288 382.449 530.754 379.955C527.778 376.939 526.571 373.218 527.134 368.794C527.315 367.225 527.798 365.657 528.462 364.209C529.427 362.117 530.835 359.724 532.685 357.029L541.252 344.058C541.976 342.972 543.424 342.671 544.449 343.395L549.095 346.351C550.181 347.075 550.483 348.462 549.759 349.548Z" fill="#34A853" stroke="#1E1E1E" stroke-width="3.01656" stroke-miterlimit="10"/>
<path d="M581.613 349.548L575.58 359.081C578.034 359.483 580.206 360.77 582.096 362.942C583.986 365.114 584.932 367.768 584.932 370.906C584.932 374.405 583.685 377.421 581.191 379.955C578.657 382.449 575.56 383.696 571.9 383.696C568.24 383.696 565.143 382.449 562.609 379.955C559.633 376.939 558.426 373.218 558.989 368.794C559.231 367.225 559.653 365.657 560.316 364.209C561.282 362.117 562.69 359.724 564.54 357.029L573.167 344.058C573.831 342.972 575.279 342.671 576.304 343.395L580.95 346.351C582.036 347.075 582.337 348.462 581.613 349.548Z" fill="#34A853" stroke="#1E1E1E" stroke-width="3.01656" stroke-miterlimit="10"/>
<path d="M791.173 254.208L797.266 244.675C794.813 244.273 792.641 242.986 790.751 240.814C788.82 238.642 787.855 235.988 787.855 232.85C787.855 229.311 789.122 226.294 791.656 223.801C794.149 221.267 797.246 220 800.947 220C804.607 220 807.684 221.267 810.177 223.801C813.194 226.777 814.4 230.498 813.797 234.962C813.616 236.531 813.194 238.099 812.53 239.547C811.565 241.639 810.137 244.032 808.247 246.727L799.68 259.698C798.956 260.784 797.568 261.085 796.482 260.361L791.897 257.405C790.811 256.681 790.509 255.233 791.173 254.208Z" fill="#34A853" stroke="#1E1E1E" stroke-width="3.01656" stroke-miterlimit="10"/>
<path d="M759.318 254.208L765.412 244.675C762.958 244.273 760.786 242.986 758.896 240.814C756.965 238.642 756 235.988 756 232.85C756 229.311 757.267 226.294 759.801 223.801C762.295 221.267 765.371 220 769.032 220C772.732 220 775.829 221.267 778.323 223.801C781.339 226.777 782.546 230.498 781.942 234.962C781.761 236.531 781.339 238.099 780.615 239.547C779.69 241.639 778.282 244.032 776.392 246.727L767.825 259.698C767.101 260.784 765.713 261.085 764.627 260.361L759.982 257.405C758.956 256.681 758.655 255.233 759.318 254.208Z" fill="#34A853" stroke="#1E1E1E" stroke-width="3.01656" stroke-miterlimit="10"/>
<path d="M862.209 316.358C847.187 316.358 835 304.171 835 289.149C835 274.126 847.187 262 862.209 262C877.232 262 889.419 274.126 889.419 289.149C889.419 304.171 877.232 316.358 862.209 316.358Z" fill="#4285F4" stroke="#1E1E1E" stroke-width="3.01656" stroke-miterlimit="10"/>
<path d="M862.209 384.17C847.187 384.17 835 371.984 835 356.961C835 341.939 847.187 329.752 862.209 329.752C877.232 329.752 889.419 341.939 889.419 356.961C889.419 371.984 877.232 384.17 862.209 384.17Z" fill="#4285F4" stroke="#1E1E1E" stroke-width="3.01656" stroke-miterlimit="10"/>
<path d="M912.127 312.655L934.148 328.522L912.127 344.329C902.293 351.387 900.061 365.022 907.12 374.856C914.179 384.69 927.874 386.922 937.647 379.864L984.404 346.259C984.484 346.219 984.545 346.179 984.585 346.139C984.746 346.018 984.907 345.897 985.068 345.777C985.229 345.656 985.369 345.535 985.49 345.415C985.611 345.334 985.731 345.234 985.852 345.113C986.013 344.952 986.194 344.791 986.395 344.63C986.475 344.59 986.536 344.53 986.576 344.449C986.817 344.248 987.038 344.047 987.24 343.846C987.24 343.806 987.26 343.786 987.3 343.786C988.869 342.217 990.135 340.407 991.101 338.477C991.141 338.436 991.161 338.396 991.161 338.356C991.282 338.115 991.402 337.853 991.523 337.572C991.563 337.491 991.604 337.411 991.644 337.33C991.764 337.129 991.865 336.928 991.945 336.727C991.986 336.566 992.046 336.405 992.126 336.244C992.167 336.083 992.207 335.943 992.247 335.822C992.327 335.621 992.408 335.4 992.488 335.158C992.488 335.078 992.508 334.997 992.549 334.917C992.629 334.635 992.71 334.374 992.79 334.133C992.79 334.092 992.81 334.032 992.85 333.952C992.891 333.67 992.951 333.389 993.031 333.107C993.031 333.067 993.031 333.027 993.031 332.986C993.112 332.665 993.172 332.363 993.212 332.081C993.212 332.041 993.232 331.981 993.273 331.9C993.313 331.619 993.353 331.337 993.393 331.056C993.393 330.975 993.393 330.895 993.393 330.814C993.434 330.573 993.454 330.312 993.454 330.03C993.454 329.91 993.454 329.789 993.454 329.668C993.494 329.467 993.514 329.246 993.514 329.005C993.514 328.844 993.514 328.683 993.514 328.522C993.514 328.321 993.514 328.14 993.514 327.979C993.514 327.778 993.494 327.557 993.454 327.315C993.454 327.195 993.454 327.074 993.454 326.953C993.454 326.712 993.434 326.451 993.393 326.169C993.393 326.089 993.393 326.008 993.393 325.928C993.353 325.646 993.313 325.365 993.273 325.083C993.232 325.003 993.212 324.942 993.212 324.902C993.172 324.62 993.112 324.319 993.031 323.997C993.031 323.957 993.031 323.917 993.031 323.876C992.951 323.595 992.891 323.313 992.85 323.032C992.81 322.951 992.79 322.891 992.79 322.851C992.71 322.609 992.629 322.348 992.549 322.066C992.508 321.986 992.488 321.906 992.488 321.825C992.408 321.584 992.327 321.363 992.247 321.161C992.207 321.041 992.167 320.9 992.126 320.739C992.046 320.578 991.986 320.438 991.945 320.317C991.865 320.076 991.764 319.874 991.644 319.714C991.604 319.593 991.563 319.492 991.523 319.412C991.402 319.13 991.282 318.869 991.161 318.628C991.161 318.587 991.141 318.547 991.101 318.507C990.135 316.576 988.869 314.827 987.3 313.198C987.26 313.198 987.24 313.178 987.24 313.137C987.038 312.936 986.817 312.735 986.576 312.534C986.536 312.454 986.475 312.393 986.395 312.353C986.194 312.192 986.013 312.031 985.852 311.871C985.731 311.75 985.611 311.649 985.49 311.569C985.369 311.448 985.229 311.328 985.068 311.207C984.907 311.086 984.746 310.966 984.585 310.845C984.545 310.805 984.484 310.764 984.404 310.724L937.647 277.12C927.874 270.061 914.179 272.293 907.12 282.127C900.061 291.961 902.293 305.596 912.127 312.655Z" fill="#FF7DAF" stroke="#1E1E1E" stroke-width="3.01656" stroke-miterlimit="10"/>
<path d="M1081.9 312.655L1059.88 328.522L1081.9 344.329C1091.73 351.387 1093.97 365.022 1086.91 374.856C1079.85 384.69 1066.15 386.922 1056.38 379.864L1009.62 346.259C1009.54 346.219 1009.48 346.179 1009.44 346.139C1009.28 346.018 1009.12 345.897 1008.96 345.777C1008.84 345.656 1008.7 345.535 1008.54 345.415C1008.42 345.334 1008.3 345.234 1008.18 345.113C1008.02 344.952 1007.83 344.791 1007.63 344.63C1007.59 344.59 1007.53 344.53 1007.45 344.449C1007.21 344.248 1006.99 344.047 1006.79 343.846C1006.79 343.806 1006.77 343.786 1006.73 343.786C1005.16 342.217 1003.89 340.407 1002.93 338.477C1002.89 338.436 1002.87 338.396 1002.87 338.356C1002.75 338.115 1002.63 337.853 1002.5 337.572C1002.46 337.491 1002.42 337.411 1002.38 337.33C1002.26 337.129 1002.16 336.928 1002.08 336.727C1002.04 336.566 1001.98 336.405 1001.9 336.244C1001.86 336.083 1001.82 335.943 1001.78 335.822C1001.7 335.621 1001.62 335.4 1001.54 335.158C1001.54 335.078 1001.52 334.997 1001.48 334.917C1001.4 334.635 1001.32 334.374 1001.24 334.133C1001.24 334.092 1001.22 334.032 1001.18 333.952C1001.14 333.67 1001.08 333.389 1001 333.107C1001 333.067 1001 333.027 1001 332.986C1000.92 332.665 1000.86 332.363 1000.82 332.081C1000.82 332.041 1000.8 331.981 1000.76 331.9C1000.72 331.619 1000.67 331.337 1000.63 331.056C1000.63 330.975 1000.63 330.895 1000.63 330.814C1000.59 330.573 1000.57 330.312 1000.57 330.03C1000.57 329.91 1000.57 329.789 1000.57 329.668C1000.53 329.467 1000.51 329.246 1000.51 329.005C1000.51 328.844 1000.51 328.683 1000.51 328.522C1000.51 328.321 1000.51 328.14 1000.51 327.979C1000.51 327.778 1000.53 327.557 1000.57 327.315C1000.57 327.195 1000.57 327.074 1000.57 326.953C1000.57 326.712 1000.59 326.451 1000.63 326.169C1000.63 326.089 1000.63 326.008 1000.63 325.928C1000.67 325.646 1000.72 325.365 1000.76 325.083C1000.8 325.003 1000.82 324.942 1000.82 324.902C1000.86 324.62 1000.92 324.319 1001 323.997C1001 323.957 1001 323.917 1001 323.876C1001.08 323.595 1001.14 323.313 1001.18 323.032C1001.22 322.951 1001.24 322.891 1001.24 322.851C1001.32 322.609 1001.4 322.348 1001.48 322.066C1001.52 321.986 1001.54 321.906 1001.54 321.825C1001.62 321.584 1001.7 321.363 1001.78 321.161C1001.82 321.041 1001.86 320.9 1001.9 320.739C1001.98 320.578 1002.04 320.438 1002.08 320.317C1002.16 320.076 1002.26 319.874 1002.38 319.714C1002.42 319.593 1002.46 319.492 1002.5 319.412C1002.63 319.13 1002.75 318.869 1002.87 318.628C1002.87 318.587 1002.89 318.547 1002.93 318.507C1003.89 316.576 1005.16 314.827 1006.73 313.198C1006.77 313.198 1006.79 313.178 1006.79 313.137C1006.99 312.936 1007.21 312.735 1007.45 312.534C1007.53 312.454 1007.59 312.393 1007.63 312.353C1007.83 312.192 1008.02 312.031 1008.18 311.871C1008.3 311.75 1008.42 311.649 1008.54 311.569C1008.7 311.448 1008.84 311.328 1008.96 311.207C1009.12 311.086 1009.28 310.966 1009.44 310.845C1009.48 310.805 1009.54 310.764 1009.62 310.724L1056.38 277.12C1066.15 270.061 1079.85 272.293 1086.91 282.127C1093.97 291.961 1091.73 305.596 1081.9 312.655Z" fill="#FF7DAF" stroke="#1E1E1E" stroke-width="3.01656" stroke-miterlimit="10"/>
<path d="M1232.5 369.926L1210.69 336.182C1186.92 350.756 1155.72 343.838 1140.49 320.278C1125.26 296.718 1131.73 265.382 1154.81 249.744L1133 216C1091.27 243.691 1079.47 299.885 1106.75 342.091C1134 384.246 1190.09 396.553 1232.5 369.926Z" fill="#F9AB00" stroke="#1E1E1E" stroke-width="3.01656" stroke-linejoin="round"/>
<path d="M390.863 278.049L397.432 242.604C397.661 241.128 396.668 239.687 395.207 239.375L337.729 228.792L348.311 171.314C348.54 169.837 347.547 168.397 346.086 168.084L310.592 161.549C309.116 161.321 307.675 162.314 307.363 163.774L296.78 221.253L239.301 210.671C237.825 210.442 236.384 211.435 236.072 212.896L229.587 248.356C229.309 249.866 230.301 251.307 231.812 251.585L289.241 262.202L278.708 319.646C278.43 321.157 279.423 322.597 280.933 322.876L316.343 329.395C317.854 329.673 319.294 328.68 319.572 327.17L330.189 269.741L387.634 280.274C389.144 280.552 390.585 279.559 390.863 278.049Z" fill="#FF7DAF" stroke="#1E1E1E" stroke-width="3.01656" stroke-miterlimit="10"/>
<path d="M1299.54 275.833L1251.47 256.305L1270.57 209.297C1271.07 208.068 1270.47 206.653 1269.24 206.153L1240.18 194.345C1238.95 193.846 1237.53 194.443 1237.03 195.673L1217.94 242.68L1169.87 223.151C1168.64 222.652 1167.22 223.249 1166.72 224.479L1154.91 253.544C1154.41 254.774 1155.01 256.189 1156.24 256.688L1204.31 276.217L1185.21 323.224C1184.69 324.51 1185.31 325.869 1186.54 326.368L1215.61 338.176C1216.84 338.676 1218.23 338.134 1218.75 336.849L1237.85 289.841L1285.92 309.37C1287.15 309.869 1288.56 309.272 1289.06 308.042L1300.87 278.977C1301.37 277.748 1300.77 276.333 1299.54 275.833Z" fill="#EA4335" stroke="#1E1E1E" stroke-width="3.01656" stroke-linejoin="round"/>
<path d="M1091 155L1054.07 273.443H1026.77L1063.7 155H1091Z" fill="#4285F4" stroke="#1E1E1E" stroke-width="1.95" stroke-linejoin="round"/>
<path d="M1038.23 155L1001.3 273.443H974L1010.93 155H1038.23Z" fill="#4285F4" stroke="#1E1E1E" stroke-width="1.95" stroke-linejoin="round"/>
<path d="M429.592 266.184C413.218 266.184 400 252.966 400 236.592C400 220.218 413.218 207 429.592 207C445.966 207 459.184 220.218 459.184 236.592C459.184 252.966 445.966 266.184 429.592 266.184Z" fill="#EA4335"/>
<path d="M429.592 266.184C413.218 266.184 400 252.966 400 236.592C400 220.218 413.218 207 429.592 207C445.966 207 459.184 220.218 459.184 236.592C459.184 252.966 445.966 266.184 429.592 266.184Z" stroke="#1E1E1E" stroke-width="3.28802" stroke-linejoin="round"/>
<path d="M440.868 200.436L465.163 177.095C465.64 176.636 466.406 176.652 466.864 177.129L479.265 190.036C479.723 190.513 479.708 191.279 479.231 191.737L467.951 202.574C467.473 203.033 467.458 203.798 467.917 204.276L487.34 224.493C487.819 224.992 488.585 225.007 489.062 224.548L500.342 213.711C500.819 213.253 501.585 213.268 502.044 213.745L514.444 226.652C514.902 227.129 514.887 227.895 514.41 228.354L490.114 251.695C489.637 252.154 488.872 252.138 488.413 251.661L440.834 202.138C440.375 201.661 440.39 200.895 440.868 200.436Z" fill="#FFE7A5" stroke="#1E1E1E" stroke-width="1.50407" stroke-miterlimit="10"/>
<path d="M497.701 145.834L473.406 169.175C472.929 169.634 472.914 170.399 473.372 170.877L485.772 183.783C486.231 184.261 486.996 184.276 487.474 183.817L498.754 172.98C499.231 172.522 499.996 172.537 500.455 173.014L519.879 193.231C520.358 193.73 520.343 194.496 519.865 194.954L508.585 205.792C508.108 206.25 508.093 207.016 508.551 207.493L520.952 220.4C521.41 220.877 522.176 220.892 522.653 220.434L546.948 197.092C547.425 196.634 547.441 195.868 546.982 195.391L499.403 145.868C498.944 145.39 498.179 145.375 497.701 145.834Z" fill="#FFE7A5" stroke="#1E1E1E" stroke-width="1.50407" stroke-miterlimit="10"/>
</svg>
