<svg width="131" height="126" viewBox="0 0 131 126" fill="none" xmlns="http://www.w3.org/2000/svg">
<path d="M4.35577 25.0104L105.536 2.52348C106.832 2.23552 108.127 3.06002 108.441 4.47348L116.164 39.221C116.478 40.6345 115.667 41.9891 114.371 42.277L13.1909 64.764C11.8952 65.0519 10.5864 64.1686 10.2723 62.7551L2.54974 28.0076C2.2356 26.5941 3.06009 25.2984 4.35577 25.0104Z" fill="#57CAFF" stroke="#1E1E1E" stroke-width="3.01656" stroke-linejoin="round"/>
<path d="M17.6019 84.6113L118.782 62.1244C120.078 61.8364 121.386 62.7198 121.688 64.0744L129.423 98.8808C129.724 100.235 128.913 101.59 127.617 101.878L26.437 124.365C25.1413 124.653 23.8325 123.769 23.5314 122.415L15.7958 87.6084C15.4948 86.2539 16.3062 84.8993 17.6019 84.6113Z" fill="#57CAFF" stroke="#1E1E1E" stroke-width="3.01656" stroke-linejoin="round"/>
</svg>
