<svg width="95" height="115" viewBox="0 0 95 115" fill="none" xmlns="http://www.w3.org/2000/svg">
<path d="M11.1273 41.6548L33.1482 57.5219L11.1273 73.3287C1.29337 80.3874 -0.938876 94.0222 6.11986 103.856C13.1786 113.69 26.8738 115.922 36.6474 108.864L83.404 75.2593C83.4844 75.219 83.5448 75.1788 83.585 75.1386C83.7459 75.0179 83.9068 74.8972 84.0676 74.7766C84.2285 74.6559 84.3693 74.5353 84.49 74.4146C84.6106 74.3342 84.7313 74.2336 84.852 74.113C85.0128 73.9521 85.1938 73.7912 85.3949 73.6303C85.4754 73.5901 85.5357 73.5298 85.5759 73.4493C85.8173 73.2482 86.0385 73.0471 86.2396 72.846C86.2396 72.8058 86.2597 72.7857 86.2999 72.7857C87.8685 71.217 89.1355 69.4071 90.1008 67.4765C90.141 67.4363 90.1611 67.3961 90.1611 67.3559C90.2818 67.1145 90.4024 66.8531 90.5231 66.5716C90.5633 66.4911 90.6035 66.4107 90.6437 66.3302C90.7644 66.1291 90.865 65.928 90.9454 65.7269C90.9856 65.566 91.0459 65.4052 91.1264 65.2443C91.1666 65.0834 91.2068 64.9426 91.247 64.8219C91.3275 64.6208 91.4079 64.3996 91.4884 64.1583C91.4884 64.0779 91.5085 63.9974 91.5487 63.917C91.6291 63.6354 91.7096 63.374 91.79 63.1327C91.79 63.0925 91.8101 63.0321 91.8504 62.9517C91.8906 62.6702 91.9509 62.3886 92.0313 62.107C92.0313 62.0668 92.0313 62.0266 92.0313 61.9864C92.1118 61.6646 92.1721 61.363 92.2123 61.0814C92.2123 61.0412 92.2325 60.9809 92.2727 60.9004C92.3129 60.6189 92.3531 60.3374 92.3933 60.0558C92.3933 59.9754 92.3933 59.8949 92.3933 59.8145C92.4336 59.5732 92.4537 59.3117 92.4537 59.0302C92.4537 58.9095 92.4537 58.7889 92.4537 58.6682C92.4939 58.4671 92.514 58.2459 92.514 58.0045C92.514 57.8437 92.514 57.6828 92.514 57.5219C92.514 57.3208 92.514 57.1398 92.514 56.9789C92.514 56.7778 92.4939 56.5566 92.4537 56.3153C92.4537 56.1946 92.4537 56.074 92.4537 55.9533C92.4537 55.712 92.4336 55.4505 92.3933 55.169C92.3933 55.0885 92.3933 55.0081 92.3933 54.9277C92.3531 54.6461 92.3129 54.3646 92.2727 54.083C92.2325 54.0026 92.2123 53.9423 92.2123 53.902C92.1721 53.6205 92.1118 53.3188 92.0313 52.9971C92.0313 52.9568 92.0313 52.9166 92.0313 52.8764C91.9509 52.5949 91.8906 52.3133 91.8504 52.0318C91.8101 51.9513 91.79 51.891 91.79 51.8508C91.7096 51.6094 91.6291 51.348 91.5487 51.0665C91.5085 50.986 91.4884 50.9056 91.4884 50.8252C91.4079 50.5838 91.3275 50.3626 91.247 50.1615C91.2068 50.0408 91.1666 49.9001 91.1264 49.7392C91.0459 49.5783 90.9856 49.4375 90.9454 49.3169C90.865 49.0756 90.7644 48.8745 90.6437 48.7136C90.6035 48.5929 90.5633 48.4924 90.5231 48.4119C90.4024 48.1304 90.2818 47.8689 90.1611 47.6276C90.1611 47.5874 90.141 47.5472 90.1008 47.507C89.1355 45.5764 87.8685 43.8267 86.2999 42.1978C86.2597 42.1978 86.2396 42.1777 86.2396 42.1375C86.0385 41.9364 85.8173 41.7353 85.5759 41.5342C85.5357 41.4537 85.4754 41.3934 85.3949 41.3532C85.1938 41.1923 85.0128 41.0314 84.852 40.8705C84.7313 40.7499 84.6106 40.6493 84.49 40.5689C84.3693 40.4482 84.2285 40.3275 84.0676 40.2069C83.9068 40.0862 83.7459 39.9656 83.585 39.8449C83.5448 39.8047 83.4844 39.7644 83.404 39.7242L36.6474 6.1198C26.8738 -0.938941 13.1786 1.29332 6.11986 11.1273C-0.938876 20.9613 1.29337 34.5961 11.1273 41.6548Z" fill="#FF7DAF" stroke="#1E1E1E" stroke-width="3.01656" stroke-miterlimit="10"/>
</svg>
