<svg width="343" height="170" viewBox="0 0 343 170" fill="none" xmlns="http://www.w3.org/2000/svg">
<path d="M293.295 46.7158C270.634 41.5854 248.253 49.5527 233.889 65.4534C232.636 66.8032 230.376 66.4144 229.795 64.6992C222.788 44.9095 205.738 29.2091 183.609 24.8001C161.481 20.391 139.716 28.3579 125.659 43.9507C124.465 45.3122 122.228 44.8051 121.588 43.0781C114.415 22.8863 96.7976 6.94965 73.9 3.0026C42.151 -2.52348 9.91294 19.105 3.17969 50.429C-3.97796 83.883 17.8403 116.712 51.5069 123.42C73.6358 127.829 95.4007 119.863 109.458 104.27C110.652 102.908 112.9 103.356 113.481 105.071C120.488 124.861 137.537 140.561 159.666 144.97C181.795 149.38 203.56 141.413 217.617 125.82C218.811 124.458 221.059 124.906 221.64 126.621C228.647 146.411 245.697 162.112 267.825 166.521C301.492 173.228 334.227 151.268 340.438 117.626C346.224 86.1131 324.738 53.7803 293.295 46.7158Z" fill="#F8D8D8" stroke="#1E1E1E" stroke-width="3.01656" stroke-miterlimit="10"/>
</svg>
