<svg width="94" height="115" viewBox="0 0 94 115" fill="none" xmlns="http://www.w3.org/2000/svg">
<path d="M82.9006 41.6548L60.8797 57.5219L82.9006 73.3287C92.7345 80.3874 94.9668 94.0222 87.9081 103.856C80.8493 113.69 67.1542 115.922 57.3805 108.864L10.6239 75.2593C10.5435 75.219 10.4831 75.1788 10.4429 75.1386C10.282 75.0179 10.1212 74.8972 9.96027 74.7766C9.83961 74.6559 9.69883 74.5353 9.53794 74.4146C9.41728 74.3342 9.29664 74.2336 9.17597 74.113C9.01509 73.9521 8.83408 73.7912 8.63298 73.6303C8.59276 73.5901 8.53243 73.5298 8.45199 73.4493C8.21067 73.2482 7.98945 73.0471 7.78835 72.846C7.78835 72.8058 7.76823 72.7857 7.72801 72.7857C6.1594 71.217 4.89246 69.4071 3.92716 67.4765C3.88694 67.4363 3.86683 67.3961 3.86683 67.3559C3.74616 67.1145 3.6255 66.8531 3.50484 66.5716C3.46461 66.4911 3.4244 66.4107 3.38418 66.3302C3.26352 66.1291 3.16297 65.928 3.08253 65.7269C3.04231 65.566 2.98197 65.4052 2.90152 65.2443C2.8613 65.0834 2.82109 64.9426 2.78087 64.8219C2.70043 64.6208 2.61999 64.3996 2.53955 64.1583C2.53955 64.0779 2.51944 63.9974 2.47922 63.917C2.39878 63.6354 2.31834 63.374 2.2379 63.1327C2.2379 63.0925 2.21778 63.0321 2.17756 62.9517C2.13734 62.6702 2.077 62.3886 1.99656 62.107C1.99656 62.0668 1.99656 62.0266 1.99656 61.9864C1.91612 61.6646 1.85579 61.363 1.81557 61.0814C1.81557 61.0412 1.79546 60.9809 1.75524 60.9004C1.71502 60.6189 1.67481 60.3374 1.63459 60.0558C1.63459 59.9754 1.63459 59.8949 1.63459 59.8145C1.59436 59.5732 1.57425 59.3117 1.57425 59.0302C1.57425 58.9095 1.57425 58.7889 1.57425 58.6682C1.53403 58.4671 1.51392 58.2459 1.51392 58.0045C1.51392 57.8437 1.51392 57.6828 1.51392 57.5219C1.51392 57.3208 1.51392 57.1398 1.51392 56.9789C1.51392 56.7778 1.53403 56.5566 1.57425 56.3153C1.57425 56.1946 1.57425 56.074 1.57425 55.9533C1.57425 55.712 1.59436 55.4505 1.63459 55.169C1.63459 55.0885 1.63459 55.0081 1.63459 54.9277C1.67481 54.6461 1.71502 54.3646 1.75524 54.083C1.79546 54.0026 1.81557 53.9423 1.81557 53.902C1.85579 53.6205 1.91612 53.3188 1.99656 52.9971C1.99656 52.9568 1.99656 52.9166 1.99656 52.8764C2.077 52.5949 2.13734 52.3133 2.17756 52.0318C2.21778 51.9513 2.2379 51.891 2.2379 51.8508C2.31834 51.6094 2.39878 51.348 2.47922 51.0665C2.51944 50.986 2.53955 50.9056 2.53955 50.8252C2.61999 50.5838 2.70043 50.3626 2.78087 50.1615C2.82109 50.0408 2.8613 49.9001 2.90152 49.7392C2.98197 49.5783 3.04231 49.4375 3.08253 49.3169C3.16297 49.0756 3.26352 48.8745 3.38418 48.7136C3.4244 48.5929 3.46461 48.4924 3.50484 48.4119C3.6255 48.1304 3.74616 47.8689 3.86683 47.6276C3.86683 47.5874 3.88694 47.5472 3.92716 47.507C4.89246 45.5764 6.1594 43.8267 7.72801 42.1978C7.76823 42.1978 7.78835 42.1777 7.78835 42.1375C7.98945 41.9364 8.21067 41.7353 8.45199 41.5342C8.53243 41.4537 8.59276 41.3934 8.63298 41.3532C8.83408 41.1923 9.01509 41.0314 9.17597 40.8705C9.29664 40.7499 9.41728 40.6493 9.53794 40.5689C9.69883 40.4482 9.83961 40.3275 9.96027 40.2069C10.1212 40.0862 10.282 39.9656 10.4429 39.8449C10.4831 39.8047 10.5435 39.7644 10.6239 39.7242L57.3805 6.1198C67.1542 -0.938941 80.8493 1.29332 87.9081 11.1273C94.9668 20.9613 92.7345 34.5961 82.9006 41.6548Z" fill="#FF7DAF" stroke="#1E1E1E" stroke-width="3.01656" stroke-miterlimit="10"/>
</svg>
