<svg width="171" height="171" viewBox="0 0 171 171" fill="none" xmlns="http://www.w3.org/2000/svg">
<path d="M162.863 118.049L169.432 82.6043C169.661 81.1281 168.668 79.6874 167.207 79.3751L109.729 68.7924L120.311 11.3136C120.54 9.83744 119.547 8.39672 118.086 8.0844L82.5919 1.54942C81.1158 1.32102 79.6751 2.31371 79.3628 3.77442L68.7801 61.2533L11.3013 50.6706C9.82509 50.4422 8.38438 51.4349 8.07206 52.8956L1.58674 88.3556C1.30866 89.866 2.30136 91.3067 3.81174 91.5848L61.2409 102.202L50.7079 159.646C50.4298 161.157 51.4225 162.597 52.9329 162.876L88.3433 169.395C89.8537 169.673 91.2944 168.68 91.5725 167.17L102.189 109.741L159.634 120.274C161.144 120.552 162.585 119.559 162.863 118.049Z" fill="#FF7DAF" stroke="#1E1E1E" stroke-width="3.01656" stroke-miterlimit="10"/>
</svg>
