<svg width="62" height="45" viewBox="0 0 62 45" fill="none" xmlns="http://www.w3.org/2000/svg">
<path d="M24.7585 8.54831L18.7254 18.0806C21.1387 18.4828 23.3106 19.7699 25.2412 21.9418C27.1316 24.1137 28.0767 26.7683 28.0767 29.9055C28.0767 33.4047 26.8299 36.4213 24.3362 38.9552C21.8023 41.4489 18.7053 42.6957 15.0452 42.6957C11.3852 42.6957 8.28815 41.4489 5.75424 38.9552C2.77791 35.9386 1.57128 32.2182 2.13437 27.7939C2.31537 26.2253 2.79806 24.6567 3.4617 23.2088C4.427 21.1173 5.83473 18.7242 7.68488 16.0294L16.2519 3.05819C16.9758 1.97224 18.4238 1.67058 19.4494 2.39455L24.0949 5.35077C25.1809 6.07474 25.4825 7.46235 24.7585 8.54831Z" fill="#34A853" stroke="#1E1E1E" stroke-width="3.01656" stroke-miterlimit="10"/>
<path d="M56.6134 8.54831L50.5803 18.0806C53.0337 18.4828 55.2056 19.7699 57.096 21.9418C58.9864 24.1137 59.9316 26.7683 59.9316 29.9055C59.9316 33.4047 58.6847 36.4213 56.191 38.9552C53.6571 41.4489 50.5602 42.6957 46.9001 42.6957C43.24 42.6957 40.143 41.4489 37.6091 38.9552C34.6328 35.9386 33.4261 32.2182 33.9892 27.7939C34.2306 26.2253 34.6528 24.6567 35.3165 23.2088C36.2818 21.1173 37.6895 18.7242 39.5397 16.0294L48.167 3.05819C48.8307 1.97224 50.2786 1.67058 51.3042 2.39455L55.9498 5.35077C57.0357 6.07474 57.3374 7.46235 56.6134 8.54831Z" fill="#34A853" stroke="#1E1E1E" stroke-width="3.01656" stroke-miterlimit="10"/>
</svg>
