<svg width="143" height="193" viewBox="0 0 143 193" fill="none" xmlns="http://www.w3.org/2000/svg">
<path d="M14.3346 87.2157L23.1741 92.4216C26.3473 94.2904 27.4187 98.4321 25.5833 101.549L6.82846 133.393C-2.48222 149.203 2.74836 169.607 18.6141 178.951L38.673 190.765C39.9196 191.499 41.5403 191.08 42.2744 189.833L61.2629 157.592C61.9971 156.345 61.5778 154.724 60.3312 153.99L45.5987 145.314C42.4255 143.445 41.4108 139.336 43.2462 136.22L94.5384 49.1282C96.4072 45.955 100.459 44.9069 103.632 46.7757L118.364 55.4523C119.611 56.1865 121.232 55.7672 121.999 54.464L140.954 22.2791C141.688 21.0325 141.269 19.4119 140.023 18.6777L119.964 6.86415C104.098 -2.4799 83.75 2.78407 74.406 18.6498L54.8502 51.8547C52.9814 55.0278 48.8397 56.0992 45.6666 54.2304L36.8271 49.0245C35.5238 48.2569 33.9032 48.6762 33.169 49.9228L13.3463 83.5809C12.6121 84.8275 13.0314 86.4481 14.3346 87.2157Z" fill="#CCF6CF" stroke="#1E1E1E" stroke-width="3.28802" stroke-linejoin="round"/>
</svg>
