<svg width="150" height="148" viewBox="0 0 150 148" fill="none" xmlns="http://www.w3.org/2000/svg">
<path d="M146.541 83.8332L98.4719 64.3046L117.569 17.2972C118.069 16.0675 117.471 14.6527 116.242 14.1531L87.1764 2.34515C85.9467 1.84558 84.5319 2.44294 84.0323 3.67262L64.9352 50.68L16.8658 31.1514C15.6362 30.6518 14.2213 31.2492 13.7217 32.4788L1.91375 61.544C1.41418 62.7737 2.01155 64.1885 3.24123 64.6881L51.3106 84.2167L32.2134 131.224C31.6911 132.51 32.3112 133.869 33.5409 134.368L62.6061 146.176C63.8358 146.676 65.2279 146.134 65.7502 144.849L84.8473 97.8413L132.917 117.37C134.146 117.869 135.561 117.272 136.061 116.042L147.869 86.9772C148.368 85.7476 147.771 84.3327 146.541 83.8332Z" fill="#EA4335" stroke="#1E1E1E" stroke-width="3.01656" stroke-linejoin="round"/>
</svg>
