<svg width="178" height="152" viewBox="0 0 178 152" fill="none" xmlns="http://www.w3.org/2000/svg">
<path d="M56.9746 16.9105C69.7728 26.2578 72.565 44.1764 63.2177 56.9746C53.8704 69.7728 35.9518 72.565 23.1536 63.2177C10.3554 53.8704 7.56317 35.9518 16.9105 23.1536C26.2578 10.3554 44.1764 7.56319 56.9746 16.9105Z" fill="#FFD427" stroke="#1E1E1E" stroke-width="3.28802" stroke-miterlimit="10"/>
<path d="M113 57.8293C100.202 48.482 82.2832 51.2742 72.9359 64.0724C63.5886 76.8706 66.3808 94.7892 79.179 104.137C88.7909 111.157 101.235 111.288 110.844 105.602C112.751 104.552 114.912 104.827 116.095 107.89L131.889 141.901C132.284 142.922 133.448 143.447 134.469 143.052L153.536 136.457C154.61 136.102 155.134 134.938 154.74 133.917C154.74 133.917 125.702 74.1095 123.105 69.5257C121.85 67.3056 120.385 65.2592 118.713 63.3863C117.122 61.3283 115.23 59.4583 113 57.8293Z" fill="#FFD427" stroke="#1E1E1E" stroke-width="3.28802" stroke-miterlimit="10"/>
</svg>
