<svg width="221" height="65" viewBox="0 0 221 65" fill="none" xmlns="http://www.w3.org/2000/svg">
<path d="M63.1154 32.5878C63.1154 49.4805 49.4202 63.1153 32.5878 63.1153C15.6951 63.1153 2 49.4805 2 32.5878C2 15.6951 15.6951 1.99994 32.5878 1.99994C49.4202 1.99994 63.1154 15.6951 63.1154 32.5878Z" fill="#5CDB6D" stroke="#1E1E1E" stroke-width="3.01656" stroke-linejoin="round"/>
<path d="M141.291 32.5878C141.291 49.4805 127.596 63.1153 110.703 63.1153C93.8105 63.1153 80.1154 49.4805 80.1154 32.5878C80.1154 15.6951 93.8105 1.99994 110.703 1.99994C127.596 1.99994 141.291 15.6951 141.291 32.5878Z" fill="#5CDB6D" stroke="#1E1E1E" stroke-width="3.01656" stroke-linejoin="round"/>
<path d="M219.407 32.5878C219.407 49.4805 205.711 63.1153 188.819 63.1153C171.986 63.1153 158.291 49.4805 158.291 32.5878C158.291 15.6951 171.986 1.99994 188.819 1.99994C205.711 1.99994 219.407 15.6951 219.407 32.5878Z" fill="#5CDB6D" stroke="#1E1E1E" stroke-width="3.01656" stroke-linejoin="round"/>
</svg>
