<svg width="110" height="109" viewBox="0 0 110 109" fill="none" xmlns="http://www.w3.org/2000/svg">
<path d="M1.86769 56.4364L26.163 33.0948C26.6402 32.6363 27.4058 32.6516 27.8643 33.1288L40.2646 46.0357C40.7231 46.5129 40.7078 47.2785 40.2305 47.737L28.9506 58.5742C28.4733 59.0327 28.458 59.7983 28.9165 60.2756L48.3401 80.4927C48.8195 80.9916 49.5851 81.007 50.0623 80.5485L61.3422 69.7113C61.8195 69.2528 62.5851 69.2681 63.0436 69.7453L75.4438 82.6522C75.9023 83.1294 75.887 83.895 75.4098 84.3535L51.1145 107.695C50.6372 108.154 49.8716 108.138 49.4132 107.661L1.83363 58.1378C1.37513 57.6605 1.39046 56.8949 1.86769 56.4364Z" fill="#FFE7A5" stroke="#1E1E1E" stroke-width="1.50407" stroke-miterlimit="10"/>
<path d="M58.7014 1.83353L34.4061 25.1752C33.9289 25.6337 33.9135 26.3993 34.372 26.8765L46.7723 39.7834C47.2308 40.2606 47.9964 40.276 48.4736 39.8175L59.7536 28.9803C60.2308 28.5218 60.9964 28.5371 61.4549 29.0143L80.8785 49.2315C81.3579 49.7304 81.3425 50.496 80.8653 50.9545L69.5853 61.7917C69.1081 62.2502 69.0928 63.0158 69.5513 63.493L81.9515 76.3999C82.41 76.8771 83.1756 76.8925 83.6529 76.434L107.948 53.0923C108.425 52.6338 108.441 51.8682 107.982 51.391L60.4027 1.86759C59.9442 1.39036 59.1786 1.37503 58.7014 1.83353Z" fill="#FFE7A5" stroke="#1E1E1E" stroke-width="1.50407" stroke-miterlimit="10"/>
</svg>
