<svg width="132" height="110" viewBox="0 0 132 110" fill="none" xmlns="http://www.w3.org/2000/svg">
<path d="M14.6261 70.1777L30.0281 72.9398L22.5183 86.6445C19.1646 92.7646 21.4015 100.409 27.5216 103.763C33.6417 107.117 41.3179 104.865 44.6402 98.7597L60.575 69.6388C60.6068 69.5978 60.6281 69.5619 60.639 69.531C60.6926 69.4282 60.7462 69.3253 60.7998 69.2225C60.8533 69.1197 60.8964 69.0219 60.9291 68.9291C60.9718 68.8572 61.0095 68.7749 61.0421 68.6821C61.0857 68.5583 61.1397 68.4296 61.2042 68.2959C61.236 68.2549 61.2523 68.2085 61.2532 68.1567C61.3285 67.992 61.3934 67.8323 61.4479 67.6776C61.4378 67.6567 61.4433 67.6413 61.4642 67.6312C61.8888 66.4249 62.0965 65.1682 62.1173 63.924C62.1282 63.8931 62.1286 63.8672 62.1186 63.8463C62.1212 63.6907 62.1188 63.5248 62.1114 63.3483C62.1122 63.2965 62.1131 63.2446 62.114 63.1928C62.1266 63.0582 62.1288 62.9286 62.1205 62.804C62.1013 62.7103 62.0926 62.6116 62.0943 62.5079C62.0751 62.4143 62.061 62.3311 62.0518 62.2583C62.0435 62.1337 62.0302 61.9987 62.0119 61.8532C61.9919 61.8114 61.9823 61.7645 61.9831 61.7127C61.9548 61.5463 61.9315 61.3903 61.9132 61.2448C61.9031 61.2239 61.8986 61.1875 61.8994 61.1357C61.8502 60.9793 61.8114 60.8179 61.7831 60.6515C61.773 60.6305 61.763 60.6096 61.753 60.5887C61.7147 60.4014 61.6709 60.2296 61.6216 60.0732C61.6116 60.0523 61.607 60.0159 61.6079 59.964C61.5586 59.8076 61.5094 59.6512 61.4602 59.4948C61.4401 59.453 61.4201 59.4112 61.4 59.3694C61.3608 59.2339 61.3061 59.093 61.236 58.9466C61.2059 58.8839 61.1758 58.8211 61.1458 58.7584C61.1166 58.6438 61.0719 58.5238 61.0118 58.3984C60.9717 58.3147 60.9316 58.2311 60.8915 58.1474C60.8414 58.0429 60.7963 57.9488 60.7562 57.8651C60.7061 57.7606 60.6405 57.6506 60.5595 57.5352C60.5294 57.4724 60.4993 57.4097 60.4693 57.347C60.4092 57.2215 60.3336 57.0906 60.2425 56.9542C60.2224 56.9124 60.2024 56.8706 60.1824 56.8288C60.0913 56.6924 60.0002 56.5561 59.9092 56.4197C59.8682 56.3879 59.8427 56.3616 59.8327 56.3407C59.7416 56.2043 59.6351 56.0625 59.5131 55.9153C59.5031 55.8944 59.4931 55.8735 59.483 55.8526C59.3711 55.7262 59.2696 55.5949 59.1785 55.4586C59.1375 55.4268 59.112 55.4004 59.102 55.3795C59.0001 55.2741 58.8931 55.1582 58.7811 55.0319C58.7402 55.0001 58.7097 54.9633 58.6896 54.9215C58.5877 54.816 58.4907 54.7211 58.3988 54.6366C58.3478 54.5838 58.2919 54.5207 58.2309 54.4471C58.1489 54.3835 58.0825 54.3253 58.0315 54.2726C57.9296 54.1672 57.8272 54.0877 57.7244 54.0341C57.6734 53.9814 57.6274 53.9392 57.5865 53.9074C57.4536 53.7911 57.3257 53.6852 57.2029 53.5898C57.1928 53.5689 57.1724 53.553 57.1414 53.5421C56.1585 52.779 55.0639 52.185 53.8425 51.729C53.8216 51.7391 53.8062 51.7336 53.7961 51.7127C53.6415 51.6583 53.4764 51.6088 53.3008 51.5644C53.2598 51.5326 53.2134 51.5163 53.1616 51.5154C53.017 51.4819 52.8828 51.4433 52.759 51.3998C52.6663 51.3671 52.5785 51.3449 52.4957 51.3332C52.4029 51.3005 52.2996 51.2728 52.1859 51.2502C52.0722 51.2275 51.9585 51.2049 51.8448 51.1823C51.8139 51.1714 51.7725 51.1655 51.7206 51.1646L19.0393 45.3446C12.1992 44.1102 5.63553 48.6832 4.41614 55.5546C3.19676 62.4259 7.7547 68.9583 14.6261 70.1777Z" fill="#57CAFF" stroke="#1E1E1E" stroke-width="3.01656" stroke-miterlimit="10"/>
<path d="M109.386 22.8875L101.891 36.6236L117.278 39.3543C124.15 40.5737 128.708 47.106 127.488 53.9774C126.269 60.8488 119.705 65.4217 112.865 64.1873L80.1837 58.3673C80.1319 58.3664 80.0905 58.3606 80.0596 58.3497C79.9458 58.327 79.8321 58.3044 79.7184 58.2817C79.6256 58.2491 79.5224 58.2214 79.4087 58.1988C79.3259 58.187 79.2381 58.1648 79.1453 58.1322C79.0216 58.0886 78.8874 58.0501 78.7428 58.0165C78.7118 58.0056 78.6654 57.9893 78.6036 57.9675C78.428 57.9231 78.2629 57.8737 78.1082 57.8192C78.0982 57.7983 78.0827 57.7929 78.0618 57.8029C76.8555 57.3783 75.7458 56.753 74.7629 55.9898C74.732 55.9789 74.7115 55.963 74.7015 55.9421C74.5786 55.8467 74.4508 55.7409 74.3179 55.6246C74.2769 55.5928 74.236 55.561 74.195 55.5292C74.0822 55.4547 73.9798 55.3752 73.8879 55.2907C73.8269 55.2171 73.7554 55.1485 73.6735 55.0849C73.6125 55.0113 73.5565 54.9481 73.5055 54.8954C73.4136 54.8109 73.3167 54.7159 73.2147 54.6105C73.1947 54.5687 73.1642 54.5319 73.1232 54.5001C73.0113 54.3737 72.9043 54.2579 72.8023 54.1524C72.7923 54.1315 72.7668 54.1052 72.7259 54.0734C72.6348 53.937 72.5333 53.8057 72.4213 53.6794C72.4113 53.6585 72.4013 53.6376 72.3913 53.6167C72.2693 53.4694 72.1627 53.3276 72.0717 53.1913C72.0616 53.1704 72.0362 53.144 71.9952 53.1122C71.9041 52.9758 71.8131 52.8395 71.722 52.7031C71.702 52.6613 71.6819 52.6195 71.6619 52.5777C71.5808 52.4622 71.5052 52.3313 71.4351 52.185C71.405 52.1222 71.375 52.0595 71.3449 51.9968C71.2739 51.9023 71.2083 51.7923 71.1482 51.6668C71.1081 51.5831 71.068 51.4995 71.0279 51.4159C70.9778 51.3113 70.9327 51.2172 70.8926 51.1336C70.8425 51.029 70.7978 50.909 70.7586 50.7735C70.7285 50.7108 70.6985 50.6481 70.6684 50.5853C70.6083 50.4599 70.5536 50.3189 70.5043 50.1625C70.4843 50.1207 70.4643 50.0789 70.4442 50.0371C70.395 49.8807 70.3457 49.7243 70.2965 49.5679C70.2974 49.5161 70.2928 49.4797 70.2828 49.4588C70.2335 49.3024 70.1897 49.1305 70.1514 48.9432C70.1413 48.9223 70.1313 48.9014 70.1213 48.8805C70.093 48.7141 70.0542 48.5527 70.0049 48.3963C70.0058 48.3444 70.0012 48.308 69.9912 48.2871C69.9729 48.1416 69.9496 47.9857 69.9212 47.8193C69.9221 47.7674 69.9125 47.7206 69.8925 47.6788C69.8742 47.5333 69.8609 47.3982 69.8526 47.2736C69.8434 47.2009 69.8292 47.1176 69.8101 47.024C69.8118 46.9203 69.8081 46.8321 69.7989 46.7593C69.7806 46.6138 69.7828 46.4842 69.8054 46.3705C69.7963 46.2978 69.7921 46.2355 69.793 46.1836C69.7856 46.0072 69.7832 45.8412 69.7858 45.6857C69.7757 45.6648 69.7762 45.6389 69.7871 45.6079C69.8079 44.3637 70.0306 43.1384 70.4402 41.9007C70.4611 41.8907 70.4665 41.8752 70.4565 41.8543C70.511 41.6996 70.5759 41.54 70.6512 41.3753C70.673 41.3134 70.6893 41.267 70.7002 41.2361C70.7647 41.1024 70.8187 40.9736 70.8622 40.8499C70.8949 40.7571 70.9326 40.6748 70.9753 40.6029C71.0288 40.5 71.0719 40.4022 71.1046 40.3094C71.1582 40.2066 71.2118 40.1038 71.2653 40.001C71.2762 39.9701 71.2976 39.9341 71.3294 39.8932L87.2642 10.7722C90.5865 4.66716 98.2627 2.41523 104.383 5.76893C110.503 9.12262 112.74 16.7674 109.386 22.8875Z" fill="#57CAFF" stroke="#1E1E1E" stroke-width="3.01656" stroke-miterlimit="10"/>
</svg>
