<svg width="149" height="151" viewBox="0 0 149 151" fill="none" xmlns="http://www.w3.org/2000/svg">
<path d="M23.2335 60.2673L28.2023 63.1937C29.986 64.2442 30.5883 66.5722 29.5566 68.3241L19.0142 86.2245C13.7806 95.111 16.7207 106.581 25.6391 111.833L36.9145 118.474C37.6152 118.886 38.5262 118.651 38.9389 117.95L49.6125 99.8266C50.0252 99.1258 49.7896 98.2149 49.0888 97.8022L40.8075 92.9249C39.0238 91.8745 38.4534 89.5652 39.4851 87.8133L68.3171 38.8579C69.3676 37.0742 71.6451 36.485 73.4287 37.5355L81.7101 42.4128C82.4108 42.8254 83.3218 42.5898 83.7532 41.8572L94.4081 23.7657C94.8208 23.0649 94.5852 22.1539 93.8844 21.7413L82.6091 15.1007C73.6907 9.84828 62.2529 12.8072 57.0004 21.7256L46.0079 40.3905C44.9574 42.1741 42.6293 42.7764 40.8456 41.7259L35.8768 38.7996C35.1443 38.3681 34.2333 38.6038 33.8206 39.3045L22.678 58.2242C22.2653 58.9249 22.501 59.8359 23.2335 60.2673Z" fill="#57CAFF" stroke="#1E1E1E" stroke-width="3.28802" stroke-linejoin="round"/>
<path d="M125.179 90.2795L120.179 87.3344C118.395 86.2839 117.774 83.9877 118.825 82.204L129.348 64.3355C134.601 55.4171 131.642 43.9793 122.723 38.7268L111.448 32.0863C110.747 31.6736 109.836 31.9093 109.423 32.61L98.7686 50.7015C98.3371 51.4341 98.5728 52.3451 99.2735 52.7578L107.555 57.635C109.339 58.6855 109.928 60.9629 108.877 62.7466L80.0452 111.702C79.0135 113.454 76.7173 114.075 74.9336 113.024L66.6523 108.147C65.9516 107.735 65.0406 107.97 64.6279 108.671L53.9542 126.794C53.5415 127.495 53.7772 128.406 54.4779 128.819L65.7533 135.459C74.6717 140.712 86.1283 137.721 91.3619 128.834L102.373 110.138C103.424 108.354 105.733 107.784 107.517 108.834L112.517 111.779C113.218 112.192 114.129 111.956 114.561 111.224L125.684 92.3358C126.116 91.6032 125.88 90.6922 125.179 90.2795Z" fill="#57CAFF" stroke="#1E1E1E" stroke-width="3.28802" stroke-linejoin="round"/>
</svg>
