<svg width="101" height="148" viewBox="0 0 101 148" fill="none" xmlns="http://www.w3.org/2000/svg">
<path d="M58.6137 41.6071C55.6257 28.7593 48.0211 17.4573 37.2456 9.84924C26.47 2.24123 13.2747 -1.14236 0.167755 0.341635C-12.9392 1.82563 -25.044 8.07374 -33.8458 17.8983C-42.6476 27.7229 -47.5327 40.4391 -47.5727 53.6297C-47.5785 62.2257 -45.502 70.6952 -41.521 78.3137C-48.7754 82.2012 -54.5227 88.4014 -57.8496 95.9294C-61.1765 103.457 -61.8923 111.881 -59.8833 119.863C-57.8742 127.844 -53.2555 134.925 -46.761 139.981C-40.2666 145.037 -32.2688 147.777 -24.0384 147.767H46.5642C59.7372 147.705 72.4299 142.813 82.2355 134.016C92.0412 125.219 98.2782 113.13 99.7638 100.041C101.249 86.9523 97.8806 73.773 90.2959 63.0025C82.7111 52.232 71.4379 44.619 58.6137 41.6071Z" fill="#C3ECF6"/>
</svg>
