<svg width="37" height="37" viewBox="0 0 37 37" fill="none" xmlns="http://www.w3.org/2000/svg">
<g clip-path="url(#clip0_77_3676)">
<path d="M10.3999 0C10.7403 0 11.0667 0.135201 11.3074 0.37586C11.548 0.616519 11.6832 0.942922 11.6832 1.28327V3.68297H25.4636V1.29976C25.4636 0.959421 25.5989 0.633018 25.8395 0.392359C26.0802 0.1517 26.4066 0.0164991 26.7469 0.0164991C27.0873 0.0164991 27.4137 0.1517 27.6543 0.392359C27.895 0.633018 28.0302 0.959421 28.0302 1.29976V3.68297H32.9982C33.9703 3.68297 34.9026 4.06901 35.5902 4.75621C36.2777 5.44341 36.6642 6.37552 36.6647 7.34761V33.0001C36.6642 33.9722 36.2777 34.9043 35.5902 35.5915C34.9026 36.2787 33.9703 36.6647 32.9982 36.6647H3.66647C2.69438 36.6647 1.76208 36.2787 1.07453 35.5915C0.386989 34.9043 0.000486046 33.9722 0 33.0001L0 7.34761C0.000486046 6.37552 0.386989 5.44341 1.07453 4.75621C1.76208 4.06901 2.69438 3.68297 3.66647 3.68297H9.11668V1.28143C9.11717 0.941407 9.25258 0.615474 9.49319 0.375211C9.7338 0.134949 10.0599 -3.46965e-07 10.3999 0ZM2.56653 14.1929V33.0001C2.56653 33.1445 2.59498 33.2876 2.65026 33.421C2.70554 33.5545 2.78656 33.6757 2.8887 33.7779C2.99083 33.88 3.11209 33.961 3.24554 34.0163C3.37899 34.0716 3.52203 34.1 3.66647 34.1H32.9982C33.1427 34.1 33.2857 34.0716 33.4192 34.0163C33.5526 33.961 33.6739 33.88 33.776 33.7779C33.8782 33.6757 33.9592 33.5545 34.0145 33.421C34.0697 33.2876 34.0982 33.1445 34.0982 33.0001V14.2186L2.56653 14.1929ZM12.2222 26.8001V29.8542H9.16618V26.8001H12.2222ZM19.8594 26.8001V29.8542H16.8053V26.8001H19.8594ZM27.4985 26.8001V29.8542H24.4425V26.8001H27.4985ZM12.2222 19.5093V22.5635H9.16618V19.5093H12.2222ZM19.8594 19.5093V22.5635H16.8053V19.5093H19.8594ZM27.4985 19.5093V22.5635H24.4425V19.5093H27.4985ZM9.11668 6.24767H3.66647C3.52203 6.24767 3.37899 6.27612 3.24554 6.3314C3.11209 6.38667 2.99083 6.4677 2.8887 6.56983C2.78656 6.67197 2.70554 6.79323 2.65026 6.92668C2.59498 7.06013 2.56653 7.20316 2.56653 7.34761V11.6282L34.0982 11.6539V7.34761C34.0982 7.20316 34.0697 7.06013 34.0145 6.92668C33.9592 6.79323 33.8782 6.67197 33.776 6.56983C33.6739 6.4677 33.5526 6.38667 33.4192 6.3314C33.2857 6.27612 33.1427 6.24767 32.9982 6.24767H28.0302V7.95074C28.0302 8.29109 27.895 8.61749 27.6543 8.85815C27.4137 9.09881 27.0873 9.23401 26.7469 9.23401C26.4066 9.23401 26.0802 9.09881 25.8395 8.85815C25.5989 8.61749 25.4636 8.29109 25.4636 7.95074V6.24767H11.6832V7.93425C11.6832 8.27459 11.548 8.60099 11.3074 8.84165C11.0667 9.08231 10.7403 9.21751 10.3999 9.21751C10.0596 9.21751 9.7332 9.08231 9.49254 8.84165C9.25188 8.60099 9.11668 8.27459 9.11668 7.93425V6.24767Z" fill="#1E1E1E"/>
</g>
<defs>
<clipPath id="clip0_77_3676">
<rect width="36.6647" height="36.6647" fill="white"/>
</clipPath>
</defs>
</svg>
