<svg width="126" height="70" viewBox="0 0 126 70" fill="none" xmlns="http://www.w3.org/2000/svg">
<path d="M53.4028 6.55923C57.6882 12.5193 56.3089 20.7945 50.3488 25.0799L22.0259 45.4231C16.0658 49.7085 7.79066 48.3293 3.50529 42.3692C-0.780077 36.4583 0.599098 28.1339 6.55921 23.8977L34.8821 3.50529C40.8422 -0.780086 49.1174 0.599114 53.4028 6.55923Z" fill="#EA4335" stroke="#1E1E1E" stroke-width="2.02219" stroke-miterlimit="10"/>
<path d="M3.50529 26.9019C-0.780077 32.862 0.599098 41.1372 6.55921 45.4226L34.8821 65.815C40.8422 70.0512 49.1174 68.7212 53.4028 62.7611C57.6882 56.801 56.3089 48.5258 50.3488 44.2404L22.0259 23.8972C16.0658 19.6118 7.79066 20.9418 3.50529 26.9019Z" fill="#4285F4" stroke="#1E1E1E" stroke-width="2.02219" stroke-miterlimit="10"/>
<path d="M121.872 26.9019C126.157 32.862 124.778 41.1372 118.818 45.4226L90.4947 65.815C84.5345 70.0512 76.2594 68.7212 71.974 62.7611C67.6887 56.801 69.0678 48.5258 75.028 44.2404L103.351 23.8972C109.311 19.6118 117.586 20.9418 121.872 26.9019Z" fill="#F9AB00" stroke="#1E1E1E" stroke-width="2.02219" stroke-miterlimit="10"/>
<path d="M71.974 6.55923C67.6887 12.5193 69.0678 20.7945 75.028 25.0799L103.351 45.4231C109.311 49.7085 117.586 48.3293 121.872 42.3692C126.157 36.4583 124.778 28.1339 118.818 23.8977L90.4947 3.50529C84.5345 -0.780086 76.2594 0.599114 71.974 6.55923Z" fill="#34A853" stroke="#1E1E1E" stroke-width="2.02219" stroke-miterlimit="10"/>
</svg>
