<svg width="162" height="100" viewBox="0 0 162 100" fill="none" xmlns="http://www.w3.org/2000/svg">
<path d="M119.614 -6.39291C116.626 -19.2407 109.021 -30.5427 98.2456 -38.1508C87.47 -45.7588 74.2747 -49.1424 61.1678 -47.6584C48.0608 -46.1744 35.956 -39.9263 27.1542 -30.1017C18.3524 -20.2771 13.4673 -7.56091 13.4273 5.62971C13.4215 14.2257 15.498 22.6952 19.479 30.3137C12.2246 34.2012 6.47735 40.4014 3.15041 47.9294C-0.176524 55.4574 -0.892324 63.8812 1.11674 71.8626C3.1258 79.844 7.74448 86.9251 14.239 91.9808C20.7334 97.0365 28.7312 99.7769 36.9616 99.7666H107.564C120.737 99.7054 133.43 94.8127 143.236 86.0161C153.041 77.2194 159.278 65.1305 160.764 52.0414C162.249 38.9523 158.881 25.773 151.296 15.0025C143.711 4.23198 132.438 -3.38098 119.614 -6.39291Z" fill="#CCF6C5"/>
</svg>
