<svg width="32" height="32" viewBox="0 0 32 32" fill="none" xmlns="http://www.w3.org/2000/svg">
<g clip-path="url(#clip0_77_3680)">
<path fill-rule="evenodd" clip-rule="evenodd" d="M25 11.9984C25.0042 13.9268 24.3847 15.8049 23.234 17.3524L16 26.9984L8.766 17.3524C7.91901 16.208 7.35558 14.8791 7.12198 13.4747C6.88838 12.0703 6.99128 10.6306 7.42223 9.27369C7.85318 7.9168 8.59988 6.6815 9.601 5.66927C10.6021 4.65703 11.8291 3.89673 13.1811 3.45083C14.5332 3.00492 15.9717 2.88613 17.3786 3.1042C18.7855 3.32228 20.1205 3.871 21.2742 4.7053C22.4278 5.5396 23.367 6.63567 24.0147 7.90348C24.6624 9.1713 25.0001 10.5747 25 11.9984ZM28 11.9984C28 14.6784 27.122 17.1504 25.64 19.1464L17.874 29.4984L16 31.9984L14.124 29.4984L6.36 19.1464C5.22937 17.6212 4.47675 15.8496 4.16397 13.977C3.85119 12.1044 3.98719 10.1843 4.56078 8.37451C5.13437 6.5647 6.12919 4.91682 7.46349 3.56626C8.7978 2.21569 10.4335 1.20099 12.2362 0.605524C14.039 0.0100577 15.9573 -0.149178 17.8335 0.140899C19.7097 0.430976 21.4904 1.16209 23.0291 2.27416C24.5678 3.38624 25.8207 4.84754 26.6849 6.538C27.549 8.22846 27.9997 10.0998 28 11.9984ZM16 15.9984C17.0609 15.9984 18.0783 15.5769 18.8284 14.8268C19.5786 14.0766 20 13.0592 20 11.9984C20 10.9375 19.5786 9.92008 18.8284 9.16993C18.0783 8.41978 17.0609 7.99836 16 7.99836C14.9391 7.99836 13.9217 8.41978 13.1716 9.16993C12.4214 9.92008 12 10.9375 12 11.9984C12 13.0592 12.4214 14.0766 13.1716 14.8268C13.9217 15.5769 14.9391 15.9984 16 15.9984Z" fill="black"/>
</g>
<defs>
<clipPath id="clip0_77_3680">
<rect width="32" height="32" fill="white"/>
</clipPath>
</defs>
</svg>
