<svg width="79" height="148" viewBox="0 0 79 148" fill="none" xmlns="http://www.w3.org/2000/svg">
<path d="M119.614 106.159C116.626 119.006 109.021 130.308 98.2456 137.916C87.47 145.524 74.2747 148.908 61.1678 147.424C48.0608 145.94 35.956 139.692 27.1542 129.867C18.3524 120.043 13.4673 107.327 13.4273 94.1359C13.4215 85.5399 15.498 77.0704 19.479 69.4519C12.2246 65.5644 6.47735 59.3642 3.15041 51.8362C-0.176524 44.3083 -0.892324 35.8844 1.11674 27.903C3.1258 19.9216 7.74448 12.8406 14.239 7.78484C20.7334 2.7291 28.7312 -0.0112915 36.9616 -0.000930786H107.564C120.737 0.0602112 133.43 4.95294 143.236 13.7496C153.041 22.5462 159.278 34.6351 160.764 47.7243C162.249 60.8134 158.881 73.9926 151.296 84.7631C143.711 95.5336 132.438 103.147 119.614 106.159Z" fill="#F8D8D8"/>
</svg>
