<svg width="101" height="110" viewBox="0 0 101 110" fill="none" xmlns="http://www.w3.org/2000/svg">
<path d="M58.6137 68.1585C55.6257 81.0063 48.0211 92.3084 37.2456 99.9164C26.47 107.524 13.2747 110.908 0.167755 109.424C-12.9392 107.94 -25.044 101.692 -33.8458 91.8673C-42.6476 82.0427 -47.5327 69.3265 -47.5727 56.1359C-47.5785 47.5399 -45.502 39.0704 -41.521 31.4519C-48.7754 27.5644 -54.5227 21.3642 -57.8496 13.8362C-61.1765 6.30826 -61.8923 -2.11561 -59.8833 -10.097C-57.8742 -18.0784 -53.2555 -25.1594 -46.761 -30.2152C-40.2666 -35.2709 -32.2688 -38.0113 -24.0384 -38.0009H46.5642C59.7372 -37.9398 72.4299 -33.0471 82.2355 -24.2504C92.0412 -15.4538 98.2782 -3.36485 99.7638 9.72426C101.249 22.8134 97.8806 35.9926 90.2959 46.7631C82.7111 57.5336 71.4379 65.1466 58.6137 68.1585Z" fill="#FFE7A5"/>
</svg>
