<svg width="256" height="29" viewBox="0 0 256 29" fill="none" xmlns="http://www.w3.org/2000/svg">
<g opacity="0.5">
<path d="M19.092 5.04083C20.5556 7.07716 20.1101 10.0044 18.0102 11.468L8.1467 18.5315C6.11037 20.0588 3.24678 19.5497 1.71953 17.5134C0.255917 15.4134 0.701372 12.5498 2.80134 11.0862L12.6648 3.95903C14.7011 2.49542 17.5647 2.94087 19.092 5.04083Z" fill="#EA4435" stroke="white" stroke-width="0.636353" stroke-miterlimit="10"/>
<path d="M1.71953 12.1042C0.255917 14.2042 0.701372 17.0678 2.80134 18.5314L12.6648 25.6586C14.7011 27.1222 17.5647 26.6767 19.092 24.5768C20.5556 22.5404 20.1101 19.6132 18.0102 18.1496L8.1467 11.0861C6.11037 9.55882 3.24678 10.0679 1.71953 12.1042Z" fill="#537CBE" stroke="white" stroke-width="0.636353" stroke-miterlimit="10"/>
<path d="M42.8915 12.1042C44.3551 14.2042 43.9097 17.0678 41.8097 18.5314L31.9463 25.6586C29.9099 27.1222 27.0463 26.6767 25.5191 24.5768C24.0555 22.5404 24.5009 19.6132 26.6009 18.1496L36.4644 11.0861C38.5007 9.55882 41.3643 10.0679 42.8915 12.1042Z" fill="#F8AB19" stroke="white" stroke-width="0.636353" stroke-miterlimit="10"/>
<path d="M25.5191 5.04077C24.0555 7.0771 24.5009 10.0043 26.6009 11.4679L36.4644 18.5315C38.5007 20.0587 41.3643 19.5496 42.8915 17.5133C44.3551 15.4133 43.9097 12.5497 41.8097 11.0861L31.9463 3.95897C29.9099 2.49536 27.0463 2.94081 25.5191 5.04077Z" fill="#32A852" stroke="white" stroke-width="0.636353" stroke-miterlimit="10"/>
<path d="M61.748 14.8088H89.3658" stroke="white" stroke-width="0.636353" stroke-miterlimit="10"/>
<path d="M75.5569 1V28.6177" stroke="white" stroke-width="0.636353" stroke-miterlimit="10"/>
<path d="M85.2932 5.0726L65.8208 24.545" stroke="white" stroke-width="0.636353" stroke-miterlimit="10"/>
<path d="M85.2932 24.545L65.8208 5.0726" stroke="white" stroke-width="0.636353" stroke-miterlimit="10"/>
<path d="M137.402 14.8089C137.402 7.17262 130.656 1 122.384 1C114.047 1 107.366 7.17262 107.366 14.8089C107.366 22.4451 114.047 28.6177 122.384 28.6177C130.656 28.6177 137.402 22.4451 137.402 14.8089Z" stroke="white" stroke-width="0.636353" stroke-miterlimit="10"/>
<path d="M128.874 14.8089C128.874 7.17262 125.947 1 122.384 1C118.82 1 115.893 7.17262 115.893 14.8089C115.893 22.4451 118.82 28.6177 122.384 28.6177C125.947 28.6177 128.874 22.4451 128.874 14.8089Z" stroke="white" stroke-width="0.636353" stroke-miterlimit="10"/>
<path d="M108.384 9.71802H136.32" stroke="white" stroke-width="0.636353" stroke-miterlimit="10"/>
<path d="M108.384 19.8997H136.32" stroke="white" stroke-width="0.636353" stroke-miterlimit="10"/>
<path d="M230.491 7.17264C230.491 15.6361 224.891 22.4451 217.955 22.4451C211.083 22.4451 205.483 15.6361 205.483 7.17264" stroke="white" stroke-width="0.636353" stroke-miterlimit="10"/>
<path d="M205.483 7.17264C205.483 15.6361 199.883 22.4451 192.946 22.4451C186.074 22.4451 180.474 15.6361 180.474 7.17264" stroke="white" stroke-width="0.636353" stroke-miterlimit="10"/>
<path d="M255.5 7.17264C255.5 15.6361 249.9 22.4451 243.027 22.4451C236.091 22.4451 230.491 15.6361 230.491 7.17264" stroke="white" stroke-width="0.636353" stroke-miterlimit="10"/>
<path d="M180.474 7.17264C180.474 15.6361 174.874 22.4451 167.938 22.4451C161.002 22.4451 155.402 15.6361 155.402 7.17264" stroke="white" stroke-width="0.636353" stroke-miterlimit="10"/>
</g>
</svg>
