<svg width="1321" height="45" viewBox="0 0 1321 45" fill="none" xmlns="http://www.w3.org/2000/svg">
<g opacity="0.8">
<path d="M29.6459 7.3499C31.9459 10.5499 31.2459 15.1499 27.9459 17.4499L12.4459 28.5499C9.24594 30.9499 4.74594 30.1499 2.34594 26.9499C0.045938 23.6499 0.74595 19.1499 4.04595 16.8499L19.5459 5.6499C22.746 3.3499 27.2459 4.0499 29.6459 7.3499Z" fill="#EA4435" stroke="#100F10" stroke-miterlimit="10"/>
<path d="M2.34594 18.4498C0.045938 21.7498 0.74595 26.2498 4.04595 28.5498L19.5459 39.7498C22.746 42.0498 27.2459 41.3498 29.6459 38.0498C31.9459 34.8498 31.2459 30.2498 27.9459 27.9498L12.4459 16.8498C9.24594 14.4498 4.74594 15.2498 2.34594 18.4498Z" fill="#537CBE" stroke="#100F10" stroke-miterlimit="10"/>
<path d="M67.046 18.4498C69.346 21.7498 68.646 26.2498 65.346 28.5498L49.846 39.7498C46.646 42.0498 42.146 41.3498 39.746 38.0498C37.446 34.8498 38.146 30.2498 41.446 27.9498L56.946 16.8498C60.146 14.4498 64.646 15.2498 67.046 18.4498Z" fill="#F8AB19" stroke="#100F10" stroke-miterlimit="10"/>
<path d="M39.746 7.3499C37.446 10.5499 38.146 15.1499 41.446 17.4499L56.946 28.5499C60.146 30.9499 64.646 30.1499 67.046 26.9499C69.346 23.6499 68.646 19.1499 65.346 16.8499L49.846 5.6499C46.646 3.3499 42.146 4.0499 39.746 7.3499Z" fill="#32A852" stroke="#100F10" stroke-miterlimit="10"/>
<path d="M94.7118 29.52C93.3652 29.52 92.1252 29.1933 90.9918 28.54C89.8585 27.8866 88.9585 26.9866 88.2918 25.84C87.6252 24.6933 87.2918 23.4266 87.2918 22.04C87.2918 20.6533 87.6252 19.3866 88.2918 18.24C88.9585 17.0933 89.8585 16.1933 90.9918 15.54C92.1252 14.8866 93.3652 14.56 94.7118 14.56C95.7652 14.56 96.7518 14.7466 97.6718 15.12C98.6052 15.4933 99.3718 16.02 99.9718 16.7L98.7518 17.92C98.2985 17.36 97.7185 16.9333 97.0118 16.64C96.3052 16.3333 95.5452 16.18 94.7318 16.18C93.7185 16.18 92.7718 16.4266 91.8918 16.92C91.0252 17.4 90.3252 18.0866 89.7918 18.98C89.2718 19.86 89.0118 20.88 89.0118 22.04C89.0118 23.2 89.2718 24.2266 89.7918 25.12C90.3252 26 91.0318 26.6866 91.9118 27.18C92.7918 27.66 93.7318 27.9 94.7318 27.9C95.6918 27.9 96.4918 27.7533 97.1318 27.46C97.7852 27.1533 98.3452 26.7533 98.8118 26.26C99.1585 25.8866 99.4385 25.44 99.6518 24.92C99.8652 24.3866 99.9985 23.8 100.052 23.16H94.7518V21.58H101.632C101.699 21.9533 101.732 22.3 101.732 22.62C101.732 23.5 101.592 24.36 101.312 25.2C101.032 26.0266 100.585 26.7533 99.9718 27.38C98.6518 28.8066 96.8985 29.52 94.7118 29.52ZM108.524 29.52C107.524 29.52 106.624 29.28 105.824 28.8C105.024 28.32 104.397 27.6666 103.944 26.84C103.504 26.0133 103.284 25.1 103.284 24.1C103.284 23.1 103.504 22.1866 103.944 21.36C104.397 20.5333 105.024 19.88 105.824 19.4C106.624 18.92 107.524 18.68 108.524 18.68C109.524 18.68 110.424 18.92 111.224 19.4C112.024 19.88 112.644 20.5333 113.084 21.36C113.537 22.1866 113.764 23.1 113.764 24.1C113.764 25.1 113.537 26.0133 113.084 26.84C112.644 27.6666 112.024 28.32 111.224 28.8C110.424 29.28 109.524 29.52 108.524 29.52ZM108.524 27.98C109.15 27.98 109.73 27.8266 110.264 27.52C110.81 27.2 111.244 26.7466 111.564 26.16C111.897 25.5733 112.064 24.8866 112.064 24.1C112.064 23.3133 111.897 22.6266 111.564 22.04C111.244 21.4533 110.81 21.0066 110.264 20.7C109.73 20.38 109.15 20.22 108.524 20.22C107.897 20.22 107.31 20.38 106.764 20.7C106.217 21.0066 105.777 21.4533 105.444 22.04C105.124 22.6266 104.964 23.3133 104.964 24.1C104.964 24.8866 105.124 25.5733 105.444 26.16C105.777 26.7466 106.217 27.2 106.764 27.52C107.31 27.8266 107.897 27.98 108.524 27.98ZM120.438 29.52C119.438 29.52 118.538 29.28 117.738 28.8C116.938 28.32 116.311 27.6666 115.858 26.84C115.418 26.0133 115.198 25.1 115.198 24.1C115.198 23.1 115.418 22.1866 115.858 21.36C116.311 20.5333 116.938 19.88 117.738 19.4C118.538 18.92 119.438 18.68 120.438 18.68C121.438 18.68 122.338 18.92 123.138 19.4C123.938 19.88 124.558 20.5333 124.998 21.36C125.451 22.1866 125.678 23.1 125.678 24.1C125.678 25.1 125.451 26.0133 124.998 26.84C124.558 27.6666 123.938 28.32 123.138 28.8C122.338 29.28 121.438 29.52 120.438 29.52ZM120.438 27.98C121.064 27.98 121.644 27.8266 122.178 27.52C122.724 27.2 123.158 26.7466 123.478 26.16C123.811 25.5733 123.978 24.8866 123.978 24.1C123.978 23.3133 123.811 22.6266 123.478 22.04C123.158 21.4533 122.724 21.0066 122.178 20.7C121.644 20.38 121.064 20.22 120.438 20.22C119.811 20.22 119.224 20.38 118.678 20.7C118.131 21.0066 117.691 21.4533 117.358 22.04C117.038 22.6266 116.878 23.3133 116.878 24.1C116.878 24.8866 117.038 25.5733 117.358 26.16C117.691 26.7466 118.131 27.2 118.678 27.52C119.224 27.8266 119.811 27.98 120.438 27.98ZM132.132 33.84C130.932 33.84 129.939 33.56 129.152 33C128.379 32.44 127.859 31.7666 127.592 30.98L129.132 30.32C129.359 30.9066 129.732 31.38 130.252 31.74C130.785 32.1133 131.412 32.3 132.132 32.3C133.185 32.3 133.999 31.9933 134.572 31.38C135.159 30.7666 135.452 29.9 135.452 28.78V27.64H135.372C135.039 28.16 134.565 28.5866 133.952 28.92C133.352 29.24 132.665 29.4 131.892 29.4C131.012 29.4 130.205 29.1733 129.472 28.72C128.752 28.2666 128.179 27.6333 127.752 26.82C127.325 26.0066 127.112 25.08 127.112 24.04C127.112 23.0133 127.325 22.0933 127.752 21.28C128.179 20.4533 128.752 19.8133 129.472 19.36C130.205 18.9066 131.012 18.68 131.892 18.68C132.665 18.68 133.352 18.8466 133.952 19.18C134.565 19.5 135.039 19.9266 135.372 20.46H135.452V19H137.072V28.8C137.072 30.44 136.619 31.6866 135.712 32.54C134.805 33.4066 133.612 33.84 132.132 33.84ZM132.132 27.86C132.745 27.86 133.299 27.7066 133.792 27.4C134.299 27.0933 134.699 26.6533 134.992 26.08C135.299 25.5066 135.452 24.8266 135.452 24.04C135.452 23.24 135.299 22.5533 134.992 21.98C134.699 21.4066 134.299 20.9733 133.792 20.68C133.299 20.3733 132.745 20.22 132.132 20.22C131.519 20.22 130.959 20.3733 130.452 20.68C129.945 20.9866 129.539 21.4266 129.232 22C128.939 22.5733 128.792 23.2533 128.792 24.04C128.792 24.8266 128.939 25.5133 129.232 26.1C129.539 26.6733 129.945 27.1133 130.452 27.42C130.959 27.7133 131.519 27.86 132.132 27.86ZM139.585 14.88H141.285V29.2H139.585V14.88ZM148.247 29.52C147.273 29.52 146.4 29.2866 145.627 28.82C144.853 28.3533 144.247 27.7133 143.807 26.9C143.38 26.0733 143.167 25.1466 143.167 24.12C143.167 23.1333 143.367 22.2266 143.767 21.4C144.18 20.5733 144.76 19.9133 145.507 19.42C146.253 18.9266 147.12 18.68 148.107 18.68C149.107 18.68 149.973 18.9066 150.707 19.36C151.44 19.8 152 20.4133 152.387 21.2C152.787 21.9866 152.987 22.8866 152.987 23.9C152.987 24.1 152.967 24.2733 152.927 24.42H144.867C144.907 25.1933 145.093 25.8466 145.427 26.38C145.76 26.9133 146.18 27.3133 146.687 27.58C147.207 27.8466 147.747 27.98 148.307 27.98C149.613 27.98 150.62 27.3666 151.327 26.14L152.767 26.84C152.327 27.6666 151.727 28.32 150.967 28.8C150.22 29.28 149.313 29.52 148.247 29.52ZM151.187 23.02C151.16 22.5933 151.04 22.1666 150.827 21.74C150.613 21.3133 150.273 20.9533 149.807 20.66C149.353 20.3666 148.78 20.22 148.087 20.22C147.287 20.22 146.607 20.48 146.047 21C145.5 21.5066 145.14 22.18 144.967 23.02H151.187ZM159.965 14.88H164.285C165.751 14.88 167.031 15.1866 168.125 15.8C169.218 16.4 170.058 17.24 170.645 18.32C171.231 19.4 171.525 20.64 171.525 22.04C171.525 23.44 171.231 24.68 170.645 25.76C170.058 26.84 169.218 27.6866 168.125 28.3C167.031 28.9 165.751 29.2 164.285 29.2H159.965V14.88ZM164.285 27.58C165.978 27.58 167.318 27.0933 168.305 26.12C169.305 25.1466 169.805 23.7866 169.805 22.04C169.805 20.2933 169.305 18.9333 168.305 17.96C167.318 16.9866 165.978 16.5 164.285 16.5H161.645V27.58H164.285ZM177.934 29.52C176.961 29.52 176.087 29.2866 175.314 28.82C174.541 28.3533 173.934 27.7133 173.494 26.9C173.067 26.0733 172.854 25.1466 172.854 24.12C172.854 23.1333 173.054 22.2266 173.454 21.4C173.867 20.5733 174.447 19.9133 175.194 19.42C175.941 18.9266 176.807 18.68 177.794 18.68C178.794 18.68 179.661 18.9066 180.394 19.36C181.127 19.8 181.687 20.4133 182.074 21.2C182.474 21.9866 182.674 22.8866 182.674 23.9C182.674 24.1 182.654 24.2733 182.614 24.42H174.554C174.594 25.1933 174.781 25.8466 175.114 26.38C175.447 26.9133 175.867 27.3133 176.374 27.58C176.894 27.8466 177.434 27.98 177.994 27.98C179.301 27.98 180.307 27.3666 181.014 26.14L182.454 26.84C182.014 27.6666 181.414 28.32 180.654 28.8C179.907 29.28 179.001 29.52 177.934 29.52ZM180.874 23.02C180.847 22.5933 180.727 22.1666 180.514 21.74C180.301 21.3133 179.961 20.9533 179.494 20.66C179.041 20.3666 178.467 20.22 177.774 20.22C176.974 20.22 176.294 20.48 175.734 21C175.187 21.5066 174.827 22.18 174.654 23.02H180.874ZM183.348 19H185.168L188.328 27.2H188.368L191.568 19H193.348L189.188 29.2H187.468L183.348 19ZM198.989 29.52C198.015 29.52 197.142 29.2866 196.369 28.82C195.595 28.3533 194.989 27.7133 194.549 26.9C194.122 26.0733 193.909 25.1466 193.909 24.12C193.909 23.1333 194.109 22.2266 194.509 21.4C194.922 20.5733 195.502 19.9133 196.249 19.42C196.995 18.9266 197.862 18.68 198.849 18.68C199.849 18.68 200.715 18.9066 201.449 19.36C202.182 19.8 202.742 20.4133 203.129 21.2C203.529 21.9866 203.729 22.8866 203.729 23.9C203.729 24.1 203.709 24.2733 203.669 24.42H195.609C195.649 25.1933 195.835 25.8466 196.169 26.38C196.502 26.9133 196.922 27.3133 197.429 27.58C197.949 27.8466 198.489 27.98 199.049 27.98C200.355 27.98 201.362 27.3666 202.069 26.14L203.509 26.84C203.069 27.6666 202.469 28.32 201.709 28.8C200.962 29.28 200.055 29.52 198.989 29.52ZM201.929 23.02C201.902 22.5933 201.782 22.1666 201.569 21.74C201.355 21.3133 201.015 20.9533 200.549 20.66C200.095 20.3666 199.522 20.22 198.829 20.22C198.029 20.22 197.349 20.48 196.789 21C196.242 21.5066 195.882 22.18 195.709 23.02H201.929ZM205.718 14.88H207.418V29.2H205.718V14.88ZM214.539 29.52C213.539 29.52 212.639 29.28 211.839 28.8C211.039 28.32 210.413 27.6666 209.959 26.84C209.519 26.0133 209.299 25.1 209.299 24.1C209.299 23.1 209.519 22.1866 209.959 21.36C210.413 20.5333 211.039 19.88 211.839 19.4C212.639 18.92 213.539 18.68 214.539 18.68C215.539 18.68 216.439 18.92 217.239 19.4C218.039 19.88 218.659 20.5333 219.099 21.36C219.553 22.1866 219.779 23.1 219.779 24.1C219.779 25.1 219.553 26.0133 219.099 26.84C218.659 27.6666 218.039 28.32 217.239 28.8C216.439 29.28 215.539 29.52 214.539 29.52ZM214.539 27.98C215.166 27.98 215.746 27.8266 216.279 27.52C216.826 27.2 217.259 26.7466 217.579 26.16C217.913 25.5733 218.079 24.8866 218.079 24.1C218.079 23.3133 217.913 22.6266 217.579 22.04C217.259 21.4533 216.826 21.0066 216.279 20.7C215.746 20.38 215.166 20.22 214.539 20.22C213.913 20.22 213.326 20.38 212.779 20.7C212.233 21.0066 211.793 21.4533 211.459 22.04C211.139 22.6266 210.979 23.3133 210.979 24.1C210.979 24.8866 211.139 25.5733 211.459 26.16C211.793 26.7466 212.233 27.2 212.779 27.52C213.326 27.8266 213.913 27.98 214.539 27.98ZM221.576 19H223.196V20.52H223.276C223.582 20 224.042 19.5666 224.656 19.22C225.282 18.86 225.982 18.68 226.756 18.68C227.662 18.68 228.489 18.9133 229.236 19.38C229.982 19.8466 230.569 20.4933 230.996 21.32C231.422 22.1466 231.636 23.0733 231.636 24.1C231.636 25.14 231.422 26.0733 230.996 26.9C230.569 27.7133 229.982 28.3533 229.236 28.82C228.489 29.2866 227.662 29.52 226.756 29.52C225.982 29.52 225.282 29.3466 224.656 29C224.042 28.64 223.582 28.2066 223.276 27.7H223.196L223.276 29.1V33.52H221.576V19ZM226.556 27.98C227.142 27.98 227.696 27.82 228.216 27.5C228.736 27.18 229.149 26.7266 229.456 26.14C229.776 25.54 229.936 24.86 229.936 24.1C229.936 23.34 229.776 22.6666 229.456 22.08C229.149 21.48 228.736 21.02 228.216 20.7C227.696 20.38 227.142 20.22 226.556 20.22C225.969 20.22 225.416 20.38 224.896 20.7C224.376 21.02 223.962 21.4733 223.656 22.06C223.349 22.6466 223.196 23.3266 223.196 24.1C223.196 24.8733 223.349 25.5533 223.656 26.14C223.962 26.7266 224.376 27.18 224.896 27.5C225.416 27.82 225.969 27.98 226.556 27.98ZM238.149 29.52C237.176 29.52 236.302 29.2866 235.529 28.82C234.756 28.3533 234.149 27.7133 233.709 26.9C233.282 26.0733 233.069 25.1466 233.069 24.12C233.069 23.1333 233.269 22.2266 233.669 21.4C234.082 20.5733 234.662 19.9133 235.409 19.42C236.156 18.9266 237.022 18.68 238.009 18.68C239.009 18.68 239.876 18.9066 240.609 19.36C241.342 19.8 241.902 20.4133 242.289 21.2C242.689 21.9866 242.889 22.8866 242.889 23.9C242.889 24.1 242.869 24.2733 242.829 24.42H234.769C234.809 25.1933 234.996 25.8466 235.329 26.38C235.662 26.9133 236.082 27.3133 236.589 27.58C237.109 27.8466 237.649 27.98 238.209 27.98C239.516 27.98 240.522 27.3666 241.229 26.14L242.669 26.84C242.229 27.6666 241.629 28.32 240.869 28.8C240.122 29.28 239.216 29.52 238.149 29.52ZM241.089 23.02C241.062 22.5933 240.942 22.1666 240.729 21.74C240.516 21.3133 240.176 20.9533 239.709 20.66C239.256 20.3666 238.682 20.22 237.989 20.22C237.189 20.22 236.509 20.48 235.949 21C235.402 21.5066 235.042 22.18 234.869 23.02H241.089ZM244.878 19H246.498V20.64H246.578C246.778 20.08 247.165 19.62 247.738 19.26C248.312 18.8866 248.912 18.7 249.538 18.7C250.005 18.7 250.405 18.7666 250.738 18.9V20.74C250.312 20.5266 249.832 20.42 249.298 20.42C248.805 20.42 248.352 20.56 247.938 20.84C247.525 21.12 247.192 21.5 246.938 21.98C246.698 22.4466 246.578 22.9533 246.578 23.5V29.2H244.878V19ZM263.696 29.52C262.35 29.52 261.11 29.1933 259.976 28.54C258.843 27.8866 257.943 26.9866 257.276 25.84C256.61 24.6933 256.276 23.4266 256.276 22.04C256.276 20.6533 256.61 19.3866 257.276 18.24C257.943 17.0933 258.843 16.1933 259.976 15.54C261.11 14.8866 262.35 14.56 263.696 14.56C264.75 14.56 265.736 14.7466 266.656 15.12C267.59 15.4933 268.356 16.02 268.956 16.7L267.736 17.92C267.283 17.36 266.703 16.9333 265.996 16.64C265.29 16.3333 264.53 16.18 263.716 16.18C262.703 16.18 261.756 16.4266 260.876 16.92C260.01 17.4 259.31 18.0866 258.776 18.98C258.256 19.86 257.996 20.88 257.996 22.04C257.996 23.2 258.256 24.2266 258.776 25.12C259.31 26 260.016 26.6866 260.896 27.18C261.776 27.66 262.716 27.9 263.716 27.9C264.676 27.9 265.476 27.7533 266.116 27.46C266.77 27.1533 267.33 26.7533 267.796 26.26C268.143 25.8866 268.423 25.44 268.636 24.92C268.85 24.3866 268.983 23.8 269.036 23.16H263.736V21.58H270.616C270.683 21.9533 270.716 22.3 270.716 22.62C270.716 23.5 270.576 24.36 270.296 25.2C270.016 26.0266 269.57 26.7533 268.956 27.38C267.636 28.8066 265.883 29.52 263.696 29.52ZM272.515 19H274.135V20.64H274.215C274.415 20.08 274.802 19.62 275.375 19.26C275.948 18.8866 276.548 18.7 277.175 18.7C277.642 18.7 278.042 18.7666 278.375 18.9V20.74C277.948 20.5266 277.468 20.42 276.935 20.42C276.442 20.42 275.988 20.56 275.575 20.84C275.162 21.12 274.828 21.5 274.575 21.98C274.335 22.4466 274.215 22.9533 274.215 23.5V29.2H272.515V19ZM284.11 29.52C283.11 29.52 282.21 29.28 281.41 28.8C280.61 28.32 279.983 27.6666 279.53 26.84C279.09 26.0133 278.87 25.1 278.87 24.1C278.87 23.1 279.09 22.1866 279.53 21.36C279.983 20.5333 280.61 19.88 281.41 19.4C282.21 18.92 283.11 18.68 284.11 18.68C285.11 18.68 286.01 18.92 286.81 19.4C287.61 19.88 288.23 20.5333 288.67 21.36C289.123 22.1866 289.35 23.1 289.35 24.1C289.35 25.1 289.123 26.0133 288.67 26.84C288.23 27.6666 287.61 28.32 286.81 28.8C286.01 29.28 285.11 29.52 284.11 29.52ZM284.11 27.98C284.736 27.98 285.316 27.8266 285.85 27.52C286.396 27.2 286.83 26.7466 287.15 26.16C287.483 25.5733 287.65 24.8866 287.65 24.1C287.65 23.3133 287.483 22.6266 287.15 22.04C286.83 21.4533 286.396 21.0066 285.85 20.7C285.316 20.38 284.736 20.22 284.11 20.22C283.483 20.22 282.896 20.38 282.35 20.7C281.803 21.0066 281.363 21.4533 281.03 22.04C280.71 22.6266 280.55 23.3133 280.55 24.1C280.55 24.8866 280.71 25.5733 281.03 26.16C281.363 26.7466 281.803 27.2 282.35 27.52C282.896 27.8266 283.483 27.98 284.11 27.98ZM294.926 29.52C293.699 29.52 292.759 29.16 292.106 28.44C291.466 27.72 291.146 26.7133 291.146 25.42V19H292.846V25.16C292.846 26.1333 293.066 26.8466 293.506 27.3C293.946 27.7533 294.539 27.98 295.286 27.98C295.859 27.98 296.366 27.8266 296.806 27.52C297.259 27.2133 297.606 26.8133 297.846 26.32C298.099 25.8266 298.226 25.3066 298.226 24.76V19H299.926V29.2H298.306V27.72H298.226C297.946 28.2266 297.499 28.6533 296.886 29C296.273 29.3466 295.619 29.52 294.926 29.52ZM302.357 19H303.977V20.52H304.057C304.364 20 304.824 19.5666 305.437 19.22C306.064 18.86 306.764 18.68 307.537 18.68C308.444 18.68 309.27 18.9133 310.017 19.38C310.764 19.8466 311.35 20.4933 311.777 21.32C312.204 22.1466 312.417 23.0733 312.417 24.1C312.417 25.14 312.204 26.0733 311.777 26.9C311.35 27.7133 310.764 28.3533 310.017 28.82C309.27 29.2866 308.444 29.52 307.537 29.52C306.764 29.52 306.064 29.3466 305.437 29C304.824 28.64 304.364 28.2066 304.057 27.7H303.977L304.057 29.1V33.52H302.357V19ZM307.337 27.98C307.924 27.98 308.477 27.82 308.997 27.5C309.517 27.18 309.93 26.7266 310.237 26.14C310.557 25.54 310.717 24.86 310.717 24.1C310.717 23.34 310.557 22.6666 310.237 22.08C309.93 21.48 309.517 21.02 308.997 20.7C308.477 20.38 307.924 20.22 307.337 20.22C306.75 20.22 306.197 20.38 305.677 20.7C305.157 21.02 304.744 21.4733 304.437 22.06C304.13 22.6466 303.977 23.3266 303.977 24.1C303.977 24.8733 304.13 25.5533 304.437 26.14C304.744 26.7266 305.157 27.18 305.677 27.5C306.197 27.82 306.75 27.98 307.337 27.98ZM317.852 29.52C316.759 29.52 315.846 29.2666 315.112 28.76C314.379 28.24 313.859 27.58 313.552 26.78L315.072 26.1C315.326 26.7133 315.699 27.1866 316.192 27.52C316.699 27.8533 317.252 28.02 317.852 28.02C318.492 28.02 319.039 27.8933 319.492 27.64C319.946 27.3733 320.172 27 320.172 26.52C320.172 26.0933 319.992 25.7533 319.632 25.5C319.272 25.2333 318.706 25.0066 317.932 24.82L316.692 24.5C315.879 24.3 315.212 23.96 314.692 23.48C314.172 23 313.912 22.38 313.912 21.62C313.912 21.0333 314.086 20.52 314.432 20.08C314.792 19.6266 315.266 19.28 315.852 19.04C316.439 18.8 317.072 18.68 317.752 18.68C318.646 18.68 319.439 18.8733 320.132 19.26C320.839 19.6466 321.339 20.1866 321.632 20.88L320.152 21.56C319.699 20.6533 318.892 20.2 317.732 20.2C317.172 20.2 316.679 20.3333 316.252 20.6C315.839 20.8533 315.632 21.18 315.632 21.58C315.632 21.9533 315.779 22.26 316.072 22.5C316.366 22.7266 316.806 22.9133 317.392 23.06L318.872 23.44C319.872 23.6933 320.626 24.0733 321.132 24.58C321.639 25.0733 321.892 25.68 321.892 26.4C321.892 27.0266 321.712 27.58 321.352 28.06C320.992 28.5266 320.506 28.8866 319.892 29.14C319.279 29.3933 318.599 29.52 317.852 29.52ZM328.734 14.88H330.414V29.2H328.734V14.88ZM333.277 14.88H334.977V29.2H333.277V14.88ZM342.098 29.52C341.098 29.52 340.198 29.28 339.398 28.8C338.598 28.32 337.971 27.6666 337.518 26.84C337.078 26.0133 336.858 25.1 336.858 24.1C336.858 23.1 337.078 22.1866 337.518 21.36C337.971 20.5333 338.598 19.88 339.398 19.4C340.198 18.92 341.098 18.68 342.098 18.68C343.098 18.68 343.998 18.92 344.798 19.4C345.598 19.88 346.218 20.5333 346.658 21.36C347.111 22.1866 347.338 23.1 347.338 24.1C347.338 25.1 347.111 26.0133 346.658 26.84C346.218 27.6666 345.598 28.32 344.798 28.8C343.998 29.28 343.098 29.52 342.098 29.52ZM342.098 27.98C342.725 27.98 343.305 27.8266 343.838 27.52C344.385 27.2 344.818 26.7466 345.138 26.16C345.471 25.5733 345.638 24.8866 345.638 24.1C345.638 23.3133 345.471 22.6266 345.138 22.04C344.818 21.4533 344.385 21.0066 343.838 20.7C343.305 20.38 342.725 20.22 342.098 20.22C341.471 20.22 340.885 20.38 340.338 20.7C339.791 21.0066 339.351 21.4533 339.018 22.04C338.698 22.6266 338.538 23.3133 338.538 24.1C338.538 24.8866 338.698 25.5733 339.018 26.16C339.351 26.7466 339.791 27.2 340.338 27.52C340.885 27.8266 341.471 27.98 342.098 27.98ZM349.117 19H350.737V20.64H350.817C351.017 20.08 351.403 19.62 351.977 19.26C352.55 18.8866 353.15 18.7 353.777 18.7C354.243 18.7 354.643 18.7666 354.977 18.9V20.74C354.55 20.5266 354.07 20.42 353.537 20.42C353.043 20.42 352.59 20.56 352.177 20.84C351.763 21.12 351.43 21.5 351.177 21.98C350.937 22.4466 350.817 22.9533 350.817 23.5V29.2H349.117V19ZM357.617 17.12C357.283 17.12 356.997 17 356.757 16.76C356.517 16.52 356.397 16.2333 356.397 15.9C356.397 15.5666 356.517 15.2866 356.757 15.06C356.997 14.82 357.283 14.7 357.617 14.7C357.95 14.7 358.237 14.82 358.477 15.06C358.717 15.2866 358.837 15.5666 358.837 15.9C358.837 16.2333 358.717 16.52 358.477 16.76C358.25 17 357.963 17.12 357.617 17.12ZM356.777 19H358.457V29.2H356.777V19ZM361.128 19H362.748V20.5H362.828C363.108 19.9933 363.555 19.5666 364.168 19.22C364.782 18.86 365.435 18.68 366.128 18.68C367.355 18.68 368.288 19.04 368.928 19.76C369.582 20.4666 369.908 21.4333 369.908 22.66V29.2H368.208V22.92C368.208 21.9733 367.982 21.2866 367.528 20.86C367.075 20.4333 366.455 20.22 365.668 20.22C365.122 20.22 364.628 20.3733 364.188 20.68C363.762 20.9866 363.428 21.3933 363.188 21.9C362.948 22.3933 362.828 22.9133 362.828 23.46V29.2H361.128V19Z" fill="#1B1C1C"/>
<path d="M389.392 22.7H432.792" stroke="#100F10" stroke-miterlimit="10"/>
<path d="M411.092 1V44.4" stroke="#100F10" stroke-miterlimit="10"/>
<path d="M426.392 7.3999L395.792 37.9999" stroke="#100F10" stroke-miterlimit="10"/>
<path d="M426.392 37.9999L395.792 7.3999" stroke="#100F10" stroke-miterlimit="10"/>
<path d="M450.792 22.7H559.392" stroke="#100F10" stroke-miterlimit="10"/>
<path d="M559.392 22.7C550.292 22.7 537.792 15.4 537.592 6.30005" stroke="#100F10" stroke-miterlimit="10"/>
<path d="M559.392 22.7C550.292 22.7 537.792 30 537.592 39.1" stroke="#100F10" stroke-miterlimit="10"/>
<path d="M624.592 22.7C624.592 10.7 613.992 1 600.992 1C587.892 1 577.392 10.7 577.392 22.7C577.392 34.7 587.892 44.4 600.992 44.4C613.992 44.4 624.592 34.7 624.592 22.7Z" stroke="#100F10" stroke-miterlimit="10"/>
<path d="M611.192 22.7C611.192 10.7 606.592 1 600.992 1C595.392 1 590.792 10.7 590.792 22.7C590.792 34.7 595.392 44.4 600.992 44.4C606.592 44.4 611.192 34.7 611.192 22.7Z" stroke="#100F10" stroke-miterlimit="10"/>
<path d="M578.992 14.7H622.892" stroke="#100F10" stroke-miterlimit="10"/>
<path d="M578.992 30.7H622.892" stroke="#100F10" stroke-miterlimit="10"/>
<path d="M760.592 10.7C760.592 24 751.792 34.7 740.892 34.7C730.092 34.7 721.292 24 721.292 10.7" stroke="#100F10" stroke-miterlimit="10"/>
<path d="M721.292 10.7C721.292 24 712.492 34.7 701.592 34.7C690.792 34.7 681.992 24 681.992 10.7" stroke="#100F10" stroke-miterlimit="10"/>
<path d="M799.892 10.7C799.892 24 791.092 34.7 780.292 34.7C769.392 34.7 760.592 24 760.592 10.7" stroke="#100F10" stroke-miterlimit="10"/>
<path d="M681.992 10.7C681.992 24 673.192 34.7 662.292 34.7C651.392 34.7 642.592 24 642.592 10.7" stroke="#100F10" stroke-miterlimit="10"/>
<path d="M817.892 22.7H861.292" stroke="#100F10" stroke-miterlimit="10"/>
<path d="M839.592 1V44.4" stroke="#100F10" stroke-miterlimit="10"/>
<path d="M854.892 7.3999L824.292 37.9999" stroke="#100F10" stroke-miterlimit="10"/>
<path d="M854.892 37.9999L824.292 7.3999" stroke="#100F10" stroke-miterlimit="10"/>
<path d="M879.292 22.7H987.892" stroke="#100F10" stroke-miterlimit="10"/>
<path d="M987.892 22.7C978.792 22.7 966.292 15.4 966.092 6.30005" stroke="#100F10" stroke-miterlimit="10"/>
<path d="M987.892 22.7C978.792 22.7 966.292 30 966.092 39.1" stroke="#100F10" stroke-miterlimit="10"/>
<path d="M1123.89 10.7C1123.89 24 1115.09 34.7 1104.19 34.7C1093.39 34.7 1084.59 24 1084.59 10.7" stroke="#100F10" stroke-miterlimit="10"/>
<path d="M1084.59 10.7C1084.59 24 1075.79 34.7 1064.89 34.7C1054.09 34.7 1045.29 24 1045.29 10.7" stroke="#100F10" stroke-miterlimit="10"/>
<path d="M1163.19 10.7C1163.19 24 1154.39 34.7 1143.59 34.7C1132.69 34.7 1123.89 24 1123.89 10.7" stroke="#100F10" stroke-miterlimit="10"/>
<path d="M1045.29 10.7C1045.29 24 1036.49 34.7 1025.59 34.7C1014.69 34.7 1005.89 24 1005.89 10.7" stroke="#100F10" stroke-miterlimit="10"/>
<path d="M1228.39 22.7C1228.39 10.7 1217.79 1 1204.79 1C1191.69 1 1181.19 10.7 1181.19 22.7C1181.19 34.7 1191.69 44.4 1204.79 44.4C1217.79 44.4 1228.39 34.7 1228.39 22.7Z" stroke="#100F10" stroke-miterlimit="10"/>
<path d="M1214.99 22.7C1214.99 10.7 1210.39 1 1204.79 1C1199.19 1 1194.59 10.7 1194.59 22.7C1194.59 34.7 1199.19 44.4 1204.79 44.4C1210.39 44.4 1214.99 34.7 1214.99 22.7Z" stroke="#100F10" stroke-miterlimit="10"/>
<path d="M1182.79 14.7H1226.69" stroke="#100F10" stroke-miterlimit="10"/>
<path d="M1182.79 30.7H1226.69" stroke="#100F10" stroke-miterlimit="10"/>
<path d="M1246.39 22.7H1289.79" stroke="#100F10" stroke-miterlimit="10"/>
<path d="M1268.09 1V44.4" stroke="#100F10" stroke-miterlimit="10"/>
<path d="M1283.39 7.3999L1252.79 37.9999" stroke="#100F10" stroke-miterlimit="10"/>
<path d="M1283.39 37.9999L1252.79 7.3999" stroke="#100F10" stroke-miterlimit="10"/>
</g>
</svg>
