<svg width="472" height="46" viewBox="0 0 472 46" fill="none" xmlns="http://www.w3.org/2000/svg">
<path d="M0.0500488 22.9885H43.4501" stroke="#F0F0F0" stroke-miterlimit="10"/>
<path d="M21.75 1.28857V44.6886" stroke="#F0F0F0" stroke-miterlimit="10"/>
<path d="M37.0502 7.68848L6.4502 38.2885" stroke="#F0F0F0" stroke-miterlimit="10"/>
<path d="M37.0502 38.2885L6.4502 7.68848" stroke="#F0F0F0" stroke-miterlimit="10"/>
<path d="M61.4502 22.9883H170.05" stroke="#F0F0F0" stroke-miterlimit="10"/>
<path d="M170.05 22.9884C160.95 22.9884 148.45 15.6884 148.25 6.58838" stroke="#F0F0F0" stroke-miterlimit="10"/>
<path d="M170.05 22.9883C160.95 22.9883 148.45 30.2883 148.25 39.3883" stroke="#F0F0F0" stroke-miterlimit="10"/>
<path d="M235.25 22.9886C235.25 10.9886 224.65 1.28857 211.65 1.28857C198.55 1.28857 188.05 10.9886 188.05 22.9886C188.05 34.9886 198.55 44.6886 211.65 44.6886C224.65 44.6886 235.25 34.9886 235.25 22.9886Z" stroke="#F0F0F0" stroke-miterlimit="10"/>
<path d="M221.85 22.9886C221.85 10.9886 217.25 1.28857 211.65 1.28857C206.05 1.28857 201.45 10.9886 201.45 22.9886C201.45 34.9886 206.05 44.6886 211.65 44.6886C217.25 44.6886 221.85 34.9886 221.85 22.9886Z" stroke="#F0F0F0" stroke-miterlimit="10"/>
<path d="M189.65 14.9885H233.55" stroke="#F0F0F0" stroke-miterlimit="10"/>
<path d="M189.65 30.9885H233.55" stroke="#F0F0F0" stroke-miterlimit="10"/>
<path d="M371.25 10.9888C371.25 24.2888 362.45 34.9888 351.55 34.9888C340.75 34.9888 331.95 24.2888 331.95 10.9888" stroke="#F0F0F0" stroke-miterlimit="10"/>
<path d="M331.95 10.9888C331.95 24.2888 323.15 34.9888 312.25 34.9888C301.45 34.9888 292.65 24.2888 292.65 10.9888" stroke="#F0F0F0" stroke-miterlimit="10"/>
<path d="M410.55 10.9888C410.55 24.2888 401.75 34.9888 390.95 34.9888C380.05 34.9888 371.25 24.2888 371.25 10.9888" stroke="#F0F0F0" stroke-miterlimit="10"/>
<path d="M292.65 10.9888C292.65 24.2888 283.85 34.9888 272.95 34.9888C262.05 34.9888 253.25 24.2888 253.25 10.9888" stroke="#F0F0F0" stroke-miterlimit="10"/>
<path d="M428.55 22.9885H471.95" stroke="#F0F0F0" stroke-miterlimit="10"/>
<path d="M450.25 1.28857V44.6886" stroke="#F0F0F0" stroke-miterlimit="10"/>
<path d="M465.55 7.68848L434.95 38.2885" stroke="#F0F0F0" stroke-miterlimit="10"/>
<path d="M465.55 38.2885L434.95 7.68848" stroke="#F0F0F0" stroke-miterlimit="10"/>
</svg>
