<svg width="50" height="45" viewBox="0 0 50 45" fill="none" xmlns="http://www.w3.org/2000/svg">
<path d="M48.5919 22.7C48.5919 10.7 37.9918 1 24.9918 1C11.8918 1 1.39185 10.7 1.39185 22.7C1.39185 34.7 11.8918 44.4 24.9918 44.4C37.9918 44.4 48.5919 34.7 48.5919 22.7Z" stroke="#100F10" stroke-miterlimit="10"/>
<path d="M35.1918 22.7C35.1918 10.7 30.5918 1 24.9918 1C19.3918 1 14.7919 10.7 14.7919 22.7C14.7919 34.7 19.3918 44.4 24.9918 44.4C30.5918 44.4 35.1918 34.7 35.1918 22.7Z" stroke="#100F10" stroke-miterlimit="10"/>
<path d="M2.99182 14.7H46.8918" stroke="#100F10" stroke-miterlimit="10"/>
<path d="M2.99182 30.7H46.8918" stroke="#100F10" stroke-miterlimit="10"/>
</svg>
