<svg width="108" height="108" viewBox="0 0 108 108" fill="none" xmlns="http://www.w3.org/2000/svg">
<path fill-rule="evenodd" clip-rule="evenodd" d="M46.8399 36.4573C43.9341 36.5885 41.4155 37.2989 39.3818 39.324C37.3411 41.3598 36.6395 43.888 36.5081 46.7636C36.4263 48.5584 35.9486 62.1175 37.334 65.6734C38.2682 68.0723 40.1083 69.9167 42.5292 70.854C43.6588 71.2934 44.9483 71.591 46.8399 71.6778C62.6564 72.3936 68.5194 72.0038 70.9918 65.6734C71.4305 64.5466 71.7325 63.2585 71.816 61.3716C72.5388 45.5145 71.6987 42.0773 68.9422 39.324C66.7557 37.143 64.1839 35.6583 46.8399 36.4573ZM46.9853 68.4902C45.2535 68.4122 44.3139 68.1234 43.687 67.8807C42.1098 67.2677 40.9251 66.0877 40.3159 64.5197C39.2608 61.8178 39.6107 48.9851 39.7049 46.9086C39.7972 44.8746 40.2093 43.0161 41.6444 41.5809C43.4205 39.8092 45.7153 38.941 61.34 39.6462C63.379 39.7383 65.2422 40.1494 66.6809 41.5809C68.457 43.3527 69.338 45.6648 68.6204 61.2296C68.5423 62.957 68.2528 63.8943 68.0094 64.5197C66.402 68.639 62.7041 69.2113 46.9853 68.4902ZM61.5128 44.6103C61.5128 45.7832 62.4666 46.7364 63.6442 46.7364C64.8218 46.7364 65.7773 45.7832 65.7773 44.6103C65.7773 43.4374 64.8218 42.4842 63.6442 42.4842C62.4666 42.4842 61.5128 43.4374 61.5128 44.6103ZM45.0424 54.0666C45.0424 59.0912 49.1258 63.1645 54.1629 63.1645C59.2 63.1645 63.2834 59.0912 63.2834 54.0666C63.2834 49.0419 59.2 44.9704 54.1629 44.9704C49.1258 44.9704 45.0424 49.0419 45.0424 54.0666ZM48.2427 54.0667C48.2427 50.8067 50.8927 48.1615 54.1626 48.1615C57.4325 48.1615 60.0825 50.8067 60.0825 54.0667C60.0825 57.3285 57.4325 59.9737 54.1626 59.9737C50.8927 59.9737 48.2427 57.3285 48.2427 54.0667Z" fill="#1E1E1E"/>
</svg>
