<svg width="256" height="29" viewBox="0 0 256 29" fill="none" xmlns="http://www.w3.org/2000/svg">
<g opacity="0.5">
<path d="M19.2587 5.04083C20.7223 7.07716 20.2769 10.0044 18.1769 11.468L8.31345 18.5315C6.27712 20.0588 3.41352 19.5497 1.88628 17.5134C0.422665 15.4134 0.86812 12.5498 2.96808 11.0862L12.8316 3.95903C14.8679 2.49542 17.7315 2.94087 19.2587 5.04083Z" fill="#EA4435" stroke="#100F10" stroke-width="0.636353" stroke-miterlimit="10"/>
<path d="M1.88628 12.1043C0.422665 14.2043 0.86812 17.0678 2.96808 18.5315L12.8316 25.6586C14.8679 27.1222 17.7315 26.6768 19.2587 24.5768C20.7223 22.5405 20.2769 19.6133 18.1769 18.1496L8.31345 11.0861C6.27712 9.55888 3.41352 10.068 1.88628 12.1043Z" fill="#537CBE" stroke="#100F10" stroke-width="0.636353" stroke-miterlimit="10"/>
<path d="M43.0583 12.1043C44.5219 14.2043 44.0764 17.0678 41.9765 18.5315L32.113 25.6586C30.0767 27.1222 27.2131 26.6768 25.6858 24.5768C24.2222 22.5405 24.6677 19.6133 26.7676 18.1496L36.6311 11.0861C38.6674 9.55888 41.531 10.068 43.0583 12.1043Z" fill="#F8AB19" stroke="#100F10" stroke-width="0.636353" stroke-miterlimit="10"/>
<path d="M25.6858 5.04083C24.2222 7.07716 24.6677 10.0044 26.7676 11.468L36.6311 18.5315C38.6674 20.0588 41.531 19.5497 43.0583 17.5134C44.5219 15.4134 44.0764 12.5498 41.9765 11.0862L32.113 3.95903C30.0767 2.49542 27.2131 2.94087 25.6858 5.04083Z" fill="#32A852" stroke="#100F10" stroke-width="0.636353" stroke-miterlimit="10"/>
<path d="M61.9148 14.8088H89.5325" stroke="#100F10" stroke-width="0.636353" stroke-miterlimit="10"/>
<path d="M75.7236 1V28.6177" stroke="#100F10" stroke-width="0.636353" stroke-miterlimit="10"/>
<path d="M85.4599 5.07263L65.9875 24.545" stroke="#100F10" stroke-width="0.636353" stroke-miterlimit="10"/>
<path d="M85.4599 24.545L65.9875 5.07263" stroke="#100F10" stroke-width="0.636353" stroke-miterlimit="10"/>
<path d="M137.568 14.8089C137.568 7.17262 130.823 1 122.55 1C114.214 1 107.532 7.17262 107.532 14.8089C107.532 22.4451 114.214 28.6177 122.55 28.6177C130.823 28.6177 137.568 22.4451 137.568 14.8089Z" stroke="#100F10" stroke-width="0.636353" stroke-miterlimit="10"/>
<path d="M129.041 14.8089C129.041 7.17262 126.114 1 122.55 1C118.987 1 116.06 7.17262 116.06 14.8089C116.06 22.4451 118.987 28.6177 122.55 28.6177C126.114 28.6177 129.041 22.4451 129.041 14.8089Z" stroke="#100F10" stroke-width="0.636353" stroke-miterlimit="10"/>
<path d="M108.551 9.71802H136.486" stroke="#100F10" stroke-width="0.636353" stroke-miterlimit="10"/>
<path d="M108.551 19.8997H136.486" stroke="#100F10" stroke-width="0.636353" stroke-miterlimit="10"/>
<path d="M230.658 7.17261C230.658 15.6361 225.058 22.4451 218.122 22.4451C211.249 22.4451 205.649 15.6361 205.649 7.17261" stroke="#100F10" stroke-width="0.636353" stroke-miterlimit="10"/>
<path d="M205.649 7.17261C205.649 15.6361 200.049 22.4451 193.113 22.4451C186.241 22.4451 180.641 15.6361 180.641 7.17261" stroke="#100F10" stroke-width="0.636353" stroke-miterlimit="10"/>
<path d="M255.667 7.17261C255.667 15.6361 250.067 22.4451 243.194 22.4451C236.258 22.4451 230.658 15.6361 230.658 7.17261" stroke="#100F10" stroke-width="0.636353" stroke-miterlimit="10"/>
<path d="M180.641 7.17261C180.641 15.6361 175.041 22.4451 168.105 22.4451C161.168 22.4451 155.568 15.6361 155.568 7.17261" stroke="#100F10" stroke-width="0.636353" stroke-miterlimit="10"/>
</g>
</svg>
