<svg width="108" height="108" viewBox="0 0 108 108" fill="none" xmlns="http://www.w3.org/2000/svg">
<path d="M62.5023 44.7344C65.74 44.7344 68.8451 46.0207 71.1344 48.3104C73.4238 50.6001 74.71 53.7056 74.71 56.9437V71.188H66.5716V56.9437C66.5716 55.8644 66.1428 54.8292 65.3797 54.066C64.6166 53.3027 63.5816 52.8739 62.5023 52.8739C61.4231 52.8739 60.3881 53.3027 59.625 54.066C58.8618 54.8292 58.4331 55.8644 58.4331 56.9437V71.188H50.2947V56.9437C50.2947 53.7056 51.5808 50.6001 53.8702 48.3104C56.1596 46.0207 59.2647 44.7344 62.5023 44.7344Z" stroke="#1E1E1E" stroke-width="4.06933" stroke-linecap="round" stroke-linejoin="round"/>
<path d="M42.1519 46.7705H34.0134V71.1892H42.1519V46.7705Z" stroke="#1E1E1E" stroke-width="4.06933" stroke-linecap="round" stroke-linejoin="round"/>
<path d="M38.0826 40.665C40.33 40.665 42.1519 38.8429 42.1519 36.5952C42.1519 34.3475 40.33 32.5254 38.0826 32.5254C35.8353 32.5254 34.0134 34.3475 34.0134 36.5952C34.0134 38.8429 35.8353 40.665 38.0826 40.665Z" stroke="#1E1E1E" stroke-width="4.06933" stroke-linecap="round" stroke-linejoin="round"/>
</svg>
