<svg width="30" height="30" viewBox="0 0 30 30" fill="none" xmlns="http://www.w3.org/2000/svg">
<path d="M15 0C23.2845 0 30 6.7155 30 15C30 23.2845 23.2845 30 15 30C6.7155 30 0 23.2845 0 15C0 6.7155 6.7155 0 15 0ZM15 3C11.8174 3 8.76515 4.26428 6.51472 6.51472C4.26428 8.76515 3 11.8174 3 15C3 18.1826 4.26428 21.2348 6.51472 23.4853C8.76515 25.7357 11.8174 27 15 27C18.1826 27 21.2348 25.7357 23.4853 23.4853C25.7357 21.2348 27 18.1826 27 15C27 11.8174 25.7357 8.76515 23.4853 6.51472C21.2348 4.26428 18.1826 3 15 3ZM15 6C15.3674 6.00005 15.722 6.13493 15.9966 6.37907C16.2711 6.62321 16.4465 6.95962 16.4895 7.3245L16.5 7.5V14.379L20.5605 18.4395C20.8295 18.7094 20.9857 19.0717 20.9973 19.4526C21.009 19.8335 20.8752 20.2046 20.6231 20.4904C20.3711 20.7763 20.0197 20.9555 19.6403 20.9916C19.2609 21.0277 18.882 20.9181 18.5805 20.685L18.4395 20.5605L13.9395 16.0605C13.7064 15.8272 13.5566 15.5235 13.5135 15.1965L13.5 15V7.5C13.5 7.10218 13.658 6.72064 13.9393 6.43934C14.2206 6.15804 14.6022 6 15 6Z" fill="#999999"/>
</svg>
