<svg width="108" height="108" viewBox="0 0 108 108" fill="none" xmlns="http://www.w3.org/2000/svg">
<path fill-rule="evenodd" clip-rule="evenodd" d="M47.0155 67.4761C60.4869 67.4761 67.8553 57.1739 67.8553 48.2408C67.8553 47.9475 67.8553 47.6559 67.8339 47.3659C69.2673 46.4103 70.5043 45.2241 71.4878 43.8665C70.1526 44.4135 68.7335 44.7726 67.2823 44.9308C68.8103 44.0856 69.9545 42.7577 70.5025 41.1908C69.0638 41.9784 67.4912 42.5336 65.8508 42.8318C63.0769 40.11 58.4377 39.9782 55.4871 42.5385C53.5861 44.1894 52.7774 46.6509 53.3683 48.9987C47.4796 48.7252 41.9925 46.1582 38.2726 41.9355C36.3287 45.0247 37.3229 48.9756 40.5413 50.9593C39.3757 50.928 38.2351 50.638 37.2158 50.1141V50.1997C37.2176 53.4174 39.6756 56.1886 43.0921 56.8263C42.0139 57.0981 40.8822 57.1376 39.7862 56.9416C40.7448 59.6963 43.4955 61.5828 46.6281 61.6372C44.0345 63.5187 40.8305 64.5402 37.5318 64.5369C36.9499 64.5352 36.368 64.5039 35.7878 64.4397C39.1383 66.4233 43.0349 67.4761 47.0155 67.4712" fill="#1E1E1E"/>
</svg>
