<svg width="896" height="51" viewBox="0 0 896 51" fill="none" xmlns="http://www.w3.org/2000/svg">
<g clip-path="url(#clip0_2001_11286)">
<rect width="895.61" height="51" fill="#07074C"/>
<path d="M232.536 28.5503C233.993 29.7885 233.993 29.7885 234.867 31.4638C234.695 34.6302 233.725 36.973 232.135 39.658C231.909 40.05 231.683 40.4419 231.45 40.8458C227.63 47.382 223.475 53.7352 219.323 60.0639C218.895 60.7277 218.468 61.3915 218.041 62.0555C217.682 62.6024 217.323 63.1492 216.953 63.7126C216.068 65.5825 215.907 66.7119 216.22 68.7566C217.92 70.8119 219.77 71.8106 222.163 72.9356C222.876 73.2784 223.588 73.6213 224.3 73.9645C225.408 74.4916 226.517 75.016 227.628 75.5362C238.907 80.8398 238.907 80.8398 240.598 85.1473C240.88 86.8503 240.772 88.2984 240.293 89.9523C239.35 91.1202 238.589 91.5051 237.198 92.0646C233.116 92.2236 229.21 90.9797 225.398 89.661C224.866 89.4791 224.334 89.2973 223.785 89.11C215.542 86.2181 206.26 82.4162 201.653 74.5836C200.497 71.1151 200.552 67.6686 202.165 64.3613C202.672 63.4512 203.194 62.5493 203.729 61.6549C204.012 61.1612 204.296 60.6675 204.588 60.1588C208.218 53.9345 212.189 47.9218 216.22 41.9524C216.552 41.4576 216.885 40.9628 217.227 40.453C218.146 39.0897 219.074 37.7336 220.008 36.3803C220.273 35.9888 220.539 35.5974 220.812 35.194C223.864 30.8481 226.949 27.2018 232.536 28.5503Z" fill="#34A853"/>
<path d="M179.216 -5.32103C181.107 -3.71328 181.204 -3.29038 181.547 -0.805103C181.455 6.3119 176.084 13.8893 172.515 19.8079C172.105 20.4976 171.695 21.1873 171.286 21.8769C165.676 31.2438 165.676 31.2438 161.444 32.6273C156.533 33.2142 152.9 30.2594 149.207 27.383C145.999 24.6675 143.816 22.1172 143.016 17.8777C143.566 14.6292 145.269 12.877 147.459 10.4847C147.721 10.1943 147.984 9.90389 148.255 9.60468C154.716 2.54082 168.816 -10.8923 179.216 -5.32103Z" fill="#8636C1"/>
<path d="M217.06 -6.99609C219.136 -6.41339 219.136 -6.41339 220.556 -4.88381C221.789 -2.22097 222.025 -0.422416 221.034 2.38856C217.194 10.7543 210.808 18.2242 205.419 25.628C204.653 26.684 203.892 27.7437 203.134 28.8058C202.528 29.652 202.528 29.652 201.909 30.5152C201.572 30.9884 201.235 31.4616 200.887 31.9492C198.158 35.4578 198.158 35.4578 195.536 35.8324C193.497 35.541 193.497 35.541 192.076 34.667C190.815 32.6487 190.875 30.8437 191.166 28.5486C191.723 26.7459 192.508 25.0987 193.351 23.4136C193.583 22.938 193.815 22.4625 194.054 21.9726C208.562 -6.99609 208.562 -6.99609 217.06 -6.99609Z" fill="#34A853"/>
<path d="M181.295 49.2051C183.442 49.8154 184.244 51.1766 185.337 53.0222C185.738 54.8068 185.738 54.8068 185.337 56.5184C183.614 58.3648 182.439 59.2078 180.093 60.0875C178.082 60.0037 176.983 59.458 175.516 58.0685C174.486 56.5747 174.399 55.3505 174.551 53.5685C175.457 50.138 178.021 48.988 181.295 49.2051Z" fill="#7E36BE"/>
<path d="M247.098 50.1084C248.81 51.3102 248.81 51.3102 250.012 53.0219C250.012 55.0867 249.813 56.44 248.773 58.2298C246.991 59.24 245.602 59.0945 243.602 58.8489C242.182 57.9384 242.182 57.9384 241.271 56.5181C240.94 54.2019 240.908 52.9841 242.218 51.0189C244.043 49.8182 244.951 49.714 247.098 50.1084Z" fill="#E9703F"/>
<path d="M139.383 47.498C149.755 48.9386 159.554 61.2061 166.877 67.9984C168.536 69.5341 170.21 71.0416 171.932 72.5063C176.508 76.4702 180.826 80.856 184.738 85.4737C186.853 87.8869 189.074 90.2047 191.28 92.5352C191.795 93.0824 191.795 93.0824 192.32 93.6406C192.63 93.9679 192.939 94.2953 193.259 94.6326C194.406 95.9358 195.185 96.9561 195.459 98.6914C195.145 100.89 194.574 101.643 192.91 103.135C190.829 103.57 188.772 103.502 186.654 103.465C186.017 103.466 185.38 103.466 184.724 103.467C182.618 103.465 180.512 103.442 178.406 103.419C176.946 103.414 175.486 103.409 174.026 103.407C170.576 103.397 167.125 103.374 163.675 103.344C159.361 103.309 155.046 103.293 150.732 103.277C143.037 103.246 135.342 103.196 127.647 103.135C127.637 101.844 127.629 100.553 127.623 99.2623C127.618 98.5435 127.614 97.8248 127.609 97.0842C127.662 94.124 128.079 91.2949 128.594 88.3849C128.696 87.7795 128.798 87.174 128.902 86.5502C129.953 80.3746 131.078 74.2102 132.225 68.0517C132.863 64.617 133.494 61.187 133.984 57.7272C134.055 57.24 134.125 56.7528 134.198 56.2509C134.317 55.4015 134.426 54.5507 134.522 53.6985C134.943 50.715 136.251 48.201 139.383 47.498Z" fill="#34A853"/>
<path d="M0.811055 44.9485L23.5203 26.6086C23.7354 26.4349 24.0108 26.3538 24.2858 26.3832C24.5609 26.4126 24.813 26.5501 24.9869 26.7654L34.7386 38.8404C34.9125 39.0556 34.9938 39.3311 34.9646 39.6062C34.9355 39.8813 34.7982 40.1334 34.5831 40.3071L24.0396 48.8221C23.8245 48.9958 23.6872 49.2479 23.6581 49.523C23.6289 49.798 23.7102 50.0735 23.8841 50.2888L39.1639 69.209C39.3378 69.4242 39.59 69.5617 39.865 69.5911C40.1401 69.6205 40.4154 69.5394 40.6305 69.3657L51.1741 60.8508C51.3892 60.6771 51.6646 60.596 51.9396 60.6254C52.2147 60.6548 52.4669 60.7922 52.6407 61.0075L62.3908 73.0805C62.5646 73.2958 62.6459 73.5712 62.6168 73.8463C62.5876 74.1214 62.4504 74.3735 62.2353 74.5472L39.5261 92.8871C39.3109 93.0608 39.0356 93.1419 38.7605 93.1125C38.4855 93.0831 38.2333 92.9456 38.0594 92.7303L0.658863 46.4193C0.571962 46.3128 0.506945 46.1902 0.467548 46.0585C0.428151 45.9268 0.41515 45.7887 0.429292 45.652C0.443434 45.5153 0.484441 45.3828 0.549956 45.2621C0.615471 45.1414 0.704204 45.0348 0.811055 44.9485Z" fill="#FFE7A5" stroke="#1E1E1E" stroke-width="2.9135" stroke-miterlimit="10"/>
<path d="M53.9265 2.05395L31.2173 20.3938C31.0022 20.5675 30.865 20.8197 30.8358 21.0947C30.8067 21.3698 30.888 21.6453 31.0618 21.8606L40.8135 33.9355C40.9874 34.1508 41.2396 34.2883 41.5146 34.3177C41.7897 34.3471 42.065 34.266 42.2801 34.0923L52.8237 25.5774C53.0388 25.4037 53.3142 25.3226 53.5892 25.352C53.8643 25.3814 54.1165 25.5188 54.2903 25.7341L69.5701 44.6543C69.744 44.8696 69.8253 45.1451 69.7962 45.4201C69.767 45.6952 69.6298 45.9473 69.4147 46.121L58.8711 54.636C58.656 54.8097 58.5188 55.0618 58.4896 55.3369C58.4605 55.612 58.5418 55.8874 58.7156 56.1027L68.4657 68.1757C68.6395 68.391 68.8917 68.5284 69.1668 68.5578C69.4418 68.5872 69.7172 68.5062 69.9323 68.3324L92.6415 49.9925C92.8566 49.8188 92.9939 49.5667 93.023 49.2916C93.0522 49.0166 92.9709 48.7411 92.797 48.5258L55.3964 2.21477C55.3106 2.1074 55.2044 2.01803 55.084 1.95179C54.9635 1.88556 54.8312 1.84377 54.6946 1.82883C54.5581 1.81388 54.4199 1.82608 54.2881 1.86471C54.1563 1.90334 54.0334 1.96765 53.9265 2.05395Z" fill="#FFE7A5" stroke="#1E1E1E" stroke-width="2.9135" stroke-miterlimit="10"/>
<path d="M317.033 8.03786C320.128 10.2211 322.867 12.628 325.482 15.3603C326.557 16.457 327.672 17.4535 328.84 18.4491C332.856 21.9134 336.55 25.7045 339.998 29.732C341.513 31.4659 343.079 33.1498 344.645 34.8375C357.43 48.6615 357.43 48.6615 357.501 53.1561C356.616 59.7149 349.996 65.0159 345.627 69.5696C343.797 71.4822 342.05 73.4549 340.316 75.4536C331.532 85.5084 331.532 85.5084 325.562 86.0058C322.722 86.168 320.711 84.4872 318.677 82.6842C317.71 81.7571 316.763 80.8133 315.822 79.8602C315.475 79.5124 315.127 79.1646 314.769 78.8063C314.038 78.073 313.308 77.3384 312.579 76.6024C311.476 75.4892 310.369 74.3807 309.261 73.2729C306.083 70.0855 302.929 66.9025 300.01 63.4726C298.74 61.9817 297.398 60.562 296.063 59.1288C293.524 56.3837 291.131 53.5497 288.788 50.6341C287.201 48.6998 285.527 46.8549 283.828 45.0188C281.979 42.7793 281.575 41.073 281.445 38.1562C282.153 34.7856 284.986 32.2372 287.286 29.8117C287.911 29.1434 288.536 28.475 289.162 27.8064C289.476 27.4721 289.789 27.1377 290.113 26.7932C291.513 25.2971 292.896 23.7852 294.278 22.273C294.539 21.9897 294.799 21.7063 295.068 21.4143C296.427 19.9351 297.775 18.4473 299.108 16.9445C310.443 4.2353 310.443 4.2353 317.033 8.03786Z" fill="#F17C22"/>
<path d="M311.297 20.2148C314.332 22.7541 317.171 25.4208 319.965 28.2224C320.389 28.6462 320.813 29.0699 321.25 29.5065C322.142 30.398 323.034 31.2903 323.924 32.1832C325.276 33.5381 326.631 34.8899 327.986 36.2414C328.857 37.113 329.728 37.9847 330.599 38.8567C330.999 39.255 331.398 39.6534 331.81 40.0638C334.102 42.3669 336.29 44.7302 338.408 47.1947C339.109 48.0022 339.839 48.7838 340.578 49.557C341.083 50.0854 341.083 50.0854 341.597 50.6245C341.946 50.9813 342.295 51.3381 342.654 51.7057C343.346 52.846 343.346 52.846 343.273 54.2914C342.72 55.8821 342.081 56.8647 341.015 58.1632C340.647 58.6139 340.28 59.0645 339.902 59.5289C339.5 60.0156 339.098 60.5024 338.684 61.0038C338.264 61.5386 337.844 62.0735 337.412 62.6245C334.135 66.7586 330.673 70.1059 326.447 73.2405C324.224 72.3398 322.968 70.9752 321.385 69.1981C321.129 68.912 320.873 68.626 320.609 68.3313C318.965 66.479 317.397 64.5768 315.849 62.6427C313.585 59.8313 311.16 57.2117 308.675 54.5941C305.29 51.0242 302.1 47.3945 299.06 43.5228C298.686 43.0857 298.312 42.6485 297.927 42.1981C297.592 41.794 297.257 41.3899 296.912 40.9735C296.621 40.6325 296.33 40.2915 296.031 39.9401C295.564 38.8612 295.564 38.8612 295.91 37.4477C296.826 35.7705 297.862 34.5366 299.17 33.1435C299.876 32.3818 299.876 32.3818 300.597 31.6048C301.278 30.8702 301.278 30.8702 301.974 30.1207C302.657 29.3344 303.337 28.5455 304.013 27.7535C306.31 25.1108 308.797 22.6638 311.297 20.2148Z" fill="#1E1E1E"/>
<path d="M425.377 87.3517C449.329 87.3517 468.746 69.5157 468.746 47.514C468.746 25.5122 449.329 7.67627 425.377 7.67627C401.425 7.67627 382.008 25.5122 382.008 47.514C382.008 69.5157 401.425 87.3517 425.377 87.3517Z" stroke="#FFE7A5" stroke-width="4.0789" stroke-linejoin="round"/>
<path d="M425.377 87.3517C435.716 87.3517 444.097 69.5157 444.097 47.514C444.097 25.5122 435.716 7.67627 425.377 7.67627C415.038 7.67627 406.656 25.5122 406.656 47.514C406.656 69.5157 415.038 87.3517 425.377 87.3517Z" stroke="#FFE7A5" stroke-width="4.0789" stroke-linejoin="round"/>
<path d="M385.055 32.7539H465.672" stroke="#FFE7A5" stroke-width="4.0789" stroke-linejoin="round"/>
<path d="M835.007 -7.71497C836.172 -6.8045 836.172 -6.8045 836.755 -5.38417C836.687 -0.657119 834.505 3.31527 832.53 7.50807C827.173 18.9663 822.361 30.2856 826.849 42.9799C828.815 47.6669 831.814 51.279 835.114 55.0618C841.291 62.1616 845.798 68.591 845.689 78.2128C845.17 83.7393 841.073 87.5483 837.338 91.344C836.701 91.9919 836.701 91.9919 836.052 92.6528C834.596 94.0444 833.063 95.3052 831.511 96.5883C831.23 96.8694 830.95 97.1505 830.661 97.4402C825.303 102.785 819.859 103.406 812.585 103.437C807.818 103.4 803.058 103.242 798.297 102.998C801.459 96.4286 808.685 92.4087 814.402 88.2669C816.41 86.8047 818.397 85.3191 820.367 83.8053C820.688 83.5654 821.01 83.3255 821.341 83.0784C824.007 81.0108 826.414 78.5939 827.216 75.2469C827.071 70.0667 825.072 67.497 821.787 63.6658C812.525 52.8359 809.887 41.8903 810.534 27.8297C811.532 16.1151 819.335 1.0409 828.233 -6.58599C830.76 -8.45076 831.912 -8.42088 835.007 -7.71497Z" fill="#34A853"/>
<path d="M895.024 7.43576C895.607 8.01846 895.607 8.01847 895.673 9.7963C895.673 10.5823 895.669 11.3683 895.663 12.1543C895.663 12.5673 895.662 12.9804 895.661 13.4059C895.658 14.73 895.65 16.054 895.643 17.3781C895.64 18.2738 895.637 19.1694 895.635 20.0651C895.629 22.265 895.619 24.4649 895.607 26.6649C895.191 26.4681 894.776 26.2713 894.348 26.0685C887.73 22.9866 881.328 21.3245 874.038 22.9866C868.757 24.9303 865.778 28.2698 862.786 32.9175C861.442 34.7378 860.364 35.8259 858.1 36.2407C854.677 36.246 852.763 35.9303 850.156 33.6573C848.722 30.7897 849.271 26.8058 849.972 23.7764C852.108 17.4389 856.347 12.2575 862.161 8.88796C863.769 8.11371 865.376 7.46018 867.054 6.85307C867.567 6.66678 868.079 6.4805 868.607 6.28857C877.205 3.67282 886.614 4.60965 895.024 7.43576Z" fill="#4285F4"/>
<path d="M885.374 45.0541C885.867 45.5228 886.36 45.9915 886.867 46.4744C887.29 46.8688 887.29 46.8688 887.721 47.2711C890.137 49.9617 890.205 52.7742 890.068 56.2825C889.554 59.5884 888.06 61.7021 885.629 63.919C882.439 65.7266 878.761 65.4936 875.213 65.1208C872.672 64.1742 871.049 62.865 869.423 60.7142C868.064 57.5968 867.542 54.3369 868.64 51.045C870.047 48.0029 871.716 46.1328 874.799 44.6808C878.256 43.5052 882.059 43.5472 885.374 45.0541Z" fill="#34A853"/>
<path d="M558.756 42.8554C565.921 44.9989 569.954 54.7751 573.237 60.844C576.62 67.2097 579.646 73.7334 582.335 80.4214C582.509 80.8446 582.684 81.2679 582.863 81.704C583.881 84.3183 584.295 86.4583 584.047 89.3075C583.209 90.7643 583.209 90.7643 581.716 91.6383C578.364 92.1668 575.962 90.9061 573.267 89.0162C570.66 86.9876 568.352 84.7608 566.065 82.3834C563.442 79.7893 560.644 77.2739 556.915 76.8159C553.128 76.8773 550.526 79.3559 547.744 81.6937C541.563 86.8831 534.784 90.5921 526.52 90.0652C523.4 89.6536 520.387 88.6248 517.407 87.6378C513.714 86.4516 509.615 85.3954 505.867 86.9016C502.239 88.8893 499.471 92.181 496.642 95.1345C490.292 101.569 490.292 101.569 485.935 101.763C483.85 101.729 483.281 101.571 481.455 100.379C480.045 98.1961 479.975 96.4756 480.326 93.9691C480.903 92.2842 481.707 90.7815 482.584 89.2347C482.819 88.8073 483.054 88.3798 483.296 87.9394C485.684 83.6932 488.399 79.74 491.397 75.9054C491.823 75.3519 492.248 74.7983 492.686 74.2279C496.193 69.98 501.132 66.4913 506.759 65.8402C511.796 65.6668 516.28 66.622 521.141 67.8765C525.775 69.0432 530.216 69.8986 534.544 67.4108C538.875 64.2584 541.607 59.5672 544.404 55.0985C552.623 41.9806 552.623 41.9806 558.756 42.8554Z" fill="#34A853"/>
<path d="M504.774 43.2159C506.478 44.2796 507.94 45.4701 508.852 47.2948C509.095 50.9965 508.773 52.8985 506.326 55.7895C504.545 57.3108 502.382 57.3325 500.112 57.2007C498.222 56.2731 497.082 55.4841 495.814 53.8138C495.256 51.8577 495.175 50.4934 495.45 48.4602C497.669 44.8869 500.41 42.605 504.774 43.2159Z" fill="#FFE7A5"/>
<path d="M695.876 -11.0742C697.624 -10.7465 697.624 -10.7465 699.045 -9.90882C700.427 -7.64202 699.864 -5.70993 699.373 -3.17135C698.813 -1.22748 698.111 0.645697 697.379 2.53046C697.179 3.0552 696.98 3.57993 696.775 4.12057C696.355 5.22298 695.931 6.32424 695.505 7.42437C694.859 9.09611 694.224 10.7721 693.591 12.4489C693.179 13.5254 692.766 14.6017 692.353 15.6776C692.166 16.1724 691.979 16.6673 691.786 17.1771C688.721 25.026 688.721 25.026 685.952 26.6636C684.03 27.4434 682.181 27.4087 680.143 27.129C678.687 26.3278 678.687 26.3278 677.813 25.3809C677.813 24.9964 677.813 24.6118 677.813 24.2155C677.483 24.0781 677.153 23.9406 676.813 23.799C675.177 22.8788 674.116 21.7526 672.823 20.3916C669.818 17.3146 666.624 14.6381 663.245 11.9788C661.888 15.168 660.55 18.3542 659.353 21.6071C655.053 33.2341 655.053 33.2341 649.26 36.4522C644.887 37.9099 640.213 37.3677 636.07 35.4712C630.936 32.6114 624.26 27.6297 622.456 21.8847C622.133 19.7332 622.334 19.1425 623.622 17.3324C624.006 16.9118 624.391 16.4911 624.787 16.0577C627.342 16.3468 628.45 17.1143 630.218 18.9508C630.674 19.4168 631.13 19.8829 631.6 20.3631C632.067 20.8532 632.535 21.3434 633.018 21.8483C633.953 22.8138 634.889 23.7782 635.826 24.7413C636.238 25.1709 636.65 25.6005 637.074 26.0432C638.662 27.5892 639.647 28.2561 641.867 28.5494C644.006 28.2956 645.127 27.9127 646.693 26.4257C650.487 21.5875 652.129 14.6045 653.316 8.68523C653.412 8.21769 653.507 7.75016 653.605 7.26845C653.788 6.35047 653.96 5.43038 654.121 4.50831C654.705 1.5418 655.516 -0.0868823 658.001 -2.00595C661 -2.43442 662.543 -1.93383 664.993 -0.257851C665.916 0.614918 666.814 1.51571 667.688 2.43714C670.226 5.03509 672.901 7.3163 675.737 9.57976C677.729 11.2257 679.538 13.0129 681.309 14.8923C684.383 11.0634 686.051 6.26317 687.864 1.74063C688.093 1.17155 688.321 0.602468 688.557 0.0161433C689.011 -1.12134 689.461 -2.26072 689.905 -3.4021C692.725 -10.4833 692.725 -10.4833 695.876 -11.0742Z" fill="#6E35C3"/>
<path d="M565.726 -64.5273C567.438 -63.1069 567.438 -63.1069 568.64 -61.6138C568.928 -61.3253 568.928 -61.3253 569.222 -61.0311C570.402 -53.7297 567.7 -48.9781 563.978 -42.9674C563.732 -42.5689 563.486 -42.1704 563.233 -41.7599C562.263 -40.1961 561.285 -38.6374 560.299 -37.0829C558.602 -34.3971 556.965 -31.6863 555.42 -28.9097C555.215 -28.5581 555.01 -28.2065 554.799 -27.8442C553.862 -26.1197 553.488 -24.9716 553.53 -22.9962C554.15 -21.1781 554.461 -20.7957 556.148 -19.9507C556.615 -19.7164 557.081 -19.482 557.562 -19.2406C560.107 -18.1577 562.705 -17.2115 565.334 -16.3487C568.016 -15.4197 569.732 -14.36 571.553 -12.0843C572.541 -9.37193 571.784 -6.83786 570.75 -4.23604C569.577 -1.74051 568.243 0.663238 566.892 3.06592C566.623 3.54683 566.355 4.02775 566.078 4.52324C564.336 7.6357 562.56 10.728 560.766 13.8109C559.945 15.2239 559.131 16.6408 558.32 18.0591C555.6 22.7845 552.775 27.314 549.411 31.6182C548.91 32.3134 548.91 32.3134 548.4 33.0226C546.7 35.2329 545.444 36.5389 542.637 37.0446C540.511 37.1063 540.138 36.9005 538.339 35.5514C536.522 33.0529 536.349 31.1644 536.591 28.122C537.273 26.5724 537.966 25.2035 538.813 23.7518C539.296 22.8837 539.776 22.0141 540.254 21.1433C540.51 20.6766 540.766 20.21 541.03 19.7292C542.504 16.9613 543.842 14.1287 545.186 11.2965C545.447 10.7501 545.707 10.2036 545.975 9.64064C546.483 8.57075 546.988 7.49926 547.488 6.42611C548.01 5.31472 548.543 4.20834 549.084 3.10632C549.351 2.55067 549.618 1.99501 549.893 1.42252C550.136 0.926677 550.379 0.430832 550.629 -0.0800371C551.251 -1.85956 551.324 -3.21876 551.159 -5.09188C548.913 -8.32262 545.726 -9.02911 542.127 -10.0813C534.716 -12.2779 534.716 -12.2779 532.294 -15.4712C531.739 -17.4133 532.09 -18.8581 532.512 -20.8248C533.307 -22.1976 534.071 -23.3659 535.025 -24.6123C535.282 -24.9605 535.538 -25.3086 535.802 -25.6673C537.476 -27.9163 539.233 -30.0912 541.012 -32.2574C545.486 -37.7245 548.837 -43.3965 551.839 -49.7891C552.004 -50.1388 552.169 -50.4885 552.339 -50.8489C553.174 -52.6198 553.998 -54.3937 554.805 -56.1777C557.264 -61.4634 559.318 -65.5445 565.726 -64.5273Z" fill="#4285F4"/>
<path d="M374.746 -8.30609C378.358 -6.14263 380.722 -2.73091 381.93 1.247C382.456 5.83095 381.182 9.54919 378.481 13.2788C375.107 17.256 370.691 21.2248 365.284 21.8008C360.441 21.965 356.704 21.1364 352.993 17.879C350 14.5719 349.541 10.9255 349.626 6.62332C350.372 1.12477 353.72 -3.56046 358.039 -6.9108C363.459 -10.2361 368.839 -10.9346 374.746 -8.30609Z" fill="#34A853"/>
<path d="M371.676 -4.57466C374.402 -3.35427 376 -1.90922 377.298 0.84946C377.713 4.05046 377.136 6.80444 375.55 9.58996C372.771 13.0975 369.429 16.0505 364.911 16.8009C362.22 16.9468 360.049 16.5561 357.782 15.0642C355.548 12.9976 354.703 10.5012 354.281 7.55051C355.049 2.17504 358.335 -0.949879 362.293 -4.35842C365.317 -5.52649 368.573 -5.48685 371.676 -4.57466Z" fill="#1E1E1E"/>
<path d="M694.725 50.2163C697.251 52.6646 698.714 55.0163 699.036 58.5653C699.073 61.6831 698.85 64.7141 698.476 67.8066C698.187 70.7745 698.422 72.3403 700.042 74.8718C702.953 77.5302 706.146 78.5854 709.813 79.9317C714.045 81.6561 717.761 84.0897 719.854 88.2739C720.71 96.14 717.919 102.818 714.536 109.725C714.34 110.126 714.144 110.526 713.942 110.94C712.961 112.86 712.359 113.859 710.53 115.078C706.437 115.533 706.437 115.533 704.412 113.913C702.67 110.43 703.508 107.476 704.412 103.861C705.477 99.4749 706.13 95.2559 704.558 90.9325C701.666 88.2378 697.943 87.1893 694.244 85.9499C689.787 84.4393 686.578 82.5957 683.435 79.06C682.303 76.6549 682.151 74.5774 682.561 71.9583C682.753 71.5805 682.945 71.2027 683.143 70.8134C684.234 68.5937 684.024 66.2092 683.726 63.8005C682.358 60.9396 680.077 60.1352 677.241 59.0775C674.887 58.3438 672.495 57.8449 670.071 57.3931C668.121 56.63 667.684 55.7704 666.828 53.8946C666.537 52.1101 666.537 52.1101 666.828 50.3984C668.776 47.9805 671.215 47.5284 674.153 47.0866C681.095 46.4461 688.902 45.7364 694.725 50.2163Z" fill="#F9AB00"/>
<path d="M769.061 15.7688C769.456 15.7563 769.851 15.7438 770.257 15.731C772.992 15.7129 774.811 16.1869 777.11 17.6626C783.966 24.5583 790.373 38.7217 790.913 48.4364C790.767 50.3039 790.587 50.782 789.383 52.2968C785.404 54.3268 781.416 55.1885 777.037 55.9387C776.369 56.0537 776.369 56.0537 775.688 56.171C774.416 56.3758 773.144 56.5465 771.866 56.7035C771.182 56.7914 770.498 56.8792 769.794 56.9698C766.492 56.5317 764.329 54.6559 762.231 52.1309C761.409 50.9738 760.657 49.7954 759.92 48.5821C759.65 48.1501 759.38 47.718 759.102 47.2729C748.119 29.4882 748.119 29.4882 749.14 22.9069C750.455 20.327 751.75 18.8602 754.385 17.6626C759.241 16.2055 764.004 15.8575 769.061 15.7688Z" fill="#F9AB00"/>
<path d="M733.353 39.4961C736.355 40.2565 737.939 42.5962 739.491 45.1235C739.72 45.5078 739.948 45.8922 740.184 46.2882C740.553 46.8957 740.553 46.8957 740.931 47.5155C741.457 48.3802 741.981 49.2463 742.502 50.1136C743.325 51.4746 744.158 52.8279 744.995 54.1797C746.354 56.3745 747.694 58.5792 749.025 60.7911C749.642 61.8104 750.273 62.8213 750.907 63.8306C752.954 67.2469 754.088 70.1768 753.221 74.1849C752.175 75.8947 751.506 76.7908 749.725 77.6811C748.123 77.9725 748.123 77.9725 746.229 77.6811C743.558 75.2973 741.717 72.1324 739.965 69.0499C739.72 68.625 739.474 68.2001 739.221 67.7623C738.444 66.4103 737.674 65.0541 736.906 63.6963C736.65 63.2449 736.394 62.7935 736.13 62.3284C734.639 59.6942 733.169 57.0498 731.722 54.3908C731.313 53.6372 730.9 52.8848 730.485 52.134C726.869 45.5639 726.869 45.5639 727.583 42.1365C729.061 39.7346 730.603 39.5398 733.353 39.4961Z" fill="#4285F4"/>
<path d="M597.462 19.4895C602.125 21.4877 605.048 26.1858 607.72 30.2766C607.989 30.6849 608.258 31.0932 608.536 31.5138C610.633 34.7204 612.587 37.9723 614.409 41.3425C614.611 41.6828 614.812 42.0232 615.019 42.3738C616.191 44.442 616.838 46.5925 616.193 48.9241C614.492 51.5456 612.39 52.5716 609.587 53.8299C609.173 54.0204 608.759 54.2109 608.333 54.4072C598.121 59.0461 598.121 59.0461 593.894 58.7357C590.266 56.0969 589.403 51.5183 588.459 47.3911C588.343 46.909 588.227 46.427 588.108 45.9303C586.613 39.5592 584.795 30.1579 587.874 24.1165C590.251 20.6744 593.254 18.4337 597.462 19.4895Z" fill="#F9AB00"/>
<path d="M483.912 0.0104139C485.454 1.3013 486.273 2.39312 486.551 4.41213C486.514 9.173 486.514 9.173 485.077 10.958C482.95 12.6097 480.883 13.479 478.172 13.3087C476.266 12.9211 475.074 11.9541 473.964 10.4025C472.924 8.33519 473.067 6.27639 473.371 4.0209C474.105 1.9165 475.27 0.559195 477.192 -0.558642C479.676 -1.6113 481.58 -1.22178 483.912 0.0104139Z" fill="#4285F4"/>
<path d="M107.241 6.43718C109.226 6.86493 110.467 7.96256 111.715 9.50121C112.591 11.5948 112.463 13.2403 111.715 15.3591C110.668 16.9298 109.829 17.6261 108.132 18.4587C106.119 18.8524 104.816 18.6236 102.985 17.6909C101.194 16.1495 100.481 15.1425 100.227 12.7714C100.484 10.3681 101.337 9.34856 102.985 7.62441C104.597 6.56004 105.367 6.30816 107.241 6.43718Z" fill="#F9AB00"/>
<path d="M637.641 5.24096C638.893 5.56482 639.354 5.87391 640.096 6.93141C640.312 7.96979 640.264 8.87866 639.776 9.84076C639.003 10.5748 638.439 10.4902 637.391 10.4725C636.903 10.4719 636.903 10.4719 636.404 10.4713C635.541 10.3479 635.541 10.3479 635.006 9.98201C634.446 9.12598 634.512 8.18612 634.687 7.21612C635.456 5.99581 636.135 5.21308 637.641 5.24096Z" fill="#E34937"/>
<path d="M16.4765 4.07689C17.7287 4.40075 18.1896 4.70985 18.9321 5.76734C19.1484 6.80573 19.0996 7.7146 18.6118 8.6767C17.8391 9.41073 17.2751 9.3261 16.2273 9.3084C15.7385 9.30785 15.7385 9.30785 15.2398 9.30729C14.3767 9.18384 14.3767 9.18384 13.8418 8.81794C13.2822 7.96192 13.3483 7.02205 13.5226 6.05205C14.2919 4.83175 14.9711 4.04902 16.4765 4.07689Z" fill="#E34937"/>
<path d="M849.156 47.78C850.408 48.1039 850.869 48.413 851.612 49.4705C851.828 50.5089 851.779 51.4177 851.291 52.3798C850.519 53.1139 849.955 53.0292 848.907 53.0115C848.418 53.011 848.418 53.011 847.919 53.0104C847.056 52.887 847.056 52.887 846.521 52.5211C845.962 51.665 846.028 50.7252 846.202 49.7552C846.972 48.5349 847.651 47.7521 849.156 47.78Z" fill="#E34937"/>
<path d="M753.594 -0.00123223C754.846 0.32263 755.307 0.631726 756.049 1.68922C756.266 2.72761 756.217 3.63647 755.729 4.59858C754.956 5.33261 754.392 5.24797 753.345 5.23027C752.856 5.22972 752.856 5.22972 752.357 5.22916C751.494 5.10571 751.494 5.10571 750.959 4.73982C750.399 3.88379 750.466 2.94393 750.64 1.97393C751.409 0.753626 752.088 -0.0291085 753.594 -0.00123223Z" fill="#E34937"/>
<g clip-path="url(#clip1_2001_11286)">
<path d="M730.718 11.8457L728.077 7.55849C728.029 7.48199 727.953 7.42762 727.865 7.40733C727.777 7.38704 727.684 7.40249 727.606 7.45029L725.292 8.87576L723.97 6.72998C723.923 6.65348 723.847 6.59911 723.759 6.57882C723.671 6.55853 723.578 6.57398 723.5 6.62178L719.151 9.30108C719.073 9.34887 719.018 9.42509 718.996 9.51298C718.974 9.60086 718.989 9.69321 719.036 9.7697L720.358 11.9155L717.884 13.4392L716.562 11.2934C716.515 11.2169 716.439 11.1625 716.351 11.1422C716.263 11.1219 716.17 11.1374 716.092 11.1852L711.744 13.864C711.666 13.9118 711.61 13.9881 711.589 14.0759C711.567 14.1638 711.582 14.2562 711.629 14.3327L712.951 16.4785L710.636 17.9044C710.558 17.9522 710.503 18.0284 710.481 18.1163C710.459 18.2042 710.474 18.2965 710.521 18.373L713.162 22.6602C713.209 22.7367 713.285 22.7911 713.373 22.8114C713.461 22.8317 713.555 22.8162 713.632 22.7684L715.947 21.3425L717.449 23.781L715.134 25.207C715.057 25.2548 715.001 25.331 714.979 25.4189C714.958 25.5068 714.972 25.5991 715.019 25.6756L717.66 29.9628C717.708 30.0393 717.784 30.0937 717.872 30.114C717.96 30.1343 718.053 30.1188 718.131 30.071L720.445 28.6451L721.767 30.7902C721.814 30.8667 721.89 30.921 721.978 30.9413C722.066 30.9616 722.159 30.9462 722.237 30.8984L726.586 28.2195C726.663 28.1717 726.719 28.0955 726.741 28.0076C726.762 27.9197 726.748 27.8274 726.701 27.7509L725.379 25.6058L727.853 24.0822L729.174 26.2272C729.221 26.3037 729.297 26.3581 729.385 26.3784C729.474 26.3987 729.567 26.3832 729.644 26.3354L733.994 23.6561C734.071 23.6083 734.127 23.5321 734.148 23.4442C734.17 23.3563 734.156 23.264 734.109 23.1875L732.787 21.0424L735.101 19.617C735.179 19.5692 735.234 19.4929 735.256 19.405C735.278 19.3172 735.263 19.2248 735.216 19.1483L732.575 14.8611C732.528 14.7846 732.452 14.7302 732.364 14.7099C732.276 14.6896 732.182 14.7051 732.105 14.7529L729.791 16.1784L728.289 13.7398L730.603 12.3144C730.68 12.2666 730.736 12.1903 730.757 12.1025C730.779 12.0146 730.765 11.9222 730.718 11.8457ZM724.856 19.2181L722.383 20.7418L720.881 18.3032L723.354 16.7796L724.856 19.2181Z" fill="#34A853" stroke="#0A2914" stroke-width="1.1654" stroke-linejoin="round"/>
</g>
<path d="M283.157 -2.51851C285.086 -1.35908 286.982 0.251899 287.663 2.46637C287.972 4.86842 287.675 7.26676 286.286 9.29101C283.875 12.2503 280.589 14.6722 277.529 16.9074C277.107 16.4851 276.685 16.0629 276.263 15.6406C275.965 15.3898 275.965 15.3898 275.661 15.1339C275.249 14.6272 275.249 14.6272 275.269 14.0314C275.583 13.1304 276.044 12.8234 276.801 12.252C277.824 11.4548 278.758 10.6488 279.654 9.71359C280.07 9.30001 280.507 8.94318 280.965 8.57846C281.986 7.71091 282.792 6.72692 283.356 5.50658C283.377 4.27834 283.077 3.44551 282.343 2.46637C281.412 1.62862 280.486 1.26594 279.255 1.07294C276.66 1.4133 274.96 3.43337 273.231 5.22552C272.646 5.83221 272.045 6.40153 271.401 6.94751C267.728 10.081 267.728 10.081 266.049 14.453C266.148 15.6185 266.371 16.0258 267.142 16.9074C267.961 17.5391 268.813 18.1105 269.676 18.6808C269.929 18.9342 269.929 18.9342 270.024 19.5201C269.929 20.2009 269.929 20.2009 269.422 20.7868C268.45 21.3335 267.708 21.4601 266.635 21.2143C264.452 20.2424 262.921 18.8327 262.009 16.6055C261.379 14.209 261.539 11.7404 262.775 9.579C263.878 8.06359 265.184 6.74009 266.497 5.4065C266.949 4.93722 267.364 4.44467 267.775 3.93897C268.831 2.70973 270.101 1.70497 271.34 0.66817C272.053 0.0705182 272.735 -0.553474 273.412 -1.19139C276.28 -3.70665 279.654 -4.19409 283.157 -2.51851Z" fill="#FFE7A5"/>
<path d="M270.438 12.0944C272.459 12.7447 273.902 14.204 274.983 15.9896C275.913 18.0236 275.876 20.4449 275.26 22.5679C274.401 24.4672 273.037 25.9246 271.593 27.397C270.891 28.1177 270.206 28.8548 269.52 29.5914C269.38 29.7407 269.24 29.89 269.096 30.0438C268.263 30.9409 267.478 31.8608 266.717 32.8217C265.181 34.7292 263.371 36.8705 260.813 37.2512C260.277 37.287 259.749 37.2946 259.212 37.287C259.022 37.285 258.833 37.2831 258.638 37.2812C256.193 37.2085 254.24 36.3123 252.45 34.6426C250.984 32.9903 250.524 31.3256 250.565 29.1273C250.884 26.7908 252.239 25.0045 253.97 23.4952C254.169 23.2966 254.367 23.098 254.572 22.8935C254.792 22.674 255.011 22.4545 255.237 22.2284C255.415 22.0472 255.594 21.8659 255.777 21.6792C257.84 19.5928 257.84 19.5928 258.784 18.9349C258.951 18.9349 259.118 18.9349 259.291 18.9349C259.655 19.3426 259.655 19.3426 260.051 19.8849C260.181 20.0613 260.312 20.2376 260.447 20.4193C260.785 20.9239 261.06 21.4254 261.318 21.9751C261.119 22.171 260.92 22.367 260.715 22.5689C258.519 24.7223 258.519 24.7223 256.504 27.0421C256.373 27.2051 256.242 27.368 256.107 27.5359C255.44 28.4606 255.144 29.1192 255.221 30.2723C255.401 31.2506 255.665 31.7802 256.504 32.3625C257.545 32.9407 258.636 33.1526 259.797 32.8692C261.974 31.6187 263.757 29.7962 265.511 28.0282C265.941 27.5964 266.375 27.1695 266.81 26.7427C270.07 23.5124 270.07 23.5124 271.277 19.2357C271.258 17.8979 271.165 17.1283 270.185 16.148C269.608 15.7825 269.028 15.4588 268.417 15.1544C267.905 14.8812 267.905 14.8812 267.398 14.3745C267.27 13.5642 267.329 13.2145 267.778 12.5219C268.663 11.9244 269.419 11.9143 270.438 12.0944Z" fill="#FFE7A5"/>
</g>
<defs>
<clipPath id="clip0_2001_11286">
<rect width="895.61" height="51" fill="white"/>
</clipPath>
<clipPath id="clip1_2001_11286">
<rect width="21.1463" height="20.5244" fill="white" transform="translate(708.398 15.5488) rotate(-31.6337)"/>
</clipPath>
</defs>
</svg>
