<svg width="222" height="133" viewBox="0 0 222 133" fill="none" xmlns="http://www.w3.org/2000/svg">
<path d="M130.679 81.2052L176.149 49.6148C185.329 43.2368 197.942 45.5085 204.32 54.6887C210.698 63.869 208.426 76.4814 199.246 82.8594L153.776 114.45C144.595 120.828 131.983 118.556 125.605 109.376C119.227 100.196 121.499 87.5832 130.679 81.2052Z" fill="#F8AD00" stroke="black" stroke-width="1.09755"/>
<path d="M200.054 47.002L154.584 15.4117C145.404 9.03367 132.792 11.3053 126.414 20.4856C120.036 29.6658 122.307 42.2783 131.488 48.6563L176.958 80.2467C186.138 86.6247 198.75 84.353 205.128 75.1727C211.506 65.9925 209.235 53.38 200.054 47.002Z" fill="#38A952" stroke="black" stroke-width="1.09755"/>
<path d="M89.9259 48.5536L44.4559 80.144C35.2756 86.522 22.6632 84.2503 16.2852 75.0701C9.90719 65.8898 12.1789 53.2774 21.3591 46.8994L66.8292 15.309C76.0094 8.931 88.6219 11.2027 94.9999 20.3829C101.378 29.5632 99.1062 42.1756 89.9259 48.5536Z" fill="#E8443D" stroke="black" stroke-width="1.09755"/>
<path d="M20.5508 82.7691L66.0207 114.36C75.2009 120.738 87.8134 118.466 94.1914 109.286C100.569 100.106 98.2978 87.4933 89.1176 81.1152L43.6478 49.5246C34.4675 43.1466 21.8551 45.4182 15.477 54.5984C9.09899 63.7786 11.3706 76.3911 20.5508 82.7691Z" fill="#3F86F9" stroke="black" stroke-width="1.09755"/>
</svg>
