<?xml version="1.0" encoding="utf-8"?>
<svg width="1900" height="548" viewBox="0 0 1900 548" fill="none" xmlns="http://www.w3.org/2000/svg">
  <defs>
    <clipPath id="clip_path_1">
      <rect width="544" height="143" />
    </clipPath>
  </defs>
  <g>
    <rect width="1900" height="548" />
    <g id="Group">
      <g>
        <rect width="1899.997" height="548" />
        <g id="Group" transform="translate(7.871 8.979)">
          <path id="Path" d="M5.72733 312.623C5.72733 312.623 27.9126 312.623 27.9126 312.623C35.8205 312.623 42.23 319.029 42.23 326.931C42.23 326.931 42.23 458.502 42.23 458.502C42.23 498.013 74.2806 530.042 113.818 530.042C113.818 530.042 171.073 530.042 171.073 530.042C174.236 530.042 176.8 527.479 176.8 524.318C176.8 524.318 176.8 444.049 176.8 444.049C176.8 440.888 174.236 438.326 171.072 438.326C171.072 438.326 127.125 438.326 127.125 438.326C119.217 438.326 112.808 431.92 112.808 424.017C112.808 424.017 112.808 106.025 112.808 106.025C112.808 98.122 119.217 91.7158 127.125 91.7158C127.125 91.7158 171.074 91.7158 171.074 91.7158C174.236 91.7158 176.8 89.154 176.8 85.9933C176.8 85.9933 176.8 5.72349 176.8 5.72349C176.8 2.56288 174.236 0 171.073 0C171.073 0 113.818 0 113.818 0C74.2806 0 42.23 32.029 42.23 71.5397C42.23 71.5397 42.23 203.023 42.23 203.023C42.23 210.925 35.8205 217.331 27.9126 217.331C27.9126 217.331 5.72736 217.331 5.72736 217.331C2.56461 217.331 0 219.893 0 223.054C0 223.054 0 306.9 0 306.9C0 310.061 2.56461 312.623 5.72736 312.623C5.72736 312.623 5.72733 312.623 5.72733 312.623Z" fill="#F8AB00" transform="translate(0 0)" />
          <path id="Path" d="M5.72733 312.623C5.72733 312.623 27.9126 312.623 27.9126 312.623C35.8205 312.623 42.23 319.029 42.23 326.931C42.23 326.931 42.23 458.502 42.23 458.502C42.23 498.013 74.2806 530.042 113.818 530.042C113.818 530.042 171.073 530.042 171.073 530.042C174.236 530.042 176.8 527.479 176.8 524.318C176.8 524.318 176.8 444.049 176.8 444.049C176.8 440.888 174.236 438.326 171.072 438.326C171.072 438.326 127.125 438.326 127.125 438.326C119.217 438.326 112.808 431.92 112.808 424.017C112.808 424.017 112.808 106.025 112.808 106.025C112.808 98.122 119.217 91.7158 127.125 91.7158C127.125 91.7158 171.074 91.7158 171.074 91.7158C174.236 91.7158 176.8 89.154 176.8 85.9933C176.8 85.9933 176.8 5.72349 176.8 5.72349C176.8 2.56288 174.236 0 171.073 0C171.073 0 113.818 0 113.818 0C74.2806 0 42.23 32.029 42.23 71.5397C42.23 71.5397 42.23 203.023 42.23 203.023C42.23 210.925 35.8205 217.331 27.9126 217.331C27.9126 217.331 5.72736 217.331 5.72736 217.331C2.56461 217.331 0 219.893 0 223.054C0 223.054 0 306.9 0 306.9C0 310.061 2.56461 312.623 5.72736 312.623C5.72736 312.623 5.72733 312.623 5.72733 312.623Z" fill="none" stroke-width="10" stroke="#1E1E1E" transform="translate(0 0)" />
          <path id="Path" d="M171.073 217.419C171.073 217.419 148.888 217.419 148.888 217.419C140.98 217.419 134.571 211.013 134.571 203.111C134.571 203.111 134.571 71.5397 134.571 71.5397C134.571 32.029 102.519 0 62.9828 0C62.9828 0 5.72729 0 5.72729 0C2.56458 0 0 2.56288 0 5.72349C0 5.72349 0.000976562 85.9933 0.000976562 85.9933C0.000976562 89.154 2.56458 91.7168 5.72729 91.7168C5.72729 91.7168 49.6757 91.7168 49.6757 91.7168C57.5826 91.7168 63.993 98.122 63.993 106.025C63.993 106.025 63.993 424.017 63.993 424.017C63.993 431.92 57.5836 438.326 49.6757 438.326C49.6757 438.326 5.72729 438.326 5.72729 438.326C2.56458 438.326 0.000976562 440.888 0.000976562 444.049C0.000976562 444.049 0.000976562 524.318 0.000976562 524.318C0.000976562 527.48 2.56458 530.042 5.72827 530.042C5.72827 530.042 62.9828 530.042 62.9828 530.042C102.52 530.042 134.571 498.013 134.571 458.502C134.571 458.502 134.571 327.019 134.571 327.019C134.571 319.117 140.98 312.711 148.888 312.711C148.888 312.711 171.073 312.711 171.073 312.711C174.236 312.711 176.801 310.149 176.801 306.988C176.801 306.988 176.801 223.142 176.801 223.142C176.801 219.981 174.236 217.419 171.073 217.419C171.073 217.419 171.073 217.419 171.073 217.419Z" fill="#F8AB00" transform="translate(1707.454 0)" />
          <path id="Path" d="M171.073 217.419C171.073 217.419 148.888 217.419 148.888 217.419C140.98 217.419 134.571 211.013 134.571 203.111C134.571 203.111 134.571 71.5397 134.571 71.5397C134.571 32.029 102.519 0 62.9828 0C62.9828 0 5.72729 0 5.72729 0C2.56458 0 0 2.56288 0 5.72349C0 5.72349 0.000976562 85.9933 0.000976562 85.9933C0.000976562 89.154 2.56458 91.7168 5.72729 91.7168C5.72729 91.7168 49.6757 91.7168 49.6757 91.7168C57.5826 91.7168 63.993 98.122 63.993 106.025C63.993 106.025 63.993 424.017 63.993 424.017C63.993 431.92 57.5836 438.326 49.6757 438.326C49.6757 438.326 5.72729 438.326 5.72729 438.326C2.56458 438.326 0.000976562 440.888 0.000976562 444.049C0.000976562 444.049 0.000976562 524.318 0.000976562 524.318C0.000976562 527.48 2.56458 530.042 5.72827 530.042C5.72827 530.042 62.9828 530.042 62.9828 530.042C102.52 530.042 134.571 498.013 134.571 458.502C134.571 458.502 134.571 327.019 134.571 327.019C134.571 319.117 140.98 312.711 148.888 312.711C148.888 312.711 171.073 312.711 171.073 312.711C174.236 312.711 176.801 310.149 176.801 306.988C176.801 306.988 176.801 223.142 176.801 223.142C176.801 219.981 174.236 217.419 171.073 217.419C171.073 217.419 171.073 217.419 171.073 217.419Z" fill="none" stroke-width="10" stroke="#1E1E1E" transform="translate(1707.454 0)" />
          <g id="Group" transform="translate(258.527 0)">
            <path id="Shape" d="M165.23 176.743C158.705 189.536 148.92 199.435 135.876 206.445C122.826 213.457 106.58 216.961 87.1377 216.961C87.1377 216.961 49.8458 216.961 49.8458 216.961L49.8458 47.2303C49.8458 47.2303 87.1377 47.2303 87.1377 47.2303C106.58 47.2303 122.826 50.7348 135.876 57.7467C148.92 64.7566 158.705 74.5983 165.23 87.2648C171.75 99.9362 175.014 114.881 175.014 132.096C175.014 149.069 171.75 163.954 165.23 176.743C165.23 176.743 165.23 176.743 165.23 176.743ZM161.907 16.7896C141.6 5.59855 117.415 0 89.3542 0C89.3542 0 0 0 0 0L0 264.191C0 264.191 89.3542 264.191 89.3542 264.191C117.415 264.191 141.6 258.656 161.907 247.587C182.215 236.517 197.844 221.02 208.799 201.095C219.75 181.171 225.229 158.172 225.229 132.096C225.229 106.025 219.75 83.0846 208.799 63.2803C197.844 43.483 182.215 27.9848 161.907 16.7897C161.907 16.7897 161.907 16.7896 161.907 16.7896Z" fill="#1E1E1E" />
            <path id="Shape" d="M49.3527 77.1172C50.36 73.6597 51.6212 70.3922 53.1696 67.3395C57.5996 58.6103 63.6921 51.7843 71.4459 46.8605C79.2007 41.9426 87.7508 39.4807 97.1079 39.4807C104.245 39.4807 110.585 40.6512 116.123 42.9872C121.661 45.3262 126.399 48.3368 130.339 52.0262C134.274 55.7166 137.353 59.7748 139.57 64.2029C141.785 68.631 143.014 72.9371 143.262 77.1172C143.262 77.1172 49.3527 77.1172 49.3527 77.1172ZM147.693 12.9143C133.905 4.30611 116.92 0 96.7389 0C78.0285 0 61.4135 4.61298 46.8931 13.8379C32.3657 23.0609 20.92 35.3015 12.554 50.5499C4.183 65.8052 0 82.4099 0 100.362C0 119.551 4.246 136.65 12.738 151.652C21.231 166.659 32.9198 178.466 47.8153 187.074C62.7058 195.68 79.6278 199.988 98.5843 199.988C119.504 199.988 137.105 195.496 151.385 186.519C165.658 177.544 177.231 165.304 186.093 149.807C186.093 149.807 146.954 130.619 146.954 130.619C142.524 138.247 136.367 144.584 128.492 149.621C120.612 154.666 110.89 157.186 99.3225 157.186C89.4752 157.186 80.5501 154.914 72.5542 150.36C64.5523 145.811 58.2118 139.17 53.5387 130.435C50.5599 124.878 48.5405 118.538 47.4583 111.433C47.4583 111.433 188.677 111.433 188.677 111.433C188.919 110.204 189.168 108.175 189.416 105.345C189.657 102.519 189.785 99.1356 189.785 95.1973C189.785 77.7339 186.213 61.8039 179.076 47.4132C171.936 33.0235 161.475 21.5286 147.693 12.9143C147.693 12.9143 147.693 12.9143 147.693 12.9143Z" fill="#1E1E1E" transform="translate(249.227 70.107)" />
          </g>
        </g>
      </g>
      <path id="Group" d="M281.903 264.19L232.057 264.19L232.057 0L399.688 0L399.688 47.2293L281.903 47.2293L281.903 111.431L387.872 111.431L387.872 158.662L281.903 158.662L281.903 264.19ZM102.645 198.512L105.599 198.512L153.969 76.0098L208.245 76.0098L127.753 264.19L79.7539 264.19L0 76.0098L55.0161 76.0098L102.645 198.512Z" fill="#1E1E1E" fill-rule="evenodd" transform="translate(706.739 8.979)" />
      <g>
        <rect width="1899.997" height="548" />
        <g id="Group" transform="translate(265.568 31.857)">
          <g id="Group" transform="translate(855.444 0)">
            <path id="Shape" d="M49.3518 77.1172C50.359 73.6597 51.6203 70.3922 53.1687 67.3395C57.5987 58.6103 63.6912 51.7843 71.445 46.8605C79.1999 41.9426 87.7499 39.4807 97.1071 39.4807C104.244 39.4807 110.584 40.6512 116.123 42.9872C121.661 45.3262 126.398 48.3368 130.338 52.0262C134.273 55.7166 137.353 59.7748 139.569 64.2029C141.784 68.631 143.013 72.9371 143.261 77.1172C143.261 77.1172 49.3518 77.1172 49.3518 77.1172ZM147.692 12.9143C133.904 4.30611 116.919 0 96.738 0C78.0275 0 61.4126 4.61298 46.8922 13.8379C32.3647 23.0609 20.919 35.3015 12.553 50.5499C4.183 65.8052 0 82.4099 0 100.362C0 119.551 4.24502 136.65 12.737 151.652C21.23 166.659 32.9188 178.466 47.8143 187.074C62.7048 195.68 79.6269 199.988 98.5833 199.988C119.503 199.988 137.104 195.496 151.384 186.519C165.657 177.544 177.23 165.304 186.092 149.807C186.092 149.807 146.953 130.619 146.953 130.619C142.523 138.247 136.366 144.584 128.491 149.621C120.61 154.666 110.889 157.186 99.3214 157.186C89.4741 157.186 80.549 154.914 72.5531 150.36C64.5512 145.811 58.2117 139.17 53.5376 130.435C50.5588 124.878 48.5394 118.538 47.4572 111.433C47.4572 111.433 188.676 111.433 188.676 111.433C188.918 110.204 189.167 108.175 189.415 105.345C189.656 102.519 189.784 99.1356 189.784 95.1973C189.784 77.7339 186.212 61.8039 179.075 47.4132C171.935 33.0235 161.474 21.5286 147.692 12.9143C147.692 12.9143 147.692 12.9143 147.692 12.9143Z" fill="#1E1E1E" transform="translate(0 47.229)" />
            <path id="Path" d="M108.554 81.9141C108.554 81.9141 80.8611 75.272 80.8611 75.272C73.9675 73.5538 68.0591 70.9719 63.1389 67.5234C58.2107 64.0809 55.7531 60.0227 55.7531 55.3468C55.7531 50.9197 58.2107 47.1084 63.1389 43.9088C68.059 40.7152 74.7056 39.1119 83.0765 39.1119C90.2133 39.1119 96.9229 40.5882 103.2 43.5399C109.477 46.4916 114.582 51.6574 118.522 59.0372C118.522 59.0372 159.877 40.9571 159.877 40.9571C155.446 31.6112 149.538 23.9265 142.154 17.8962C134.769 11.8708 126.028 7.37977 115.938 4.42706C105.842 1.47635 94.5222 0 81.9683 0C68.4281 0 56.0602 2.34098 44.8615 7.01093C33.6577 11.6869 24.7957 18.206 18.2772 26.5664C11.7516 34.9317 8.49286 44.7734 8.49286 56.0854C8.49286 66.175 11.0125 75.0881 16.0607 82.8367C21.1039 90.5843 27.6915 96.9845 35.8154 102.022C43.9383 107.067 52.5514 110.574 61.6614 112.539C61.6614 112.539 83.8157 117.336 83.8157 117.336C88.9849 118.321 94.0271 119.613 98.9534 121.211C103.876 122.813 107.999 125.026 111.323 127.852C114.646 130.683 116.307 134.556 116.307 139.475C116.307 146.365 113.106 151.098 106.707 153.681C100.303 156.265 93.1669 157.555 85.2911 157.555C75.6917 157.555 67.3198 155.283 60.1842 150.729C53.0425 146.18 47.3822 139.475 43.1992 130.619C43.1992 130.619 0 149.438 0 149.438C3.44478 158.542 8.73413 166.907 15.8768 174.529C23.0135 182.155 32.3077 188.308 43.7544 192.977C55.2001 197.647 69.0454 199.988 85.2912 199.988C100.062 199.988 113.474 197.463 125.539 192.424C137.597 187.385 147.196 180.247 154.339 171.023C161.474 161.798 165.045 151.041 165.045 138.736C165.045 124.964 160.304 113.156 150.83 103.315C141.351 93.4791 127.257 86.3422 108.554 81.9142C108.554 81.9142 108.554 81.9141 108.554 81.9141Z" fill="#1E1E1E" transform="translate(205.919 47.229)" />
            <path id="Path" d="M115.938 197.22C112.489 198.327 108.795 198.88 104.861 198.88C96.4899 198.88 90.4605 196.729 86.7686 192.423C83.0757 188.123 81.2293 181.417 81.2293 172.313C81.2293 172.313 81.2293 94.4586 81.2293 94.4586L127.383 94.4586L127.383 53.1327L81.2293 53.1327L81.2293 0L32.8608 0L32.8608 53.1327L0 53.1327L0 94.4586L32.8608 94.4586C32.8608 94.4586 32.8608 181.169 32.8608 181.169C32.8608 200.852 38.4001 216.286 49.4757 227.476C60.5523 238.672 75.813 244.264 95.2606 244.264C101.169 244.264 106.891 243.711 112.431 242.604C117.968 241.497 123.443 239.964 128.861 237.993C128.861 237.993 128.861 190.762 128.861 190.762C123.691 193.962 119.381 196.112 115.938 197.22C115.938 197.22 115.938 197.22 115.938 197.22Z" fill="#1E1E1E" transform="translate(385.325 0)" />
          </g>
          <path id="Path" d="M97.6742 195.217C97.6742 195.217 1269.29 195.217 1269.29 195.217C1323.23 195.217 1366.96 151.516 1366.96 97.6083C1366.96 97.6083 1366.96 97.6083 1366.96 97.6083C1366.96 43.7009 1323.23 0 1269.29 0C1269.29 0 97.6741 0 97.6741 0C43.7304 0 0 43.7009 0 97.6083C0 97.6083 0 97.6083 0 97.6083C0 151.516 43.7304 195.217 97.6741 195.217C97.6741 195.217 97.6742 195.217 97.6742 195.217Z" fill="#FFFFFF" transform="translate(0 311.948)" />
          <path id="Path" d="M97.6742 195.217C97.6742 195.217 1269.29 195.217 1269.29 195.217C1323.23 195.217 1366.96 151.516 1366.96 97.6083C1366.96 97.6083 1366.96 97.6083 1366.96 97.6083C1366.96 43.7009 1323.23 0 1269.29 0C1269.29 0 97.6741 0 97.6741 0C43.7304 0 0 43.7009 0 97.6083C0 97.6083 0 97.6083 0 97.6083C0 151.516 43.7304 195.217 97.6741 195.217C97.6741 195.217 97.6742 195.217 97.6742 195.217Z" fill="none" stroke-width="10" stroke="#1E1E1E" stroke-linejoin="round" transform="translate(0 311.948)" />
        </g>
      </g>
      <path d="M70.8184 86.9695Q72.939 80.1392 72.939 71.8047Q72.939 60.5112 69.1909 52.2014Q65.4429 43.8916 58.0454 39.3052Q50.6479 34.7188 39.6997 34.7188Q28.3569 34.7188 20.8855 39.3298Q13.4141 43.9409 9.76465 52.2754Q6.11523 60.6099 6.11523 71.7061Q6.11523 80.0405 8.16187 86.8955Q10.2085 93.7505 14.3511 98.6821Q18.4937 103.614 24.7815 106.277Q31.0693 108.94 39.5518 108.94Q47.8862 108.94 54.1248 106.277Q60.3633 103.614 64.5305 98.7068Q68.6978 93.7998 70.8184 86.9695ZM19.1594 86.9695Q16.7183 80.583 16.7183 71.8047Q16.7183 62.9771 19.1841 56.6399Q21.6499 50.3027 26.7295 46.8752Q31.8091 43.4478 39.6997 43.4478Q51.437 43.4478 56.8618 50.9685Q62.2866 58.4893 62.2866 71.8047Q62.2866 80.583 59.9194 86.9695Q57.5522 93.356 52.522 96.8328Q47.4917 100.31 39.5518 100.31Q31.7104 100.31 26.6555 96.8328Q21.6006 93.356 19.1594 86.9695ZM86.0818 128.223Q91.9258 132.217 102.825 132.217Q116.929 132.217 124.425 127.286Q131.921 122.354 131.921 113.23Q131.921 106.03 127.187 102.282Q122.453 98.5342 113.576 98.5342L104.107 98.5342Q101.493 98.5342 99.6685 98.115Q97.8438 97.6958 96.8821 96.8081Q95.9204 95.9204 95.9204 94.4902Q95.9204 92.6162 97.0054 91.1614Q98.0903 89.7065 100.211 88.4736Q102.578 88.8188 104.896 88.8682Q114.858 88.8682 120.505 84.0598Q126.151 79.2515 126.151 70.9663Q126.151 67.9087 125.264 65.3442Q124.376 62.7798 122.946 60.9058L132.612 59.4263L132.612 53.5576L113.872 53.5576Q112.984 53.311 111.554 53.0645Q110.124 52.8179 108.545 52.6946Q106.967 52.5713 105.488 52.5713Q98.7808 52.5713 94.0957 54.7412Q89.4106 56.9111 86.9202 61.0537Q84.4297 65.1963 84.4297 71.0649Q84.4297 76.5884 87.0435 80.7063Q89.6572 84.8242 93.9478 86.5996Q90.5449 88.6709 88.8435 90.8655Q87.1421 93.0601 87.1421 96.0684Q87.1421 98.6328 88.6956 100.679Q90.249 102.726 92.4189 103.712Q86.6489 104.945 83.4434 108.471Q80.2378 111.998 80.2378 117.077Q80.2378 124.228 86.0818 128.223ZM113.526 79.2268Q110.814 82.1118 105.34 82.1118Q100.063 82.1118 97.252 79.2268Q94.4409 76.3418 94.4409 71.0649Q94.4409 65.3442 97.2273 62.3606Q100.014 59.377 105.291 59.377Q110.715 59.377 113.477 62.2866Q116.239 65.1963 116.239 70.9663Q116.239 76.3418 113.526 79.2268ZM113.798 123.686Q109.532 124.968 103.17 124.968Q96.6602 124.968 93.134 122.798Q89.6079 120.628 89.6079 116.535Q89.6079 113.526 91.0381 111.48Q92.4683 109.433 95.0327 108.348Q97.5972 107.263 101.049 107.263L110.025 107.263Q114.069 107.263 116.831 107.806Q119.592 108.348 120.998 109.902Q122.403 111.455 122.403 114.414Q122.403 117.669 120.233 120.036Q118.063 122.403 113.798 123.686ZM152.733 50.0562L152.733 31.2173L142.82 31.2173L142.82 107.954L150.168 107.954L152.042 101L152.782 101Q155.001 104.255 158.947 106.597Q162.892 108.94 169.254 108.94Q175.961 108.94 180.917 105.734Q185.874 102.529 188.611 96.2163Q191.348 89.9038 191.348 80.731Q191.348 66.8237 185.38 59.7468Q179.413 52.6699 169.5 52.6699Q163.089 52.6699 159.021 55.1604Q154.952 57.6509 152.733 61.2017L152.24 61.2017Q152.388 59.5249 152.56 56.418Q152.733 53.311 152.733 50.0562ZM158.725 62.9277Q161.906 60.8071 167.281 60.8071Q174.186 60.8071 177.687 65.7881Q181.188 70.769 181.188 80.6323Q181.188 90.3477 177.662 95.5752Q174.136 100.803 167.331 100.803Q159.045 100.803 155.889 95.6738Q152.733 90.5449 152.733 80.8789L152.733 80.1392Q152.782 73.6294 154.163 69.3389Q155.544 65.0483 158.725 62.9277ZM250.897 92.6409Q252.648 87.3887 252.648 80.6816Q252.648 71.7554 249.492 65.4922Q246.335 59.229 240.664 55.9248Q234.993 52.6206 227.497 52.6206Q219.606 52.6206 213.91 55.9001Q208.214 59.1797 205.156 65.4675Q202.099 71.7554 202.099 80.6816Q202.099 87.3887 203.923 92.6409Q205.748 97.8931 209.102 101.518Q212.455 105.143 217.066 107.041Q221.677 108.94 227.201 108.94Q233.119 108.94 237.804 107.041Q242.489 105.143 245.818 101.518Q249.146 97.8931 250.897 92.6409ZM213.861 91.4573Q212.258 86.9448 212.258 80.6816Q212.258 71.2622 215.883 66.0593Q219.507 60.8564 227.299 60.8564Q232.625 60.8564 235.954 63.2236Q239.283 65.5908 240.861 70.0293Q242.439 74.4678 242.439 80.6816Q242.439 86.9448 240.861 91.4573Q239.283 95.9697 235.93 98.3862Q232.576 100.803 227.398 100.803Q222.121 100.803 218.792 98.3862Q215.463 95.9697 213.861 91.4573ZM340.209 57.3303Q335.598 52.6206 326.573 52.6206Q321.247 52.6206 316.636 54.8152Q312.025 57.0098 309.411 61.5962L308.77 61.5962Q306.797 57.0591 302.605 54.8398Q298.414 52.6206 292.298 52.6206Q288.896 52.6206 285.838 53.5823Q282.78 54.5439 280.29 56.418Q277.799 58.292 276.172 61.103L275.629 61.103L274.199 53.6069L266.358 53.6069L266.358 107.954L276.271 107.954L276.271 79.9912Q276.271 73.7773 277.627 69.4868Q278.983 65.1963 282.016 63.0017Q285.049 60.8071 290.128 60.8071Q293.679 60.8071 295.997 62.2373Q298.315 63.6675 299.499 66.5032Q300.682 69.3389 300.682 73.6294L300.682 107.954L310.545 107.954L310.545 78.3638Q310.545 69.7334 313.825 65.2703Q317.104 60.8071 324.502 60.8071Q329.729 60.8071 332.368 64.0127Q335.006 67.2183 335.006 73.6294L335.006 107.954L344.82 107.954L344.82 72.3965Q344.82 62.04 340.209 57.3303ZM407.033 92.6409Q408.784 87.3887 408.784 80.6816Q408.784 71.7554 405.627 65.4922Q402.471 59.229 396.8 55.9248Q391.128 52.6206 383.632 52.6206Q375.742 52.6206 370.046 55.9001Q364.35 59.1797 361.292 65.4675Q358.234 71.7554 358.234 80.6816Q358.234 87.3887 360.059 92.6409Q361.884 97.8931 365.237 101.518Q368.591 105.143 373.202 107.041Q377.813 108.94 383.336 108.94Q389.254 108.94 393.939 107.041Q398.625 105.143 401.953 101.518Q405.282 97.8931 407.033 92.6409ZM369.996 91.4573Q368.394 86.9448 368.394 80.6816Q368.394 71.2622 372.018 66.0593Q375.643 60.8564 383.435 60.8564Q388.761 60.8564 392.09 63.2236Q395.419 65.5908 396.997 70.0293Q398.575 74.4678 398.575 80.6816Q398.575 86.9448 396.997 91.4573Q395.419 95.9697 392.065 98.3862Q388.712 100.803 383.534 100.803Q378.257 100.803 374.928 98.3862Q371.599 95.9697 369.996 91.4573ZM455.758 101.666Q458.347 98.041 458.347 92.7642Q458.347 88.2271 456.374 85.3174Q454.401 82.4077 450.777 80.3857Q447.152 78.3638 442.171 76.4897Q437.141 74.5664 434.182 73.1609Q431.223 71.7554 429.965 70.2759Q428.708 68.7964 428.708 66.5771Q428.708 63.7168 431.395 62.0894Q434.083 60.4619 439.163 60.4619Q443.059 60.4619 446.807 61.4729Q450.555 62.4839 454.105 64.0127L457.311 56.3687Q453.316 54.5933 448.952 53.6069Q444.587 52.6206 439.656 52.6206Q430.384 52.6206 424.738 56.344Q419.091 60.0674 419.091 67.1196Q419.091 71.6567 421.014 74.5171Q422.938 77.3774 426.612 79.3994Q430.286 81.4214 435.464 83.4434Q440.741 85.4653 443.576 87.0188Q446.412 88.5723 447.546 90.1257Q448.681 91.6792 448.681 93.7012Q448.681 97.1533 445.845 99.1753Q443.009 101.197 436.647 101.197Q432.11 101.197 427.376 99.8657Q422.642 98.5342 419.042 96.8081L419.042 105.586Q422.395 107.214 426.538 108.077Q430.68 108.94 436.401 108.94Q443.305 108.94 448.237 107.115Q453.168 105.291 455.758 101.666ZM516.91 92.6409Q518.661 87.3887 518.661 80.6816Q518.661 71.7554 515.504 65.4922Q512.348 59.229 506.677 55.9248Q501.005 52.6206 493.509 52.6206Q485.619 52.6206 479.923 55.9001Q474.227 59.1797 471.169 65.4675Q468.111 71.7554 468.111 80.6816Q468.111 87.3887 469.936 92.6409Q471.761 97.8931 475.114 101.518Q478.468 105.143 483.079 107.041Q487.69 108.94 493.213 108.94Q499.131 108.94 503.816 107.041Q508.501 105.143 511.83 101.518Q515.159 97.8931 516.91 92.6409ZM479.873 91.4573Q478.271 86.9448 478.271 80.6816Q478.271 71.2622 481.895 66.0593Q485.52 60.8564 493.312 60.8564Q498.638 60.8564 501.967 63.2236Q505.296 65.5908 506.874 70.0293Q508.452 74.4678 508.452 80.6816Q508.452 86.9448 506.874 91.4573Q505.296 95.9697 501.942 98.3862Q498.589 100.803 493.411 100.803Q488.134 100.803 484.805 98.3862Q481.476 95.9697 479.873 91.4573Z" fill="#1E1E1E" clip-path="url(#clip_path_1)" transform="translate(677 367)" />
    </g>
  </g>
</svg>