<svg width="186" height="53" viewBox="0 0 186 53" fill="none" xmlns="http://www.w3.org/2000/svg">
<path d="M1.33138 31.15H3.50464C4.27801 31.15 4.90453 31.7765 4.90453 32.5499V45.4328C4.90453 49.3095 8.03717 52.4421 11.9138 52.4421H17.5134C17.8266 52.4421 18.0714 52.1974 18.0714 51.8841V44.0232C18.0714 43.7099 17.8266 43.4652 17.5134 43.4652H13.2158C12.4424 43.4652 11.8159 42.8386 11.8159 42.0555V10.9152C11.8159 10.1418 12.4424 9.51527 13.2158 9.51527H17.5134C17.8266 9.51527 18.0714 9.26075 18.0714 8.95727V1.09632C18.0714 0.78306 17.8266 0.528534 17.5134 0.528534H11.9138C8.03717 0.528534 4.90453 3.67096 4.90453 7.5378V20.4207C4.90453 21.1941 4.27801 21.8206 3.50464 21.8206H1.33138C1.01811 21.8206 0.773376 22.0654 0.773376 22.3786V30.592C0.773376 30.8955 1.01811 31.15 1.33138 31.15Z" fill="#F9AB00" stroke="#1E1E1E" stroke-width="0.93979" stroke-miterlimit="10"/>
<path d="M184.629 21.8304H182.456C181.683 21.8304 181.056 21.1941 181.056 20.4207V7.5378C181.056 3.67096 177.914 0.528534 174.047 0.528534H168.438C168.134 0.528534 167.88 0.78306 167.88 1.09632V8.95727C167.88 9.26075 168.134 9.51527 168.438 9.51527H172.745C173.518 9.51527 174.145 10.1418 174.145 10.9152V42.0555C174.145 42.8386 173.518 43.4652 172.745 43.4652H168.438C168.134 43.4652 167.88 43.7099 167.88 44.0232V51.8841C167.88 52.1974 168.134 52.4421 168.438 52.4421H174.047C177.914 52.4421 181.056 49.3095 181.056 45.4328V32.5597C181.056 31.7863 181.683 31.1598 182.456 31.1598H184.629C184.933 31.1598 185.187 30.9053 185.187 30.6018V22.3884C185.187 22.0752 184.933 21.8304 184.629 21.8304Z" fill="#F9AB00" stroke="#1E1E1E" stroke-width="0.93979" stroke-miterlimit="10"/>
<path fill-rule="evenodd" clip-rule="evenodd" d="M46.5098 6.73506C47.5801 8.67338 48.1153 10.9184 48.1153 13.4702C48.1153 16.022 47.5801 18.2736 46.5098 20.225C45.4395 22.1763 43.9091 23.6937 41.9185 24.7771C39.928 25.8604 37.5622 26.4021 34.8212 26.4021H26.0694V0.528534H34.8212C37.5622 0.528534 39.928 1.07674 41.9185 2.17317C43.9091 3.26959 45.4395 4.79022 46.5098 6.73506ZM43.2009 13.4702C43.2009 11.7864 42.8812 10.3213 42.2416 9.07474C41.602 7.83474 40.6459 6.87211 39.3733 6.18685C38.0941 5.50159 36.5049 5.15895 34.6058 5.15895H30.9543V21.7815H34.6058C36.5049 21.7815 38.0941 21.4389 39.3733 20.7536C40.6459 20.0683 41.602 19.0992 42.2416 17.8461C42.8812 16.5931 43.2009 15.1344 43.2009 13.4702Z" fill="#1E1E1E"/>
<path fill-rule="evenodd" clip-rule="evenodd" d="M67.9879 12.041C68.6862 13.4506 69.0354 15.0104 69.0354 16.7203C69.0354 17.1054 69.0256 17.4382 69.006 17.7188C68.9799 17.993 68.9538 18.192 68.9277 18.316H55.1049C55.2159 19.0078 55.4149 19.6278 55.7021 20.176C56.1589 21.031 56.7789 21.6803 57.5621 22.1241C58.3452 22.5679 59.2198 22.7898 60.1857 22.7898C61.3147 22.7898 62.2676 22.5451 63.0442 22.0556C63.8143 21.5596 64.4147 20.9396 64.8455 20.1956L68.6829 22.0752C67.8149 23.5893 66.6826 24.7868 65.286 25.6679C63.8828 26.549 62.1599 26.9895 60.1171 26.9895C58.2571 26.9895 56.5995 26.5653 55.1441 25.7168C53.6887 24.875 52.5434 23.7198 51.708 22.2514C50.8791 20.783 50.4647 19.109 50.4647 17.2294C50.4647 15.4673 50.8759 13.8422 51.6982 12.3542C52.514 10.8597 53.6333 9.65885 55.056 8.75169C56.4787 7.85106 58.1038 7.40074 59.9311 7.40074C61.9086 7.40074 63.5728 7.82169 64.9238 8.66358C66.2682 9.50548 67.2896 10.6313 67.9879 12.041ZM64.4832 14.9484C64.4637 14.5438 64.3429 14.1228 64.121 13.6856C63.9057 13.2548 63.6055 12.8567 63.2204 12.4913C62.8354 12.1323 62.372 11.8386 61.8303 11.6102C61.2886 11.3818 60.6686 11.2676 59.9703 11.2676C59.0566 11.2676 58.218 11.5091 57.4544 11.992C56.6974 12.4684 56.1035 13.1341 55.6727 13.9891C55.5161 14.2893 55.3888 14.6091 55.2909 14.9484H64.4832Z" fill="#1E1E1E"/>
<path d="M79.5003 19.9704H79.2164L74.5566 7.97832H69.1724L76.9746 26.4021H81.6736L89.5541 7.97832H84.2384L79.5003 19.9704Z" fill="#1E1E1E"/>
<path d="M91.884 26.4021H96.7592V16.0742H107.136V11.4438H96.7592V5.15895H108.291V0.528534H91.884V26.4021Z" fill="#1E1E1E"/>
<path fill-rule="evenodd" clip-rule="evenodd" d="M127.244 12.041C127.942 13.4506 128.291 15.0104 128.291 16.7203C128.291 17.1054 128.278 17.4382 128.252 17.7188C128.226 17.993 128.203 18.192 128.183 18.316H114.361C114.465 19.0078 114.664 19.6278 114.958 20.176C115.415 21.031 116.035 21.6803 116.818 22.1241C117.601 22.5679 118.472 22.7898 119.432 22.7898C120.567 22.7898 121.52 22.5451 122.29 22.0556C123.06 21.5596 123.664 20.9396 124.101 20.1956L127.929 22.0752C127.061 23.5893 125.929 24.7868 124.532 25.6679C123.135 26.549 121.412 26.9895 119.363 26.9895C117.51 26.9895 115.852 26.5653 114.39 25.7168C112.935 24.875 111.793 23.7198 110.964 22.2514C110.128 20.783 109.711 19.109 109.711 17.2294C109.711 15.4673 110.122 13.8422 110.944 12.3542C111.76 10.8597 112.879 9.65885 114.302 8.75169C115.725 7.85106 117.353 7.40074 119.187 7.40074C121.158 7.40074 122.819 7.82169 124.17 8.66358C125.521 9.50548 126.545 10.6313 127.244 12.041ZM123.739 14.9484C123.713 14.5438 123.592 14.1228 123.377 13.6856C123.161 13.2548 122.861 12.8567 122.476 12.4913C122.085 12.1323 121.618 11.8386 121.076 11.6102C120.535 11.3818 119.915 11.2676 119.216 11.2676C118.303 11.2676 117.467 11.5091 116.71 11.992C115.947 12.4684 115.349 13.1341 114.919 13.9891C114.769 14.2893 114.645 14.6091 114.547 14.9484H123.739Z" fill="#1E1E1E"/>
<path d="M140.489 15.4183L137.787 14.7722C137.108 14.6025 136.527 14.348 136.044 14.0086C135.568 13.6758 135.33 13.281 135.33 12.8241C135.33 12.3868 135.568 12.0116 136.044 11.6983C136.527 11.3851 137.18 11.2284 138.002 11.2284C138.701 11.2284 139.356 11.372 139.97 11.6592C140.583 11.9528 141.083 12.4586 141.468 13.1765L145.521 11.4144C145.083 10.4942 144.502 9.74043 143.778 9.15306C143.06 8.55916 142.205 8.11864 141.213 7.83148C140.228 7.54432 139.122 7.40074 137.895 7.40074C136.57 7.40074 135.359 7.62916 134.263 8.086C133.166 8.54285 132.298 9.18243 131.659 10.0047C131.019 10.8205 130.699 11.7832 130.699 12.8926C130.699 13.8781 130.947 14.7526 131.443 15.5162C131.933 16.2733 132.576 16.8965 133.372 17.386C134.168 17.882 135.013 18.2279 135.907 18.4237L138.071 18.8936C138.58 18.985 139.073 19.109 139.549 19.2656C140.032 19.4222 140.437 19.6408 140.763 19.9215C141.089 20.1956 141.252 20.5741 141.252 21.0571C141.252 21.7358 140.939 22.1992 140.313 22.4472C139.686 22.7017 138.988 22.829 138.218 22.829C137.278 22.829 136.459 22.6071 135.76 22.1633C135.062 21.713 134.507 21.0571 134.096 20.1956L129.867 22.036C130.207 22.9236 130.725 23.7426 131.424 24.4932C132.122 25.2372 133.032 25.8376 134.155 26.2944C135.271 26.7578 136.625 26.9895 138.218 26.9895C139.66 26.9895 140.972 26.7415 142.153 26.2455C143.334 25.7495 144.274 25.0512 144.972 24.1505C145.671 23.2434 146.02 22.1894 146.02 20.9885C146.02 19.6376 145.556 18.4792 144.63 17.5133C143.703 16.5539 142.323 15.8556 140.489 15.4183Z" fill="#1E1E1E"/>
<path d="M158.775 22.0849C158.436 22.1959 158.074 22.2514 157.689 22.2514C156.873 22.2514 156.282 22.0393 155.917 21.615C155.558 21.1974 155.379 20.5415 155.379 19.6474V12.0214H159.891V7.97831H155.379V2.77031H150.64V7.97831H147.429V12.0214H150.64V20.5186C150.64 22.4439 151.182 23.9547 152.265 25.0512C153.355 26.1476 154.85 26.6958 156.749 26.6958C157.33 26.6958 157.891 26.6403 158.433 26.5294C158.975 26.4249 159.51 26.2748 160.038 26.079V21.4584C159.536 21.7717 159.115 21.9805 158.775 22.0849Z" fill="#1E1E1E"/>
<path d="M35.5554 52.4421H150.219C155.496 52.4421 159.774 48.1641 159.774 42.8876C159.774 37.6013 155.496 33.3233 150.219 33.3233H35.5554C30.2691 33.3233 25.9911 37.6013 25.9911 42.8876C25.9911 48.1641 30.2691 52.4421 35.5554 52.4421Z" fill="white" stroke="#1E1E1E" stroke-width="0.93979" stroke-linejoin="round"/>
<path d="M82.5331 39.308H83.3637V46.3874H82.5331V39.308ZM84.7789 39.308H85.6194V46.3874H84.7789V39.308ZM89.1398 46.5456C88.6454 46.5456 88.2005 46.4269 87.805 46.1896C87.4095 45.9523 87.0997 45.6293 86.8756 45.2207C86.6581 44.812 86.5493 44.3605 86.5493 43.8661C86.5493 43.3717 86.6581 42.9202 86.8756 42.5115C87.0997 42.1028 87.4095 41.7799 87.805 41.5426C88.2005 41.3053 88.6454 41.1866 89.1398 41.1866C89.6342 41.1866 90.0791 41.3053 90.4746 41.5426C90.8701 41.7799 91.1766 42.1028 91.3941 42.5115C91.6182 42.9202 91.7303 43.3717 91.7303 43.8661C91.7303 44.3605 91.6182 44.812 91.3941 45.2207C91.1766 45.6293 90.8701 45.9523 90.4746 46.1896C90.0791 46.4269 89.6342 46.5456 89.1398 46.5456ZM89.1398 45.7842C89.4496 45.7842 89.7363 45.7084 90 45.5568C90.2703 45.3986 90.4845 45.1745 90.6427 44.8845C90.8075 44.5945 90.8899 44.255 90.8899 43.8661C90.8899 43.4772 90.8075 43.1377 90.6427 42.8477C90.4845 42.5577 90.2703 42.3368 90 42.1852C89.7363 42.027 89.4496 41.9479 89.1398 41.9479C88.83 41.9479 88.54 42.027 88.2697 42.1852C87.9995 42.3368 87.7819 42.5577 87.6172 42.8477C87.459 43.1377 87.3799 43.4772 87.3799 43.8661C87.3799 44.255 87.459 44.5945 87.6172 44.8845C87.7819 45.1745 87.9995 45.3986 88.2697 45.5568C88.54 45.7084 88.83 45.7842 89.1398 45.7842ZM92.6097 41.3448H93.4105V42.1556H93.4501C93.549 41.8787 93.7401 41.6513 94.0236 41.4734C94.307 41.2888 94.6036 41.1965 94.9134 41.1965C95.1441 41.1965 95.3419 41.2295 95.5067 41.2954V42.205C95.2957 42.0996 95.0584 42.0468 94.7948 42.0468C94.5509 42.0468 94.3268 42.116 94.1224 42.2545C93.9181 42.3929 93.7533 42.5807 93.6281 42.818C93.5094 43.0487 93.4501 43.2992 93.4501 43.5695V46.3874H92.6097V41.3448ZM96.8118 40.4154C96.647 40.4154 96.5053 40.3561 96.3866 40.2374C96.268 40.1188 96.2087 39.9771 96.2087 39.8123C96.2087 39.6475 96.268 39.5091 96.3866 39.397C96.5053 39.2784 96.647 39.219 96.8118 39.219C96.9766 39.219 97.1183 39.2784 97.2369 39.397C97.3556 39.5091 97.4149 39.6475 97.4149 39.8123C97.4149 39.9771 97.3556 40.1188 97.2369 40.2374C97.1249 40.3561 96.9832 40.4154 96.8118 40.4154ZM96.3965 41.3448H97.2271V46.3874H96.3965V41.3448ZM98.5479 41.3448H99.3487V42.0864H99.3883C99.5267 41.8359 99.7475 41.625 100.051 41.4536C100.354 41.2756 100.677 41.1866 101.02 41.1866C101.626 41.1866 102.088 41.3646 102.404 41.7205C102.727 42.0699 102.888 42.5478 102.888 43.1542V46.3874H102.048V43.2827C102.048 42.8147 101.936 42.4753 101.712 42.2643C101.488 42.0534 101.181 41.9479 100.792 41.9479C100.522 41.9479 100.278 42.0237 100.061 42.1754C99.8497 42.327 99.6849 42.528 99.5663 42.7785C99.4476 43.0224 99.3883 43.2794 99.3883 43.5497V46.3874H98.5479V41.3448Z" fill="#1E1E1E"/>
</svg>
