<svg width="1754" height="455" viewBox="0 0 1754 455" fill="none" xmlns="http://www.w3.org/2000/svg">
<rect width="1636" height="455" fill="#FFE7A5"/>
<rect width="1636" height="455" fill="#FFE7A5"/>
<path d="M252.64 204.372H255.412V228H252.64V204.372ZM260.136 204.372H262.941V228H260.136V204.372ZM274.69 228.528C273.04 228.528 271.555 228.132 270.235 227.34C268.915 226.548 267.881 225.47 267.133 224.106C266.407 222.742 266.044 221.235 266.044 219.585C266.044 217.935 266.407 216.428 267.133 215.064C267.881 213.7 268.915 212.622 270.235 211.83C271.555 211.038 273.04 210.642 274.69 210.642C276.34 210.642 277.825 211.038 279.145 211.83C280.465 212.622 281.488 213.7 282.214 215.064C282.962 216.428 283.336 217.935 283.336 219.585C283.336 221.235 282.962 222.742 282.214 224.106C281.488 225.47 280.465 226.548 279.145 227.34C277.825 228.132 276.34 228.528 274.69 228.528ZM274.69 225.987C275.724 225.987 276.681 225.734 277.561 225.228C278.463 224.7 279.178 223.952 279.706 222.984C280.256 222.016 280.531 220.883 280.531 219.585C280.531 218.287 280.256 217.154 279.706 216.186C279.178 215.218 278.463 214.481 277.561 213.975C276.681 213.447 275.724 213.183 274.69 213.183C273.656 213.183 272.688 213.447 271.786 213.975C270.884 214.481 270.158 215.218 269.608 216.186C269.08 217.154 268.816 218.287 268.816 219.585C268.816 220.883 269.08 222.016 269.608 222.984C270.158 223.952 270.884 224.7 271.786 225.228C272.688 225.734 273.656 225.987 274.69 225.987ZM286.271 211.17H288.944V213.876H289.076C289.406 212.952 290.044 212.193 290.99 211.599C291.936 210.983 292.926 210.675 293.96 210.675C294.73 210.675 295.39 210.785 295.94 211.005V214.041C295.236 213.689 294.444 213.513 293.564 213.513C292.75 213.513 292.002 213.744 291.32 214.206C290.638 214.668 290.088 215.295 289.67 216.087C289.274 216.857 289.076 217.693 289.076 218.595V228H286.271V211.17ZM300.296 208.068C299.746 208.068 299.273 207.87 298.877 207.474C298.481 207.078 298.283 206.605 298.283 206.055C298.283 205.505 298.481 205.043 298.877 204.669C299.273 204.273 299.746 204.075 300.296 204.075C300.846 204.075 301.319 204.273 301.715 204.669C302.111 205.043 302.309 205.505 302.309 206.055C302.309 206.605 302.111 207.078 301.715 207.474C301.341 207.87 300.868 208.068 300.296 208.068ZM298.91 211.17H301.682V228H298.91V211.17ZM306.091 211.17H308.764V213.645H308.896C309.358 212.809 310.095 212.105 311.107 211.533C312.119 210.939 313.197 210.642 314.341 210.642C316.365 210.642 317.905 211.236 318.961 212.424C320.039 213.59 320.578 215.185 320.578 217.209V228H317.773V217.638C317.773 216.076 317.399 214.943 316.651 214.239C315.903 213.535 314.88 213.183 313.582 213.183C312.68 213.183 311.866 213.436 311.14 213.942C310.436 214.448 309.886 215.119 309.49 215.955C309.094 216.769 308.896 217.627 308.896 218.529V228H306.091V211.17Z" fill="black"/>
<g clip-path="url(#clip0_580_167)">
<path d="M286.326 126.758C281.815 124.287 276.464 123.04 270.253 123.04H250.438V181.645H270.253C276.464 181.645 281.837 180.42 286.326 177.972C290.838 175.523 294.284 172.077 296.732 167.657C299.158 163.236 300.382 158.135 300.382 152.354C300.382 146.573 299.158 141.472 296.732 137.096C294.306 132.698 290.838 129.275 286.326 126.781V126.758ZM287.074 162.238C285.624 165.072 283.47 167.271 280.568 168.836C277.666 170.4 274.084 171.171 269.754 171.171H261.479V133.514H269.754C274.061 133.514 277.666 134.285 280.568 135.849C283.47 137.414 285.624 139.59 287.074 142.401C288.525 145.212 289.251 148.522 289.251 152.354C289.251 156.185 288.525 159.427 287.074 162.261V162.238Z" fill="#1E1E1E"/>
<path d="M338.424 141.449C335.363 139.545 331.6 138.593 327.134 138.593C322.668 138.593 319.312 139.613 316.093 141.653C312.874 143.693 310.335 146.414 308.476 149.792C306.617 153.17 305.687 156.865 305.687 160.833C305.687 164.8 306.639 168.881 308.521 172.213C310.403 175.546 312.987 178.153 316.297 180.08C319.607 181.985 323.348 182.937 327.542 182.937C331.736 182.937 336.089 181.939 339.24 179.944C342.414 177.949 344.976 175.229 346.926 171.805L338.243 167.543C337.268 169.244 335.885 170.649 334.139 171.76C332.394 172.871 330.24 173.438 327.678 173.438C325.116 173.438 323.507 172.939 321.738 171.919C319.97 170.899 318.564 169.448 317.521 167.498C316.864 166.274 316.433 164.845 316.207 163.281H347.492C347.538 163.009 347.606 162.556 347.651 161.921C347.696 161.286 347.742 160.538 347.742 159.676C347.742 155.8 346.948 152.263 345.361 149.066C343.774 145.87 341.462 143.331 338.401 141.404L338.424 141.449ZM316.637 155.686C316.864 154.916 317.113 154.19 317.453 153.51C318.428 151.583 319.789 150.064 321.512 148.976C323.235 147.888 325.116 147.344 327.202 147.344C329.288 147.344 330.195 147.593 331.419 148.114C332.643 148.636 333.686 149.293 334.57 150.109C335.432 150.926 336.134 151.832 336.61 152.807C337.086 153.782 337.381 154.734 337.427 155.664H316.637V155.686Z" fill="#1E1E1E"/>
<path d="M371.456 167.067H370.798L360.233 139.907H348.059L365.72 181.645H376.375L394.217 139.907H382.179L371.456 167.067Z" fill="#1E1E1E"/>
<path d="M399.5 181.645H410.54V158.226H434.027V147.752H410.54V133.514H436.657V123.04H399.5V181.645Z" fill="#1E1E1E"/>
<path d="M472.613 141.449C469.553 139.545 465.789 138.593 461.323 138.593C456.857 138.593 453.502 139.613 450.282 141.653C447.063 143.693 444.524 146.414 442.665 149.792C440.806 153.17 439.876 156.865 439.876 160.833C439.876 164.8 440.829 168.881 442.71 172.213C444.592 175.546 447.176 178.153 450.486 180.08C453.796 181.985 457.537 182.937 461.731 182.937C465.925 182.937 470.278 181.939 473.429 179.944C476.603 177.949 479.165 175.229 481.115 171.805L472.432 167.543C471.457 169.244 470.074 170.649 468.328 171.76C466.583 172.871 464.429 173.438 461.867 173.438C459.305 173.438 457.696 172.939 455.927 171.919C454.159 170.899 452.754 169.448 451.711 167.498C451.053 166.274 450.622 164.845 450.396 163.281H481.682C481.727 163.009 481.795 162.556 481.84 161.921C481.886 161.286 481.931 160.538 481.931 159.676C481.931 155.8 481.138 152.263 479.551 149.066C477.964 145.87 475.651 143.331 472.591 141.404L472.613 141.449ZM450.849 155.686C451.076 154.916 451.325 154.19 451.665 153.51C452.64 151.583 454 150.064 455.723 148.976C457.446 147.888 459.328 147.344 461.414 147.344C463.5 147.344 464.406 147.593 465.631 148.114C466.855 148.636 467.898 149.293 468.782 150.109C469.643 150.926 470.346 151.832 470.822 152.807C471.321 153.782 471.593 154.734 471.638 155.664H450.849V155.686Z" fill="#1E1E1E"/>
<path d="M509.59 156.752L503.446 155.278C501.927 154.893 500.612 154.326 499.524 153.555C498.435 152.784 497.891 151.9 497.891 150.857C497.891 149.815 498.435 149.021 499.524 148.318C500.612 147.616 502.085 147.253 503.944 147.253C505.803 147.253 507.005 147.57 508.411 148.228C509.794 148.885 510.927 150.019 511.811 151.674L520.97 147.661C519.995 145.598 518.681 143.875 517.048 142.537C515.416 141.2 513.466 140.202 511.244 139.545C509 138.887 506.506 138.57 503.718 138.57C500.929 138.57 497.982 139.091 495.488 140.134C492.994 141.177 491.045 142.628 489.594 144.464C488.143 146.323 487.417 148.5 487.417 151.016C487.417 153.533 487.984 155.233 489.095 156.956C490.206 158.679 491.68 160.085 493.471 161.218C495.262 162.329 497.189 163.122 499.206 163.553L504.126 164.619C505.282 164.845 506.393 165.117 507.481 165.48C508.569 165.843 509.476 166.319 510.224 166.954C510.95 167.589 511.335 168.45 511.335 169.538C511.335 170.627 510.632 172.123 509.204 172.69C507.776 173.256 506.212 173.551 504.466 173.551C502.72 173.551 500.476 173.052 498.889 172.032C497.302 171.012 496.055 169.538 495.125 167.566L485.558 171.737C486.329 173.755 487.485 175.614 489.072 177.292C490.659 178.992 492.722 180.352 495.261 181.395C497.801 182.438 500.861 182.959 504.466 182.959C508.071 182.959 510.723 182.393 513.398 181.282C516.073 180.171 518.204 178.584 519.791 176.544C521.378 174.503 522.172 172.1 522.172 169.38C522.172 166.659 521.129 163.712 519.021 161.513C516.912 159.336 513.806 157.749 509.658 156.775L509.59 156.752Z" fill="#1E1E1E"/>
<path d="M550.987 171.874C550.216 172.123 549.4 172.236 548.538 172.236C546.679 172.236 545.342 171.76 544.525 170.808C543.709 169.856 543.301 168.36 543.301 166.342V149.067H553.526V139.908H543.301V128.119H532.578V139.908H525.3V149.067H532.578V168.292C532.578 172.667 533.802 176.09 536.25 178.561C538.699 181.055 542.1 182.279 546.407 182.279C550.715 182.279 548.992 182.166 550.216 181.917C551.44 181.667 552.664 181.327 553.866 180.897V170.423C552.71 171.125 551.757 171.601 551.009 171.851L550.987 171.874Z" fill="#1E1E1E"/>
<path d="M641.171 123.108H599.049C582.847 123.108 569.713 136.243 569.713 152.445C569.713 168.646 582.847 181.781 599.049 181.781H641.171C657.373 181.781 670.508 168.646 670.508 152.445C670.508 136.243 657.373 123.108 641.171 123.108Z" fill="white" stroke="#1E1E1E" stroke-width="2.17641" stroke-linejoin="round"/>
<path d="M592.747 161.513V159.337C592.792 159.291 592.951 159.11 593.2 158.838C593.449 158.566 593.789 158.203 594.175 157.75C594.56 157.319 594.991 156.843 595.444 156.344C595.898 155.845 596.351 155.324 596.827 154.825C597.281 154.304 597.711 153.85 598.12 153.42C598.505 152.989 598.822 152.649 599.072 152.4C599.865 151.538 600.477 150.745 600.863 150.087C601.248 149.407 601.429 148.704 601.429 147.933C601.429 147.163 601.293 146.845 601.021 146.392C600.749 145.916 600.364 145.553 599.843 145.258C599.344 144.986 598.754 144.827 598.074 144.827C597.394 144.827 596.895 144.963 596.419 145.236C595.943 145.508 595.58 145.848 595.286 146.233C595.014 146.618 594.81 147.004 594.742 147.389L592.769 146.596C592.883 146.233 593.064 145.848 593.313 145.394C593.563 144.941 593.925 144.533 594.379 144.125C594.832 143.717 595.354 143.376 595.988 143.127C596.623 142.878 597.349 142.742 598.165 142.742C598.981 142.742 600.296 142.991 601.112 143.49C601.928 143.989 602.563 144.623 602.994 145.394C603.425 146.165 603.651 147.004 603.651 147.888C603.651 148.772 603.493 149.407 603.175 150.155C602.858 150.881 602.45 151.561 601.996 152.195C601.543 152.83 601.089 153.352 600.659 153.805C600.432 154.032 600.137 154.349 599.752 154.757C599.366 155.165 598.958 155.619 598.505 156.118C598.052 156.616 597.621 157.07 597.19 157.546C596.759 157.999 596.397 158.407 596.079 158.747C595.762 159.087 595.535 159.314 595.422 159.45H603.81V161.536H592.724L592.747 161.513Z" fill="#1E1E1E"/>
<path d="M613.037 161.921C611.949 161.921 610.997 161.672 610.135 161.173C609.274 160.674 608.548 159.994 607.936 159.11C607.324 158.248 606.848 157.228 606.53 156.049C606.213 154.893 606.032 153.646 606.032 152.309C606.032 150.971 606.19 149.724 606.53 148.568C606.848 147.412 607.324 146.391 607.936 145.507C608.548 144.623 609.296 143.943 610.135 143.444C610.997 142.968 611.949 142.719 613.037 142.719C614.125 142.719 615.077 142.968 615.939 143.444C616.8 143.943 617.549 144.623 618.161 145.507C618.773 146.391 619.249 147.412 619.566 148.568C619.884 149.724 620.042 150.971 620.042 152.309C620.042 153.646 619.884 154.893 619.566 156.049C619.249 157.205 618.773 158.226 618.161 159.11C617.549 159.971 616.8 160.674 615.939 161.173C615.077 161.672 614.103 161.921 613.037 161.921ZM613.037 159.858C614.035 159.858 614.896 159.518 615.599 158.86C616.324 158.203 616.868 157.296 617.254 156.163C617.639 155.029 617.821 153.759 617.821 152.354C617.821 150.948 617.639 149.656 617.254 148.523C616.868 147.389 616.324 146.505 615.599 145.825C614.873 145.167 614.035 144.827 613.037 144.827C612.04 144.827 611.201 145.167 610.475 145.825C609.772 146.482 609.228 147.389 608.843 148.523C608.458 149.656 608.276 150.926 608.276 152.354C608.276 153.782 608.458 155.029 608.843 156.163C609.228 157.296 609.772 158.203 610.475 158.86C611.178 159.518 612.04 159.858 613.037 159.858Z" fill="#1E1E1E"/>
<path d="M621.924 161.513V159.337C621.969 159.291 622.128 159.11 622.377 158.838C622.627 158.566 622.967 158.203 623.352 157.75C623.738 157.319 624.168 156.843 624.622 156.344C625.075 155.845 625.529 155.324 626.005 154.825C626.458 154.304 626.889 153.85 627.297 153.419C627.682 152.989 628 152.649 628.249 152.399C629.043 151.538 629.655 150.744 630.04 150.087C630.426 149.407 630.607 148.704 630.607 147.933C630.607 147.162 630.471 146.845 630.199 146.391C629.927 145.915 629.541 145.553 629.02 145.258C628.521 144.986 627.932 144.827 627.252 144.827C626.572 144.827 626.073 144.963 625.597 145.235C625.121 145.507 624.758 145.847 624.463 146.233C624.191 146.618 623.987 147.004 623.919 147.389L621.947 146.596C622.06 146.233 622.241 145.847 622.491 145.394C622.74 144.941 623.103 144.532 623.556 144.124C624.01 143.716 624.531 143.376 625.166 143.127C625.801 142.877 626.526 142.741 627.342 142.741C628.159 142.741 629.473 142.991 630.29 143.49C631.106 143.988 631.741 144.623 632.171 145.394C632.602 146.165 632.829 147.004 632.829 147.888C632.829 148.772 632.67 149.407 632.353 150.155C632.035 150.88 631.627 151.56 631.174 152.195C630.72 152.83 630.267 153.351 629.836 153.805C629.609 154.032 629.315 154.349 628.929 154.757C628.544 155.165 628.136 155.619 627.682 156.117C627.229 156.616 626.798 157.069 626.368 157.546C625.937 157.999 625.574 158.407 625.257 158.747C624.939 159.087 624.713 159.314 624.599 159.45H632.987V161.536H621.901L621.924 161.513Z" fill="#1E1E1E"/>
<path d="M634.597 157.455V155.822L643.144 143.149H645.457V161.513H643.325V146.482H643.189L637.046 155.414H647.542V157.477H634.574L634.597 157.455Z" fill="#1E1E1E"/>
<path d="M155.581 125.771L131.463 143.102C126.409 146.733 125.256 153.773 128.888 158.827L128.901 158.845C132.532 163.899 139.572 165.052 144.626 161.42L168.744 144.09C173.797 140.459 174.95 133.418 171.319 128.365L171.306 128.346C167.674 123.293 160.634 122.14 155.581 125.771Z" fill="#EA4335" stroke="#1E1E1E" stroke-width="2.17641" stroke-miterlimit="10"/>
<path d="M128.902 145.679L128.889 145.698C125.258 150.751 126.411 157.792 131.464 161.423L155.582 178.753C160.636 182.385 167.676 181.232 171.307 176.178L171.32 176.16C174.952 171.106 173.799 164.066 168.745 160.435L144.627 143.104C139.574 139.473 132.533 140.626 128.902 145.679Z" fill="#4285F4" stroke="#1E1E1E" stroke-width="2.17641" stroke-miterlimit="10"/>
<path d="M213.805 143.089L189.687 160.42C184.634 164.051 183.481 171.092 187.112 176.145L187.125 176.163C190.757 181.217 197.797 182.37 202.851 178.738L226.969 161.408C232.022 157.777 233.175 150.736 229.544 145.683L229.53 145.664C225.899 140.611 218.859 139.458 213.805 143.089Z" fill="#F9AB00" stroke="#1E1E1E" stroke-width="2.17641" stroke-miterlimit="10"/>
<path d="M187.123 128.353L187.11 128.371C183.479 133.425 184.632 140.465 189.685 144.097L213.803 161.427C218.857 165.058 225.897 163.905 229.528 158.852L229.542 158.834C233.173 153.78 232.02 146.74 226.967 143.108L202.849 125.778C197.795 122.147 190.755 123.299 187.123 128.353Z" fill="#34A853" stroke="#1E1E1E" stroke-width="2.17641" stroke-miterlimit="10"/>
</g>
<rect x="251.5" y="297.5" width="384.8" height="75.9176" rx="37.9588" fill="white"/>
<rect x="251.5" y="297.5" width="384.8" height="75.9176" rx="37.9588" stroke="#1E1E1E" stroke-width="3"/>
<path d="M331.8 335.459C331.8 326.357 323.76 319 313.9 319C303.964 319 296 326.357 296 335.459C296 344.56 303.964 351.918 313.9 351.918C323.76 351.918 331.8 344.56 331.8 335.459Z" stroke="#1E1E1E" stroke-width="2" stroke-miterlimit="10"/>
<path d="M321.637 335.459C321.637 326.357 318.148 319 313.9 319C309.653 319 306.164 326.357 306.164 335.459C306.164 344.56 309.653 351.918 313.9 351.918C318.148 351.918 321.637 344.56 321.637 335.459Z" stroke="#1E1E1E" stroke-width="2" stroke-miterlimit="10"/>
<path d="M297.213 329.391H330.51" stroke="#1E1E1E" stroke-width="2" stroke-miterlimit="10"/>
<path d="M297.213 341.527H330.51" stroke="#1E1E1E" stroke-width="2" stroke-miterlimit="10"/>
<path d="M344.279 331.239H347.513L349.449 338.521H349.603L351.847 331.239H354.795L357.039 338.521H357.193L359.129 331.239H362.319L358.733 342.459H355.631L353.343 335.199H353.189L350.923 342.459H347.843L344.279 331.239ZM362.605 331.239H365.839L367.775 338.521H367.929L370.173 331.239H373.121L375.365 338.521H375.519L377.455 331.239H380.645L377.059 342.459H373.957L371.669 335.199H371.515L369.249 342.459H366.169L362.605 331.239ZM380.931 331.239H384.165L386.101 338.521H386.255L388.499 331.239H391.447L393.691 338.521H393.845L395.781 331.239H398.971L395.385 342.459H392.283L389.995 335.199H389.841L387.575 342.459H384.495L380.931 331.239ZM401.584 342.591C401.056 342.591 400.601 342.407 400.22 342.041C399.853 341.659 399.67 341.205 399.67 340.677C399.67 340.149 399.853 339.701 400.22 339.335C400.601 338.968 401.056 338.785 401.584 338.785C402.112 338.785 402.559 338.968 402.926 339.335C403.307 339.701 403.498 340.149 403.498 340.677C403.498 341.205 403.307 341.659 402.926 342.041C402.559 342.407 402.112 342.591 401.584 342.591ZM410.958 342.811C409.946 342.811 409.022 342.561 408.186 342.063C407.365 341.549 406.712 340.845 406.228 339.951C405.759 339.041 405.524 338.007 405.524 336.849C405.524 335.705 405.759 334.678 406.228 333.769C406.712 332.859 407.365 332.155 408.186 331.657C409.022 331.143 409.946 330.887 410.958 330.887C411.721 330.887 412.396 331.055 412.982 331.393C413.569 331.715 414.016 332.119 414.324 332.603H414.5L414.324 331.019V326.707H417.184V342.459H414.5V341.117H414.324C414.031 341.601 413.584 342.004 412.982 342.327C412.396 342.649 411.721 342.811 410.958 342.811ZM411.442 340.149C411.985 340.149 412.491 340.009 412.96 339.731C413.43 339.452 413.804 339.063 414.082 338.565C414.361 338.066 414.5 337.494 414.5 336.849C414.5 336.203 414.361 335.631 414.082 335.133C413.804 334.634 413.43 334.253 412.96 333.989C412.491 333.71 411.985 333.571 411.442 333.571C410.914 333.571 410.416 333.71 409.946 333.989C409.477 334.253 409.103 334.634 408.824 335.133C408.546 335.631 408.406 336.203 408.406 336.849C408.406 337.494 408.546 338.066 408.824 338.565C409.103 339.063 409.477 339.452 409.946 339.731C410.416 340.009 410.914 340.149 411.442 340.149ZM425.17 342.811C424.055 342.811 423.051 342.554 422.156 342.041C421.261 341.527 420.557 340.823 420.044 339.929C419.545 339.019 419.296 338 419.296 336.871C419.296 335.8 419.545 334.81 420.044 333.901C420.543 332.977 421.232 332.243 422.112 331.701C422.992 331.158 423.975 330.887 425.06 330.887C426.219 330.887 427.216 331.136 428.052 331.635C428.888 332.133 429.519 332.815 429.944 333.681C430.384 334.546 430.604 335.507 430.604 336.563C430.604 336.9 430.582 337.223 430.538 337.531H422.112C422.259 338.425 422.611 339.107 423.168 339.577C423.74 340.031 424.422 340.259 425.214 340.259C425.874 340.259 426.439 340.119 426.908 339.841C427.392 339.547 427.773 339.159 428.052 338.675L430.384 339.819C429.24 341.813 427.502 342.811 425.17 342.811ZM427.832 335.485C427.803 335.133 427.671 334.788 427.436 334.451C427.216 334.099 426.901 333.813 426.49 333.593C426.094 333.358 425.625 333.241 425.082 333.241C424.393 333.241 423.799 333.446 423.3 333.857C422.816 334.253 422.464 334.795 422.244 335.485H427.832ZM431.355 331.239H434.633L437.471 338.543H437.647L440.529 331.239H443.763L438.967 342.459H436.107L431.355 331.239ZM446.538 333.703H444.536V331.239H446.538V330.623C446.538 329.347 446.919 328.349 447.682 327.631C448.445 326.897 449.442 326.531 450.674 326.531C451.378 326.531 451.987 326.611 452.5 326.773V329.589C452.221 329.471 451.972 329.383 451.752 329.325C451.547 329.266 451.305 329.237 451.026 329.237C450.542 329.237 450.153 329.376 449.86 329.655C449.567 329.933 449.42 330.315 449.42 330.799V331.239H452.17V333.703H449.42V342.459H446.538V333.703ZM459.008 342.811C457.893 342.811 456.888 342.554 455.994 342.041C455.099 341.527 454.395 340.823 453.882 339.929C453.383 339.019 453.134 338 453.134 336.871C453.134 335.8 453.383 334.81 453.882 333.901C454.38 332.977 455.07 332.243 455.95 331.701C456.83 331.158 457.812 330.887 458.898 330.887C460.056 330.887 461.054 331.136 461.89 331.635C462.726 332.133 463.356 332.815 463.782 333.681C464.222 334.546 464.442 335.507 464.442 336.563C464.442 336.9 464.42 337.223 464.376 337.531H455.95C456.096 338.425 456.448 339.107 457.006 339.577C457.578 340.031 458.26 340.259 459.052 340.259C459.712 340.259 460.276 340.119 460.746 339.841C461.23 339.547 461.611 339.159 461.89 338.675L464.222 339.819C463.078 341.813 461.34 342.811 459.008 342.811ZM461.67 335.485C461.64 335.133 461.508 334.788 461.274 334.451C461.054 334.099 460.738 333.813 460.328 333.593C459.932 333.358 459.462 333.241 458.92 333.241C458.23 333.241 457.636 333.446 457.138 333.857C456.654 334.253 456.302 334.795 456.082 335.485H461.67ZM471.037 342.811C469.673 342.811 468.566 342.532 467.715 341.975C466.879 341.417 466.293 340.691 465.955 339.797L468.529 338.675C468.764 339.203 469.094 339.606 469.519 339.885C469.959 340.149 470.465 340.281 471.037 340.281C471.565 340.281 472.005 340.2 472.357 340.039C472.709 339.863 472.885 339.584 472.885 339.203C472.885 338.836 472.724 338.565 472.401 338.389C472.079 338.198 471.595 338.029 470.949 337.883L469.629 337.597C468.72 337.377 467.965 336.981 467.363 336.409C466.762 335.822 466.461 335.096 466.461 334.231C466.461 333.585 466.652 333.006 467.033 332.493C467.429 331.979 467.957 331.583 468.617 331.305C469.292 331.026 470.033 330.887 470.839 330.887C473.157 330.887 474.704 331.701 475.481 333.329L473.017 334.407C472.577 333.615 471.873 333.219 470.905 333.219C470.407 333.219 470.011 333.314 469.717 333.505C469.424 333.681 469.277 333.908 469.277 334.187C469.277 334.715 469.776 335.111 470.773 335.375L472.423 335.771C473.538 336.049 474.374 336.475 474.931 337.047C475.503 337.619 475.789 338.323 475.789 339.159C475.789 339.877 475.577 340.515 475.151 341.073C474.741 341.615 474.169 342.041 473.435 342.349C472.717 342.657 471.917 342.811 471.037 342.811ZM482.653 342.635C482.096 342.635 481.583 342.554 481.113 342.393C480.644 342.217 480.263 341.982 479.969 341.689C479.28 341.029 478.935 340.09 478.935 338.873V333.703H476.977V331.239H478.935V328.071H481.817V331.239H484.567V333.703H481.817V338.345C481.817 338.917 481.942 339.327 482.191 339.577C482.397 339.811 482.749 339.929 483.247 339.929C483.526 339.929 483.753 339.892 483.929 339.819C484.12 339.745 484.362 339.621 484.655 339.445V342.261C484.025 342.51 483.357 342.635 482.653 342.635ZM488.7 330.007C488.187 330.007 487.747 329.823 487.38 329.457C487.013 329.09 486.83 328.65 486.83 328.137C486.83 327.623 487.013 327.191 487.38 326.839C487.747 326.472 488.187 326.289 488.7 326.289C489.213 326.289 489.646 326.472 489.998 326.839C490.365 327.191 490.548 327.623 490.548 328.137C490.548 328.65 490.365 329.09 489.998 329.457C489.646 329.823 489.213 330.007 488.7 330.007ZM487.248 331.239H490.13V342.459H487.248V331.239ZM493.152 326.707H496.034V342.459H493.152V326.707ZM504.128 342.811C502.969 342.811 501.935 342.554 501.026 342.041C500.116 341.513 499.405 340.801 498.892 339.907C498.393 338.997 498.144 337.978 498.144 336.849C498.144 335.734 498.393 334.722 498.892 333.813C499.405 332.903 500.116 332.192 501.026 331.679C501.935 331.151 502.969 330.887 504.128 330.887C505.272 330.887 506.298 331.151 507.208 331.679C508.117 332.192 508.821 332.903 509.32 333.813C509.833 334.722 510.09 335.734 510.09 336.849C510.09 337.978 509.833 338.997 509.32 339.907C508.821 340.801 508.117 341.513 507.208 342.041C506.298 342.554 505.272 342.811 504.128 342.811ZM504.128 340.149C504.685 340.149 505.198 340.017 505.668 339.753C506.137 339.489 506.511 339.107 506.79 338.609C507.068 338.11 507.208 337.523 507.208 336.849C507.208 336.189 507.068 335.609 506.79 335.111C506.511 334.612 506.137 334.231 505.668 333.967C505.198 333.703 504.685 333.571 504.128 333.571C503.57 333.571 503.057 333.703 502.588 333.967C502.118 334.231 501.737 334.612 501.444 335.111C501.165 335.609 501.026 336.189 501.026 336.849C501.026 337.509 501.165 338.095 501.444 338.609C501.737 339.107 502.118 339.489 502.588 339.753C503.057 340.017 503.57 340.149 504.128 340.149ZM512.08 331.239H514.786V332.735H514.962C515.241 332.207 515.673 331.774 516.26 331.437C516.847 331.085 517.492 330.909 518.196 330.909C518.709 330.909 519.179 330.989 519.604 331.151V334.033C519.208 333.886 518.871 333.783 518.592 333.725C518.328 333.651 518.042 333.615 517.734 333.615C516.883 333.615 516.209 333.923 515.71 334.539C515.211 335.155 514.962 335.932 514.962 336.871V342.459H512.08V331.239ZM523.097 330.007C522.583 330.007 522.143 329.823 521.777 329.457C521.41 329.09 521.227 328.65 521.227 328.137C521.227 327.623 521.41 327.191 521.777 326.839C522.143 326.472 522.583 326.289 523.097 326.289C523.61 326.289 524.043 326.472 524.395 326.839C524.761 327.191 524.945 327.623 524.945 328.137C524.945 328.65 524.761 329.09 524.395 329.457C524.043 329.823 523.61 330.007 523.097 330.007ZM521.645 331.239H524.527V342.459H521.645V331.239ZM527.549 331.239H530.255V332.647H530.431C530.768 332.104 531.245 331.679 531.861 331.371C532.477 331.048 533.144 330.887 533.863 330.887C535.212 330.887 536.239 331.297 536.943 332.119C537.647 332.94 537.999 334.062 537.999 335.485V342.459H535.117V335.837C535.117 335.118 534.933 334.561 534.567 334.165C534.2 333.769 533.687 333.571 533.027 333.571C532.249 333.571 531.619 333.871 531.135 334.473C530.665 335.074 530.431 335.829 530.431 336.739V342.459H527.549V331.239ZM542.457 342.591C541.929 342.591 541.474 342.407 541.093 342.041C540.726 341.659 540.543 341.205 540.543 340.677C540.543 340.149 540.726 339.701 541.093 339.335C541.474 338.968 541.929 338.785 542.457 338.785C542.985 338.785 543.432 338.968 543.799 339.335C544.18 339.701 544.371 340.149 544.371 340.677C544.371 341.205 544.18 341.659 543.799 342.041C543.432 342.407 542.985 342.591 542.457 342.591ZM552.293 342.811C551.164 342.811 550.152 342.561 549.257 342.063C548.363 341.549 547.659 340.838 547.145 339.929C546.647 339.019 546.397 337.993 546.397 336.849C546.397 335.705 546.647 334.685 547.145 333.791C547.659 332.881 548.363 332.17 549.257 331.657C550.152 331.143 551.164 330.887 552.293 330.887C553.54 330.887 554.611 331.158 555.505 331.701C556.4 332.229 557.045 332.984 557.441 333.967L554.801 335.067C554.332 334.069 553.496 333.571 552.293 333.571C551.413 333.571 550.687 333.871 550.115 334.473C549.558 335.074 549.279 335.866 549.279 336.849C549.279 337.846 549.558 338.645 550.115 339.247C550.687 339.848 551.413 340.149 552.293 340.149C553.511 340.149 554.391 339.621 554.933 338.565L557.551 339.709C557.067 340.691 556.378 341.454 555.483 341.997C554.589 342.539 553.525 342.811 552.293 342.811ZM564.885 342.811C563.727 342.811 562.693 342.554 561.783 342.041C560.874 341.513 560.163 340.801 559.649 339.907C559.151 338.997 558.901 337.978 558.901 336.849C558.901 335.734 559.151 334.722 559.649 333.813C560.163 332.903 560.874 332.192 561.783 331.679C562.693 331.151 563.727 330.887 564.885 330.887C566.029 330.887 567.056 331.151 567.965 331.679C568.875 332.192 569.579 332.903 570.077 333.813C570.591 334.722 570.847 335.734 570.847 336.849C570.847 337.978 570.591 338.997 570.077 339.907C569.579 340.801 568.875 341.513 567.965 342.041C567.056 342.554 566.029 342.811 564.885 342.811ZM564.885 340.149C565.443 340.149 565.956 340.017 566.425 339.753C566.895 339.489 567.269 339.107 567.547 338.609C567.826 338.11 567.965 337.523 567.965 336.849C567.965 336.189 567.826 335.609 567.547 335.111C567.269 334.612 566.895 334.231 566.425 333.967C565.956 333.703 565.443 333.571 564.885 333.571C564.328 333.571 563.815 333.703 563.345 333.967C562.876 334.231 562.495 334.612 562.201 335.111C561.923 335.609 561.783 336.189 561.783 336.849C561.783 337.509 561.923 338.095 562.201 338.609C562.495 339.107 562.876 339.489 563.345 339.753C563.815 340.017 564.328 340.149 564.885 340.149ZM572.838 331.239H575.544V332.647H575.72C576.072 332.104 576.541 331.679 577.128 331.371C577.729 331.048 578.396 330.887 579.13 330.887C579.922 330.887 580.611 331.077 581.198 331.459C581.784 331.825 582.202 332.295 582.452 332.867C582.818 332.28 583.317 331.803 583.948 331.437C584.593 331.07 585.348 330.887 586.214 330.887C587.49 330.887 588.458 331.283 589.118 332.075C589.792 332.852 590.13 333.908 590.13 335.243V342.459H587.27V335.771C587.27 335.067 587.101 334.524 586.764 334.143C586.441 333.761 585.986 333.571 585.4 333.571C584.652 333.571 584.05 333.871 583.596 334.473C583.156 335.059 582.936 335.837 582.936 336.805V342.459H580.054V335.771C580.054 335.067 579.878 334.524 579.526 334.143C579.188 333.761 578.704 333.571 578.074 333.571C577.37 333.571 576.798 333.871 576.358 334.473C575.932 335.059 575.72 335.837 575.72 336.805V342.459H572.838V331.239Z" fill="#1E1E1E"/>
<g opacity="0.5">
<path d="M1139 221.545L1191.35 169.19C1192.2 168.403 1193.55 168.403 1194.39 169.19L1215.37 190.222C1216.21 191.065 1216.21 192.415 1215.37 193.202L1200.24 208.33H1323V242.296H1200.24L1215.65 257.705C1216.49 258.492 1216.49 259.841 1215.65 260.685L1193.66 281.717C1192.81 282.504 1191.47 282.504 1190.62 281.717L1139 229.081C1138.74 228.818 1138.51 228.537 1138.32 228.237C1136.97 226.156 1137.2 223.345 1139 221.545Z" fill="#F9AB00" stroke="#1E1E1E" stroke-width="2.81177" stroke-linejoin="round"/>
<path d="M1107.23 170.31L1128.48 201.149C1107.4 216.354 1102.21 245.682 1117.04 267.214C1131.88 288.747 1161.17 294.38 1182.88 280.101L1204.13 310.941C1165.38 336.963 1112.78 327.039 1086.2 288.466C1059.66 249.939 1069.11 197.257 1107.23 170.31Z" fill="#FF7DAF" stroke="#1E1E1E" stroke-width="2.81177" stroke-miterlimit="10"/>
<path d="M1059.32 235.486L1051.77 239.938C1049.05 241.536 1048.14 245.078 1049.71 247.743L1065.74 274.975C1073.71 288.495 1069.23 305.944 1055.67 313.934L1038.51 324.037C1037.45 324.665 1036.06 324.306 1035.43 323.24L1019.19 295.669C1018.57 294.603 1018.92 293.217 1019.99 292.589L1032.59 285.169C1035.3 283.571 1036.17 280.058 1034.6 277.392L990.738 202.915C989.14 200.202 985.675 199.305 982.962 200.903L970.363 208.323C969.297 208.951 967.911 208.593 967.255 207.478L951.045 179.955C950.417 178.889 950.776 177.503 951.842 176.875L968.995 166.773C982.563 158.782 999.964 163.284 1007.95 176.851L1024.68 205.247C1026.28 207.96 1029.82 208.876 1032.53 207.278L1040.09 202.826C1041.2 202.17 1042.59 202.529 1043.22 203.595L1060.17 232.378C1060.8 233.444 1060.44 234.83 1059.32 235.486Z" fill="#CCF6CF" stroke="#1E1E1E" stroke-width="2.81177" stroke-linejoin="round"/>
<path d="M904.232 281.143L911.84 276.662C914.554 275.064 915.498 271.571 913.9 268.857L897.89 241.673C889.9 228.105 894.401 210.705 907.969 202.714L925.123 192.611C926.189 191.984 927.574 192.342 928.202 193.408L944.412 220.931C945.068 222.046 944.71 223.432 943.644 224.06L931.045 231.48C928.332 233.078 927.435 236.542 929.033 239.256L972.896 313.733C974.466 316.398 977.959 317.343 980.673 315.745L993.271 308.325C994.337 307.697 995.723 308.056 996.351 309.122L1012.59 336.693C1013.22 337.76 1012.86 339.145 1011.79 339.773L994.639 349.876C981.071 357.866 963.642 353.316 955.68 339.797L938.928 311.353C937.33 308.64 933.817 307.772 931.103 309.37L923.496 313.85C922.429 314.478 921.044 314.12 920.387 313.005L903.464 284.271C902.808 283.156 903.166 281.77 904.232 281.143Z" fill="#CCF6CF" stroke="#1E1E1E" stroke-width="2.81177" stroke-linejoin="round"/>
<path d="M793.679 210.426C782.734 218.419 780.346 233.742 788.34 244.687C796.333 255.631 811.656 258.019 822.601 250.026C833.545 242.032 835.933 226.709 827.94 215.764C819.946 204.82 804.623 202.432 793.679 210.426Z" fill="#FFD427" stroke="#1E1E1E" stroke-width="2.81177" stroke-miterlimit="10"/>
<path d="M745.768 245.418C756.712 237.424 772.036 239.812 780.029 250.756C788.023 261.701 785.635 277.024 774.69 285.018C766.47 291.021 755.828 291.133 747.612 286.271C745.981 285.373 744.133 285.608 743.121 288.228L729.615 317.312C729.277 318.185 728.282 318.634 727.409 318.297L711.103 312.657C710.185 312.353 709.736 311.357 710.074 310.484C710.074 310.484 734.906 259.34 737.126 255.42C738.2 253.521 739.452 251.771 740.882 250.17C742.243 248.41 743.861 246.811 745.768 245.418Z" fill="#FFD427" stroke="#1E1E1E" stroke-width="2.81177" stroke-miterlimit="10"/>
<path d="M1564.91 421.374C1564.91 435.82 1576.62 447.48 1591.02 447.48C1605.46 447.48 1617.17 435.82 1617.17 421.374C1617.17 406.928 1605.46 395.216 1591.02 395.216C1576.62 395.216 1564.91 406.928 1564.91 421.374Z" fill="#5CDB6D" stroke="#1E1E1E" stroke-width="2.57963" stroke-linejoin="round"/>
<path d="M1498.06 421.374C1498.06 435.82 1509.77 447.48 1524.22 447.48C1538.66 447.48 1550.37 435.82 1550.37 421.374C1550.37 406.928 1538.66 395.216 1524.22 395.216C1509.77 395.216 1498.06 406.928 1498.06 421.374Z" fill="#5CDB6D" stroke="#1E1E1E" stroke-width="2.57963" stroke-linejoin="round"/>
<path d="M1431.26 421.374C1431.26 435.82 1442.97 447.48 1457.41 447.48C1471.81 447.48 1483.52 435.82 1483.52 421.374C1483.52 406.928 1471.81 395.216 1457.41 395.216C1442.97 395.216 1431.26 406.928 1431.26 421.374Z" fill="#5CDB6D" stroke="#1E1E1E" stroke-width="2.57963" stroke-linejoin="round"/>
<path d="M1429.59 362.729L1343.07 343.499C1341.96 343.253 1340.85 343.958 1340.58 345.167L1333.98 374.882C1333.71 376.09 1334.4 377.249 1335.51 377.495L1422.04 396.725C1423.14 396.971 1424.26 396.216 1424.53 395.007L1431.14 365.292C1431.4 364.084 1430.7 362.976 1429.59 362.729Z" fill="#57CAFF" stroke="#1E1E1E" stroke-width="2.57963" stroke-linejoin="round"/>
<path d="M1418.26 413.698L1331.74 394.468C1330.63 394.221 1329.51 394.977 1329.25 396.135L1322.64 425.9C1322.38 427.059 1323.07 428.217 1324.18 428.463L1410.71 447.693C1411.82 447.939 1412.93 447.184 1413.19 446.026L1419.81 416.261C1420.06 415.102 1419.37 413.944 1418.26 413.698Z" fill="#57CAFF" stroke="#1E1E1E" stroke-width="2.57963" stroke-linejoin="round"/>
<path d="M1085.01 343.664C1104.39 339.277 1123.53 346.09 1135.82 359.688C1136.89 360.842 1138.82 360.509 1139.32 359.042C1145.31 342.119 1159.89 328.693 1178.81 324.922C1197.74 321.152 1216.35 327.965 1228.37 341.299C1229.39 342.464 1231.3 342.03 1231.85 340.553C1237.98 323.286 1253.05 309.657 1272.63 306.282C1299.78 301.556 1327.35 320.052 1333.11 346.839C1339.23 375.448 1320.57 403.522 1291.78 409.258C1272.86 413.029 1254.24 406.216 1242.22 392.882C1241.2 391.717 1239.28 392.1 1238.78 393.567C1232.79 410.49 1218.21 423.917 1199.29 427.687C1180.36 431.458 1161.75 424.645 1149.73 411.31C1148.71 410.146 1146.79 410.529 1146.29 411.996C1140.3 428.919 1125.72 442.346 1106.79 446.116C1078 451.852 1050.01 433.073 1044.7 404.303C1039.75 377.355 1058.13 349.705 1085.01 343.664Z" fill="#F8D8D8" stroke="#1E1E1E" stroke-width="2.57963" stroke-miterlimit="10"/>
<path d="M1283.87 417.919L1289.03 426.071C1286.96 426.415 1285.11 427.516 1283.46 429.373C1281.84 431.23 1281.03 433.5 1281.03 436.183C1281.03 439.176 1282.1 441.755 1284.23 443.922C1286.4 446.055 1289.05 447.121 1292.18 447.121C1295.31 447.121 1297.95 446.055 1300.12 443.922C1302.67 441.343 1303.7 438.161 1303.22 434.378C1303.06 433.036 1302.65 431.695 1302.08 430.456C1301.26 428.668 1300.05 426.621 1298.47 424.317L1291.14 413.225C1290.52 412.296 1289.29 412.038 1288.41 412.657L1284.44 415.185C1283.51 415.804 1283.25 416.991 1283.87 417.919Z" fill="#34A853" stroke="#1E1E1E" stroke-width="2.57963" stroke-miterlimit="10"/>
<path d="M1256.63 417.919L1261.79 426.071C1259.69 426.415 1257.83 427.516 1256.22 429.373C1254.6 431.23 1253.79 433.5 1253.79 436.183C1253.79 439.176 1254.86 441.755 1256.99 443.922C1259.16 446.055 1261.8 447.121 1264.93 447.121C1268.06 447.121 1270.71 446.055 1272.88 443.922C1275.43 441.343 1276.46 438.161 1275.98 434.378C1275.77 433.036 1275.41 431.695 1274.84 430.456C1274.01 428.668 1272.81 426.621 1271.23 424.317L1263.85 413.225C1263.28 412.296 1262.05 412.038 1261.17 412.657L1257.2 415.185C1256.27 415.804 1256.01 416.991 1256.63 417.919Z" fill="#34A853" stroke="#1E1E1E" stroke-width="2.57963" stroke-miterlimit="10"/>
<path d="M1077.42 336.388L1072.21 328.236C1074.31 327.892 1076.17 326.792 1077.78 324.934C1079.43 323.077 1080.26 320.807 1080.26 318.124C1080.26 315.097 1079.18 312.518 1077.01 310.385C1074.88 308.218 1072.23 307.135 1069.06 307.135C1065.93 307.135 1063.3 308.218 1061.17 310.385C1058.59 312.931 1057.56 316.112 1058.07 319.93C1058.23 321.271 1058.59 322.613 1059.16 323.851C1059.98 325.64 1061.2 327.686 1062.82 329.991L1070.15 341.083C1070.77 342.012 1071.95 342.27 1072.88 341.651L1076.8 339.122C1077.73 338.503 1077.99 337.265 1077.42 336.388Z" fill="#34A853" stroke="#1E1E1E" stroke-width="2.57963" stroke-miterlimit="10"/>
<path d="M1104.66 336.388L1099.45 328.236C1101.55 327.892 1103.41 326.792 1105.02 324.934C1106.67 323.077 1107.5 320.807 1107.5 318.124C1107.5 315.097 1106.42 312.518 1104.25 310.385C1102.12 308.218 1099.49 307.135 1096.36 307.135C1093.19 307.135 1090.54 308.218 1088.41 310.385C1085.83 312.931 1084.8 316.112 1085.32 319.93C1085.47 321.271 1085.83 322.613 1086.45 323.851C1087.24 325.64 1088.45 327.686 1090.06 329.991L1097.39 341.083C1098.01 342.012 1099.19 342.27 1100.12 341.651L1104.09 339.122C1104.97 338.503 1105.23 337.265 1104.66 336.388Z" fill="#34A853" stroke="#1E1E1E" stroke-width="2.57963" stroke-miterlimit="10"/>
<path d="M1016.67 389.537C1029.52 389.537 1039.94 379.115 1039.94 366.268C1039.94 353.422 1029.52 343.052 1016.67 343.052C1003.83 343.052 993.406 353.422 993.406 366.268C993.406 379.115 1003.83 389.537 1016.67 389.537Z" fill="#4285F4" stroke="#1E1E1E" stroke-width="2.57963" stroke-miterlimit="10"/>
<path d="M1016.67 447.527C1029.52 447.527 1039.94 437.105 1039.94 424.259C1039.94 411.412 1029.52 400.99 1016.67 400.99C1003.83 400.99 993.406 411.412 993.406 424.259C993.406 437.105 1003.83 447.527 1016.67 447.527Z" fill="#4285F4" stroke="#1E1E1E" stroke-width="2.57963" stroke-miterlimit="10"/>
<path d="M973.986 386.37L955.155 399.939L973.986 413.456C982.396 419.492 984.305 431.152 978.269 439.562C972.232 447.971 960.521 449.88 952.163 443.844L912.178 415.107C912.11 415.072 912.058 415.038 912.024 415.004C911.886 414.9 911.748 414.797 911.611 414.694C911.473 414.591 911.353 414.488 911.25 414.385C911.146 414.316 911.043 414.23 910.94 414.127C910.803 413.989 910.648 413.851 910.476 413.714C910.407 413.679 910.355 413.628 910.321 413.559C910.115 413.387 909.925 413.215 909.753 413.043C909.753 413.009 909.736 412.992 909.702 412.992C908.36 411.65 907.277 410.102 906.452 408.451C906.417 408.417 906.4 408.383 906.4 408.348C906.297 408.142 906.194 407.918 906.09 407.677C906.056 407.609 906.022 407.54 905.987 407.471C905.884 407.299 905.798 407.127 905.729 406.955C905.695 406.818 905.643 406.68 905.574 406.542C905.54 406.405 905.506 406.284 905.471 406.181C905.403 406.009 905.334 405.82 905.265 405.614C905.265 405.545 905.248 405.476 905.213 405.407C905.145 405.167 905.076 404.943 905.007 404.737C905.007 404.702 904.99 404.651 904.955 404.582C904.921 404.341 904.869 404.1 904.801 403.86C904.801 403.825 904.801 403.791 904.801 403.756C904.732 403.481 904.68 403.223 904.646 402.983C904.646 402.948 904.629 402.897 904.594 402.828C904.56 402.587 904.525 402.346 904.491 402.105C904.491 402.037 904.491 401.968 904.491 401.899C904.457 401.693 904.439 401.469 904.439 401.228C904.439 401.125 904.439 401.022 904.439 400.919C904.405 400.747 904.388 400.558 904.388 400.351C904.388 400.214 904.388 400.076 904.388 399.939C904.388 399.767 904.388 399.612 904.388 399.474C904.388 399.302 904.405 399.113 904.439 398.907C904.439 398.804 904.439 398.7 904.439 398.597C904.439 398.391 904.457 398.167 904.491 397.926C904.491 397.858 904.491 397.789 904.491 397.72C904.525 397.479 904.56 397.239 904.594 396.998C904.629 396.929 904.646 396.877 904.646 396.843C904.68 396.602 904.732 396.344 904.801 396.069C904.801 396.035 904.801 396 904.801 395.966C904.869 395.725 904.921 395.484 904.955 395.244C904.99 395.175 905.007 395.123 905.007 395.089C905.076 394.882 905.145 394.659 905.213 394.418C905.248 394.349 905.265 394.281 905.265 394.212C905.334 394.005 905.403 393.816 905.471 393.644C905.506 393.541 905.54 393.421 905.574 393.283C905.643 393.146 905.695 393.025 905.729 392.922C905.798 392.716 905.884 392.544 905.987 392.406C906.022 392.303 906.056 392.217 906.09 392.148C906.194 391.907 906.297 391.684 906.4 391.477C906.4 391.443 906.417 391.409 906.452 391.374C907.277 389.723 908.36 388.227 909.702 386.834C909.736 386.834 909.753 386.817 909.753 386.782C909.925 386.61 910.115 386.439 910.321 386.267C910.355 386.198 910.407 386.146 910.476 386.112C910.648 385.974 910.803 385.837 910.94 385.699C911.043 385.596 911.146 385.51 911.25 385.441C911.353 385.338 911.473 385.235 911.611 385.131C911.748 385.028 911.886 384.925 912.024 384.822C912.058 384.788 912.11 384.753 912.178 384.719L952.163 355.982C960.521 349.945 972.232 351.854 978.269 360.264C984.305 368.673 982.396 380.333 973.986 386.37Z" fill="#FF7DAF" stroke="#1E1E1E" stroke-width="2.57963" stroke-miterlimit="10"/>
<path d="M828.803 386.37L847.635 399.939L828.803 413.456C820.394 419.492 818.485 431.152 824.521 439.562C830.557 447.971 842.269 449.88 850.627 443.844L890.611 415.107C890.68 415.072 890.732 415.038 890.766 415.004C890.904 414.9 891.041 414.797 891.179 414.694C891.282 414.591 891.402 414.488 891.54 414.385C891.643 414.316 891.746 414.23 891.849 414.127C891.987 413.989 892.142 413.851 892.314 413.714C892.348 413.679 892.4 413.628 892.469 413.559C892.675 413.387 892.864 413.215 893.036 413.043C893.036 413.009 893.053 412.992 893.088 412.992C894.429 411.65 895.513 410.102 896.338 408.451C896.372 408.417 896.39 408.383 896.39 408.348C896.493 408.142 896.596 407.918 896.699 407.677C896.734 407.609 896.768 407.54 896.802 407.471C896.906 407.299 896.992 407.127 897.06 406.955C897.095 406.818 897.146 406.68 897.215 406.542C897.25 406.405 897.284 406.284 897.318 406.181C897.387 406.009 897.456 405.82 897.525 405.614C897.525 405.545 897.542 405.476 897.576 405.407C897.645 405.167 897.714 404.943 897.783 404.737C897.783 404.702 897.8 404.651 897.834 404.582C897.869 404.341 897.92 404.1 897.989 403.86C897.989 403.825 897.989 403.791 897.989 403.756C898.058 403.481 898.109 403.223 898.144 402.983C898.144 402.948 898.161 402.897 898.195 402.828C898.23 402.587 898.264 402.346 898.299 402.105C898.299 402.037 898.299 401.968 898.299 401.899C898.333 401.693 898.35 401.469 898.35 401.228C898.35 401.125 898.35 401.022 898.35 400.919C898.385 400.747 898.402 400.558 898.402 400.351C898.402 400.214 898.402 400.076 898.402 399.939C898.402 399.767 898.402 399.612 898.402 399.474C898.402 399.302 898.385 399.113 898.35 398.907C898.35 398.804 898.35 398.7 898.35 398.597C898.35 398.391 898.333 398.167 898.299 397.926C898.299 397.858 898.299 397.789 898.299 397.72C898.264 397.479 898.23 397.239 898.195 396.998C898.161 396.929 898.144 396.877 898.144 396.843C898.109 396.602 898.058 396.344 897.989 396.069C897.989 396.035 897.989 396 897.989 395.966C897.92 395.725 897.869 395.484 897.834 395.244C897.8 395.175 897.783 395.123 897.783 395.089C897.714 394.882 897.645 394.659 897.576 394.418C897.542 394.349 897.525 394.281 897.525 394.212C897.456 394.005 897.387 393.816 897.318 393.644C897.284 393.541 897.25 393.421 897.215 393.283C897.146 393.146 897.095 393.025 897.06 392.922C896.992 392.716 896.906 392.544 896.802 392.406C896.768 392.303 896.734 392.217 896.699 392.148C896.596 391.907 896.493 391.684 896.39 391.477C896.39 391.443 896.372 391.409 896.338 391.374C895.513 389.723 894.429 388.227 893.088 386.834C893.053 386.834 893.036 386.817 893.036 386.782C892.864 386.61 892.675 386.439 892.469 386.267C892.4 386.198 892.348 386.146 892.314 386.112C892.142 385.974 891.987 385.837 891.849 385.699C891.746 385.596 891.643 385.51 891.54 385.441C891.402 385.338 891.282 385.235 891.179 385.131C891.041 385.028 890.904 384.925 890.766 384.822C890.732 384.788 890.68 384.753 890.611 384.719L850.627 355.982C842.269 349.945 830.557 351.854 824.521 360.264C818.485 368.673 820.394 380.333 828.803 386.37Z" fill="#FF7DAF" stroke="#1E1E1E" stroke-width="2.57963" stroke-miterlimit="10"/>
<path d="M700.016 435.346L718.669 406.489C738.995 418.952 765.672 413.037 778.696 392.889C791.72 372.741 786.189 345.944 766.451 332.571L785.105 303.714C820.787 327.394 830.884 375.45 807.553 411.542C784.25 447.592 736.286 458.116 700.016 435.346Z" fill="#F9AB00" stroke="#1E1E1E" stroke-width="2.57963" stroke-linejoin="round"/>
<path d="M1419.75 356.776L1414.13 326.465C1413.94 325.203 1414.79 323.971 1416.03 323.704L1465.19 314.654L1456.14 265.5C1455.94 264.238 1456.79 263.006 1458.04 262.739L1488.39 257.151C1489.66 256.955 1490.89 257.804 1491.16 259.053L1500.21 308.207L1549.36 299.157C1550.62 298.962 1551.85 299.811 1552.12 301.06L1557.67 331.384C1557.9 332.675 1557.06 333.907 1555.76 334.145L1506.65 343.224L1515.66 392.348C1515.9 393.64 1515.05 394.872 1513.76 395.11L1483.48 400.685C1482.18 400.923 1480.95 400.074 1480.71 398.782L1471.64 349.671L1422.51 358.679C1421.22 358.917 1419.99 358.068 1419.75 356.776Z" fill="#FF7DAF" stroke="#1E1E1E" stroke-width="2.57963" stroke-miterlimit="10"/>
<path d="M642.686 354.881L683.793 338.181L667.462 297.983C667.034 296.931 667.545 295.721 668.597 295.294L693.452 285.196C694.504 284.769 695.714 285.28 696.141 286.331L712.472 326.53L753.579 309.83C754.631 309.403 755.84 309.914 756.268 310.965L766.365 335.821C766.793 336.872 766.282 338.082 765.23 338.509L724.123 355.209L740.454 395.408C740.901 396.507 740.371 397.67 739.319 398.097L714.464 408.195C713.412 408.622 712.222 408.159 711.775 407.059L695.444 366.861L654.337 383.561C653.285 383.988 652.076 383.477 651.648 382.425L641.551 357.57C641.123 356.518 641.634 355.309 642.686 354.881Z" fill="#EA4335" stroke="#1E1E1E" stroke-width="2.57963" stroke-linejoin="round"/>
<path d="M821.022 251.55L852.605 352.837H875.951L844.368 251.55H821.022Z" fill="#4285F4" stroke="#1E1E1E" stroke-width="1.66756" stroke-linejoin="round"/>
<path d="M866.146 251.55L897.73 352.837H921.075L889.492 251.55H866.146Z" fill="#4285F4" stroke="#1E1E1E" stroke-width="1.66756" stroke-linejoin="round"/>
<path d="M1386.63 346.63C1400.63 346.63 1411.94 335.326 1411.94 321.324C1411.94 307.321 1400.63 296.018 1386.63 296.018C1372.63 296.018 1361.32 307.321 1361.32 321.324C1361.32 335.326 1372.63 346.63 1386.63 346.63Z" fill="#EA4335"/>
<path d="M1386.63 346.63C1400.63 346.63 1411.94 335.326 1411.94 321.324C1411.94 307.321 1400.63 296.018 1386.63 296.018C1372.63 296.018 1361.32 307.321 1361.32 321.324C1361.32 335.326 1372.63 346.63 1386.63 346.63Z" stroke="#1E1E1E" stroke-width="2.81177" stroke-linejoin="round"/>
<path d="M1376.99 290.405L1356.21 270.444C1355.8 270.052 1355.15 270.065 1354.76 270.473L1344.15 281.511C1343.76 281.919 1343.77 282.574 1344.18 282.966L1353.83 292.233C1354.24 292.625 1354.25 293.28 1353.86 293.688L1337.25 310.977C1336.84 311.404 1336.18 311.417 1335.77 311.025L1326.13 301.757C1325.72 301.365 1325.07 301.378 1324.67 301.786L1314.07 312.824C1313.68 313.232 1313.69 313.886 1314.1 314.279L1334.87 334.239C1335.28 334.631 1335.94 334.618 1336.33 334.21L1377.02 291.86C1377.41 291.452 1377.4 290.797 1376.99 290.405Z" fill="#FFE7A5" stroke="#1E1E1E" stroke-width="1.28622" stroke-miterlimit="10"/>
<path d="M1328.39 243.711L1349.16 263.672C1349.57 264.064 1349.58 264.718 1349.19 265.127L1338.59 276.164C1338.2 276.572 1337.54 276.585 1337.13 276.193L1327.49 266.926C1327.08 266.533 1326.42 266.547 1326.03 266.955L1309.42 284.244C1309.01 284.67 1309.02 285.325 1309.43 285.717L1319.08 294.985C1319.49 295.377 1319.5 296.031 1319.11 296.439L1308.5 307.477C1308.11 307.885 1307.46 307.898 1307.05 307.506L1286.27 287.545C1285.86 287.153 1285.85 286.498 1286.24 286.09L1326.93 243.74C1327.32 243.332 1327.98 243.319 1328.39 243.711Z" fill="#FFE7A5" stroke="#1E1E1E" stroke-width="1.28622" stroke-miterlimit="10"/>
</g>
<defs>
<clipPath id="clip0_580_167">
<rect width="548.047" height="64" fill="white" transform="translate(125 121)"/>
</clipPath>
</defs>
</svg>
