<svg width="69" height="39" viewBox="0 0 69 39" fill="none" xmlns="http://www.w3.org/2000/svg">
<path d="M29.6459 4.35002C31.9459 7.55002 31.2459 12.15 27.9459 14.45L12.4459 25.55C9.24594 27.95 4.74594 27.15 2.34594 23.95C0.045938 20.65 0.74595 16.15 4.04595 13.85L19.5459 2.65002C22.746 0.350019 27.2459 1.05002 29.6459 4.35002Z" fill="#EA4435" stroke="#100F10" stroke-miterlimit="10"/>
<path d="M2.34594 15.4501C0.045938 18.7501 0.74595 23.2501 4.04595 25.5501L19.5459 36.7501C22.746 39.0501 27.2459 38.3501 29.6459 35.0501C31.9459 31.8501 31.2459 27.2501 27.9459 24.9501L12.4459 13.8501C9.24594 11.4501 4.74594 12.2501 2.34594 15.4501Z" fill="#537CBE" stroke="#100F10" stroke-miterlimit="10"/>
<path d="M67.046 15.4501C69.346 18.7501 68.646 23.2501 65.346 25.5501L49.846 36.7501C46.646 39.0501 42.146 38.3501 39.746 35.0501C37.446 31.8501 38.146 27.2501 41.446 24.9501L56.946 13.8501C60.146 11.4501 64.646 12.2501 67.046 15.4501Z" fill="#F8AB19" stroke="#100F10" stroke-miterlimit="10"/>
<path d="M39.746 4.35002C37.446 7.55002 38.146 12.15 41.446 14.45L56.946 25.55C60.146 27.95 64.646 27.15 67.046 23.95C69.346 20.65 68.646 16.15 65.346 13.85L49.846 2.65002C46.646 0.350019 42.146 1.05002 39.746 4.35002Z" fill="#32A852" stroke="#100F10" stroke-miterlimit="10"/>
</svg>
