<svg width="419" height="88" viewBox="0 0 419 88" fill="none" xmlns="http://www.w3.org/2000/svg">
<path d="M67.5831 8.4277C72.8898 15.811 71.2747 26.4244 63.6607 31.7311L27.8981 57.3417C20.5148 62.8792 10.1321 61.0334 4.59469 53.6501C-0.712017 46.0361 0.903097 35.6534 8.51708 30.3467L44.2797 4.50535C51.6629 -0.801363 62.0456 0.813723 67.5831 8.4277Z" fill="#EA4435" stroke="#F0F0F0" stroke-width="2.30727" stroke-miterlimit="10"/>
<path d="M4.59469 34.038C-0.712017 41.652 0.903097 52.0347 8.51708 57.3414L44.2797 83.1828C51.6629 88.4895 62.0456 86.8744 67.5831 79.2605C72.8898 71.8772 71.2747 61.2638 63.6607 55.9571L27.8981 30.3464C20.5148 24.809 10.1321 26.6548 4.59469 34.038Z" fill="#537CBE" stroke="#F0F0F0" stroke-width="2.30727" stroke-miterlimit="10"/>
<path d="M153.875 34.038C159.182 41.652 157.566 52.0347 149.952 57.3414L114.19 83.1828C106.807 88.4895 96.4239 86.8744 90.8865 79.2605C85.5797 71.8772 87.1948 61.2638 94.8088 55.9571L130.571 30.3464C137.955 24.809 148.337 26.6548 153.875 34.038Z" fill="#F8AB19" stroke="#F0F0F0" stroke-width="2.30727" stroke-miterlimit="10"/>
<path d="M90.8865 8.4277C85.5797 15.811 87.1948 26.4244 94.8088 31.7311L130.571 57.3417C137.955 62.8792 148.337 61.0334 153.875 53.6501C159.182 46.0361 157.566 35.6534 149.952 30.3467L114.19 4.50535C106.807 -0.801363 96.4239 0.813723 90.8865 8.4277Z" fill="#32A852" stroke="#F0F0F0" stroke-width="2.30727" stroke-miterlimit="10"/>
<path d="M217.707 60.0826C214.6 60.0826 211.739 59.3289 209.124 57.8214C206.51 56.314 204.433 54.2375 202.895 51.5918C201.357 48.9462 200.588 46.0236 200.588 42.8242C200.588 39.6248 201.357 36.7023 202.895 34.0566C204.433 31.4109 206.51 29.3344 209.124 27.827C211.739 26.3196 214.6 25.5659 217.707 25.5659C220.138 25.5659 222.414 25.9965 224.537 26.8579C226.69 27.7193 228.459 28.9345 229.844 30.5034L227.029 33.3183C225.983 32.0262 224.645 31.0418 223.014 30.365C221.384 29.6574 219.63 29.3036 217.754 29.3036C215.416 29.3036 213.231 29.8728 211.201 31.011C209.201 32.1185 207.586 33.7028 206.356 35.764C205.156 37.7944 204.556 40.1478 204.556 42.8242C204.556 45.5006 205.156 47.8694 206.356 49.9306C207.586 51.961 209.217 53.5453 211.247 54.6836C213.277 55.791 215.446 56.3448 217.754 56.3448C219.969 56.3448 221.814 56.0064 223.291 55.3296C224.798 54.622 226.091 53.6991 227.167 52.5609C227.967 51.6995 228.613 50.6689 229.105 49.4691C229.598 48.2386 229.905 46.885 230.028 45.4083H217.8V41.7629H233.674C233.828 42.6242 233.904 43.4241 233.904 44.1624C233.904 46.1928 233.581 48.1771 232.935 50.1152C232.289 52.0225 231.259 53.6991 229.844 55.145C226.798 58.4367 222.753 60.0826 217.707 60.0826ZM239.741 26.3042H249.708C253.092 26.3042 256.045 27.0117 258.568 28.4269C261.091 29.8112 263.029 31.7493 264.382 34.2412C265.736 36.733 266.413 39.594 266.413 42.8242C266.413 46.0544 265.736 48.9154 264.382 51.4072C263.029 53.8991 261.091 55.8526 258.568 57.2677C256.045 58.6521 253.092 59.3442 249.708 59.3442H239.741V26.3042ZM249.708 55.6065C253.615 55.6065 256.707 54.4836 258.983 52.2379C261.291 49.9921 262.444 46.8542 262.444 42.8242C262.444 38.7942 261.291 35.6563 258.983 33.4106C256.707 31.1648 253.615 30.042 249.708 30.042H243.617V55.6065H249.708ZM287.692 60.0826C284.584 60.0826 281.723 59.3289 279.108 57.8214C276.494 56.314 274.417 54.2375 272.879 51.5918C271.341 48.9462 270.572 46.0236 270.572 42.8242C270.572 39.6248 271.341 36.7023 272.879 34.0566C274.417 31.4109 276.494 29.3344 279.108 27.827C281.723 26.3196 284.584 25.5659 287.692 25.5659C290.122 25.5659 292.398 25.9965 294.521 26.8579C296.674 27.7193 298.443 28.9345 299.828 30.5034L297.013 33.3183C295.967 32.0262 294.629 31.0418 292.998 30.365C291.368 29.6574 289.614 29.3036 287.738 29.3036C285.4 29.3036 283.215 29.8728 281.185 31.011C279.185 32.1185 277.57 33.7028 276.34 35.764C275.14 37.7944 274.54 40.1478 274.54 42.8242C274.54 45.5006 275.14 47.8694 276.34 49.9306C277.57 51.961 279.201 53.5453 281.231 54.6836C283.262 55.791 285.43 56.3448 287.738 56.3448C289.953 56.3448 291.798 56.0064 293.275 55.3296C294.783 54.622 296.075 53.6991 297.151 52.5609C297.951 51.6995 298.597 50.6689 299.089 49.4691C299.582 48.2386 299.889 46.885 300.012 45.4083H287.784V41.7629H303.658C303.812 42.6242 303.889 43.4241 303.889 44.1624C303.889 46.1928 303.566 48.1771 302.919 50.1152C302.273 52.0225 301.243 53.6991 299.828 55.145C296.782 58.4367 292.737 60.0826 287.692 60.0826ZM320.45 26.3042H324.326V59.3442H320.45V26.3042ZM330.931 26.3042H334.854V59.3442H330.931V26.3042ZM351.284 60.0826C348.977 60.0826 346.9 59.5288 345.054 58.4213C343.209 57.3138 341.763 55.8064 340.717 53.8991C339.702 51.9917 339.194 49.8844 339.194 47.5772C339.194 45.2699 339.702 43.1626 340.717 41.2553C341.763 39.3479 343.209 37.8405 345.054 36.733C346.9 35.6255 348.977 35.0718 351.284 35.0718C353.591 35.0718 355.668 35.6255 357.514 36.733C359.36 37.8405 360.79 39.3479 361.805 41.2553C362.851 43.1626 363.374 45.2699 363.374 47.5772C363.374 49.8844 362.851 51.9917 361.805 53.8991C360.79 55.8064 359.36 57.3138 357.514 58.4213C355.668 59.5288 353.591 60.0826 351.284 60.0826ZM351.284 56.5294C352.73 56.5294 354.068 56.1756 355.299 55.468C356.56 54.7297 357.56 53.6837 358.298 52.3301C359.067 50.9766 359.452 49.3922 359.452 47.5772C359.452 45.7621 359.067 44.1778 358.298 42.8242C357.56 41.4706 356.56 40.44 355.299 39.7325C354.068 38.9941 352.73 38.625 351.284 38.625C349.838 38.625 348.485 38.9941 347.223 39.7325C345.962 40.44 344.947 41.4706 344.178 42.8242C343.439 44.1778 343.07 45.7621 343.07 47.5772C343.07 49.3922 343.439 50.9766 344.178 52.3301C344.947 53.6837 345.962 54.7297 347.223 55.468C348.485 56.1756 349.838 56.5294 351.284 56.5294ZM367.478 35.8101H371.216V39.594H371.401C371.862 38.302 372.754 37.2406 374.077 36.41C375.4 35.5486 376.784 35.1179 378.23 35.1179C379.307 35.1179 380.23 35.2718 380.999 35.5794V39.8248C380.014 39.3325 378.907 39.0864 377.676 39.0864C376.538 39.0864 375.492 39.4095 374.538 40.0555C373.585 40.7015 372.816 41.5783 372.231 42.6858C371.677 43.7625 371.401 44.9315 371.401 46.1928V59.3442H367.478V35.8101ZM387.09 31.4725C386.321 31.4725 385.659 31.1956 385.106 30.6418C384.552 30.0881 384.275 29.4267 384.275 28.6576C384.275 27.8885 384.552 27.2425 385.106 26.7195C385.659 26.1657 386.321 25.8889 387.09 25.8889C387.859 25.8889 388.52 26.1657 389.074 26.7195C389.628 27.2425 389.905 27.8885 389.905 28.6576C389.905 29.4267 389.628 30.0881 389.074 30.6418C388.551 31.1956 387.89 31.4725 387.09 31.4725ZM385.152 35.8101H389.028V59.3442H385.152V35.8101ZM395.192 35.8101H398.93V39.271H399.115C399.761 38.102 400.791 37.1176 402.207 36.3177C403.622 35.4871 405.129 35.0718 406.729 35.0718C409.559 35.0718 411.712 35.9024 413.189 37.5636C414.697 39.1941 415.45 41.4245 415.45 44.2547V59.3442H411.528V44.8546C411.528 42.6704 411.005 41.0861 409.959 40.1016C408.913 39.1172 407.482 38.625 405.667 38.625C404.406 38.625 403.268 38.9788 402.253 39.6863C401.268 40.3939 400.499 41.3322 399.945 42.5012C399.392 43.6394 399.115 44.8392 399.115 46.1005V59.3442H395.192V35.8101Z" fill="#F0F0F0"/>
</svg>
