<?xml version="1.0" encoding="utf-8"?>
<svg width="564" height="88" viewBox="0 0 564 88" fill="none" xmlns="http://www.w3.org/2000/svg">
  <g>
    <rect width="564" height="88" />
    <g>
      <rect width="419" height="88" />
      <path id="Path" d="M66.0938 7.0278C71.4005 14.4111 69.7854 25.0245 62.1714 30.3312C62.1714 30.3312 26.4088 55.9418 26.4088 55.9418C19.0255 61.4793 8.64284 59.6335 3.10543 52.2502C-2.20127 44.6362 -0.58616 34.2535 7.02782 28.9468C7.02782 28.9468 42.7904 3.10545 42.7904 3.10545C50.1736 -2.20127 60.5563 -0.586179 66.0938 7.0278C66.0938 7.0278 66.0938 7.0278 66.0938 7.0278Z" fill="#EA4435" stroke-width="2.307" stroke="#F0F0F0" transform="translate(1.489 1.4)" />
      <path id="Path" d="M3.10543 6.91129C-2.20127 14.5253 -0.58616 24.908 7.02782 30.2147C7.02782 30.2147 42.7904 56.0561 42.7904 56.0561C50.1736 61.3628 60.5563 59.7477 66.0938 52.1338C71.4005 44.7505 69.7854 34.1371 62.1714 28.8304C62.1714 28.8304 26.4088 3.21969 26.4088 3.21969C19.0255 -2.31771 8.64284 -0.471909 3.10543 6.91129C3.10543 6.91129 3.10543 6.91129 3.10543 6.91129Z" fill="#537CBE" stroke-width="2.307" stroke="#F0F0F0" transform="translate(1.489 27.127)" />
      <path id="Path" d="M66.094 6.91129C71.401 14.5253 69.785 24.908 62.171 30.2147C62.171 30.2147 26.409 56.0561 26.409 56.0561C19.026 61.3628 8.64291 59.7477 3.10551 52.1338C-2.20129 44.7505 -0.586189 34.1371 7.02781 28.8304C7.02781 28.8304 42.79 3.21969 42.79 3.21969C50.174 -2.31771 60.556 -0.471909 66.094 6.91129C66.094 6.91129 66.094 6.91129 66.094 6.91129Z" fill="#F8AB19" stroke-width="2.307" stroke="#F0F0F0" transform="translate(87.781 27.127)" />
      <path id="Path" d="M3.10551 7.0278C-2.20129 14.4111 -0.586189 25.0245 7.02781 30.3312C7.02781 30.3312 42.79 55.9418 42.79 55.9418C50.174 61.4793 60.556 59.6335 66.094 52.2502C71.401 44.6362 69.785 34.2535 62.171 28.9468C62.171 28.9468 26.409 3.10545 26.409 3.10545C19.026 -2.20127 8.64291 -0.586179 3.10551 7.0278C3.10551 7.0278 3.10551 7.0278 3.10551 7.0278Z" fill="#32A852" stroke-width="2.307" stroke="#F0F0F0" transform="translate(87.781 1.4)" />
    </g>
    <path d="M31.3125 33.3516L19.3359 33.3516L19.3359 36.9141L27.3281 36.9141L27.3281 47.4141Q25.9688 47.7891 24.3047 48.0586Q22.6406 48.3281 20.3203 48.3281Q15.7031 48.3281 12.7734 46.5703Q9.84375 44.8125 8.46094 41.6367Q7.07812 38.4609 7.07812 34.1719Q7.07812 29.8359 8.66016 26.6719Q10.2422 23.5078 13.2305 21.7734Q16.2188 20.0391 20.4141 20.0391Q22.8516 20.0391 25.1367 20.625Q27.4219 21.2109 29.3203 22.0312L30.8438 18.5625Q28.6406 17.6016 26.0742 17.0742Q23.5078 16.5469 20.6484 16.5469Q15.0703 16.5469 11.0977 18.7383Q7.125 20.9297 5.02734 24.8906Q2.92969 28.8516 2.92969 34.1719Q2.92969 39.6094 4.82812 43.5586Q6.72656 47.5078 10.3945 49.6406Q14.0625 51.7734 19.4062 51.7734Q22.9219 51.7734 25.7695 51.3281Q28.6172 50.8828 31.3125 49.9688L31.3125 33.3516ZM64.6875 43.5117Q66.7969 39.6328 66.7969 33.8438Q66.7969 28.3359 64.7461 24.5977Q62.6953 20.8594 58.9219 18.9492Q55.1484 17.0391 49.9219 17.0391L39.5859 17.0391L39.5859 51.3047L48.8906 51.3047Q54.5859 51.3047 58.582 49.3477Q62.5781 47.3906 64.6875 43.5117ZM61.0664 26.3672Q62.6016 29.3672 62.6016 33.9844Q62.6016 40.8984 59.0508 44.3906Q55.5 47.8828 48.4219 47.8828L43.5703 47.8828L43.5703 20.4375L49.3125 20.4375Q53.6016 20.4375 56.5664 21.9023Q59.5312 23.3672 61.0664 26.3672ZM101.039 33.3516L89.0625 33.3516L89.0625 36.9141L97.0547 36.9141L97.0547 47.4141Q95.6953 47.7891 94.0312 48.0586Q92.3672 48.3281 90.0469 48.3281Q85.4297 48.3281 82.5 46.5703Q79.5703 44.8125 78.1875 41.6367Q76.8047 38.4609 76.8047 34.1719Q76.8047 29.8359 78.3867 26.6719Q79.9688 23.5078 82.957 21.7734Q85.9453 20.0391 90.1406 20.0391Q92.5781 20.0391 94.8633 20.625Q97.1484 21.2109 99.0469 22.0312L100.57 18.5625Q98.3672 17.6016 95.8008 17.0742Q93.2344 16.5469 90.375 16.5469Q84.7969 16.5469 80.8242 18.7383Q76.8516 20.9297 74.7539 24.8906Q72.6562 28.8516 72.6562 34.1719Q72.6562 39.6094 74.5547 43.5586Q76.4531 47.5078 80.1211 49.6406Q83.7891 51.7734 89.1328 51.7734Q92.6484 51.7734 95.4961 51.3281Q98.3438 50.8828 101.039 49.9688L101.039 33.3516ZM150.492 41.332Q151.5 38.0859 151.5 34.125Q151.5 28.7578 149.707 24.8086Q147.914 20.8594 144.434 18.6797Q140.953 16.5 135.867 16.5Q130.547 16.5 127.02 18.7031Q123.492 20.9062 121.758 24.8672Q120.023 28.8281 120.023 34.0781Q120.023 38.0391 120.996 41.2969Q121.969 44.5547 123.926 46.8984Q125.883 49.2422 128.848 50.5078Q131.812 51.7734 135.797 51.7734Q139.664 51.7734 142.594 50.5078Q145.523 49.2422 147.504 46.9102Q149.484 44.5781 150.492 41.332ZM125.461 41.6719Q124.219 38.4844 124.219 34.125Q124.219 29.7422 125.473 26.5898Q126.727 23.4375 129.305 21.7266Q131.883 20.0156 135.867 20.0156Q141.75 20.0156 144.527 23.7539Q147.305 27.4922 147.305 34.125Q147.305 38.4844 146.086 41.6719Q144.867 44.8594 142.324 46.5938Q139.781 48.3281 135.797 48.3281Q131.836 48.3281 129.27 46.5938Q126.703 44.8594 125.461 41.6719ZM157.898 60.9492Q160.641 62.8359 165.703 62.8359Q172.266 62.8359 175.734 60.5625Q179.203 58.2891 179.203 54.0234Q179.203 50.6484 176.965 48.8906Q174.727 47.1328 170.531 47.1328L166.008 47.1328Q164.789 47.1328 163.922 46.9336Q163.055 46.7344 162.598 46.2891Q162.141 45.8438 162.141 45.0938Q162.141 44.0859 162.738 43.3125Q163.336 42.5391 164.484 41.9062Q165.609 42.0938 166.688 42.0938Q171.234 42.0938 173.836 39.832Q176.438 37.5703 176.438 33.7266Q176.438 32.1562 175.969 30.8672Q175.5 29.5781 174.797 28.6641L179.531 28.0781L179.531 25.5703L170.719 25.5703Q170.25 25.4297 169.617 25.3242Q168.984 25.2188 168.293 25.1602Q167.602 25.1016 166.922 25.1016Q163.828 25.1016 161.648 26.1328Q159.469 27.1641 158.32 29.1211Q157.172 31.0781 157.172 33.8438Q157.172 36.4453 158.426 38.4023Q159.68 40.3594 161.695 41.1797Q160.078 42.1641 159.293 43.2305Q158.508 44.2969 158.508 45.7031Q158.508 46.9219 159.223 47.8594Q159.938 48.7969 160.945 49.2656Q158.227 49.8281 156.691 51.5391Q155.156 53.25 155.156 55.6641Q155.156 59.0625 157.898 60.9492ZM171.023 37.8516Q169.617 39.2578 166.828 39.2578Q164.133 39.2578 162.68 37.8516Q161.227 36.4453 161.227 33.8203Q161.227 30.9609 162.668 29.4727Q164.109 27.9844 166.781 27.9844Q169.57 27.9844 171 29.4258Q172.43 30.8672 172.43 33.75Q172.43 36.4453 171.023 37.8516ZM171.105 59.1445Q169.008 59.7891 165.82 59.7891Q162.562 59.7891 160.805 58.6992Q159.047 57.6094 159.047 55.5234Q159.047 53.9531 159.738 52.8984Q160.43 51.8438 161.719 51.3047Q163.008 50.7656 164.742 50.7656L169.195 50.7656Q171.164 50.7656 172.523 51.0352Q173.883 51.3047 174.586 52.0898Q175.289 52.875 175.289 54.4219Q175.289 56.0859 174.246 57.293Q173.203 58.5 171.105 59.1445ZM188.484 23.9531L188.484 14.8359L184.594 14.8359L184.594 51.3047L187.406 51.3047L188.203 47.8594L188.508 47.8594Q189.562 49.5 191.52 50.6367Q193.477 51.7734 196.523 51.7734Q199.781 51.7734 202.172 50.25Q204.562 48.7266 205.875 45.75Q207.188 42.7734 207.188 38.4375Q207.188 31.8516 204.316 28.5117Q201.445 25.1719 196.617 25.1719Q193.523 25.1719 191.531 26.3672Q189.539 27.5625 188.484 29.2969L188.273 29.2969Q188.32 28.4766 188.402 27Q188.484 25.5234 188.484 23.9531ZM191.555 29.5195Q193.195 28.4297 195.984 28.4297Q199.617 28.4297 201.387 30.9375Q203.156 33.4453 203.156 38.4141Q203.156 43.2891 201.363 45.9141Q199.57 48.5391 195.984 48.5391Q191.719 48.5391 190.102 45.9727Q188.484 43.4062 188.484 38.5547L188.484 38.3438Q188.484 34.9922 189.199 32.8008Q189.914 30.6094 191.555 29.5195ZM235.289 44.0625Q236.109 41.5781 236.109 38.4141Q236.109 34.2188 234.645 31.2539Q233.18 28.2891 230.543 26.7188Q227.906 25.1484 224.391 25.1484Q220.711 25.1484 218.051 26.707Q215.391 28.2656 213.961 31.2305Q212.531 34.1953 212.531 38.4141Q212.531 41.5781 213.387 44.0625Q214.242 46.5469 215.801 48.2578Q217.359 49.9688 219.504 50.8711Q221.648 51.7734 224.227 51.7734Q226.992 51.7734 229.184 50.8711Q231.375 49.9688 232.922 48.2578Q234.469 46.5469 235.289 44.0625ZM217.383 43.7812Q216.562 41.5078 216.562 38.4141Q216.562 33.7266 218.426 31.0781Q220.289 28.4297 224.297 28.4297Q227.016 28.4297 228.727 29.6484Q230.438 30.8672 231.258 33.1055Q232.078 35.3438 232.078 38.4141Q232.078 41.5078 231.258 43.7812Q230.438 46.0547 228.715 47.2969Q226.992 48.5391 224.32 48.5391Q221.625 48.5391 219.914 47.2969Q218.203 46.0547 217.383 43.7812ZM277.125 27.3633Q274.969 25.1484 270.727 25.1484Q268.102 25.1484 265.898 26.2383Q263.695 27.3281 262.43 29.5547L262.219 29.5547Q261.328 27.3281 259.348 26.2383Q257.367 25.1484 254.438 25.1484Q252.797 25.1484 251.344 25.6172Q249.891 26.0859 248.719 27Q247.547 27.9141 246.773 29.25L246.562 29.25L245.977 25.6172L242.836 25.6172L242.836 51.3047L246.727 51.3047L246.727 37.7109Q246.727 34.6875 247.418 32.6133Q248.109 30.5391 249.656 29.4844Q251.203 28.4297 253.758 28.4297Q255.562 28.4297 256.746 29.1211Q257.93 29.8125 258.527 31.1953Q259.125 32.5781 259.125 34.6641L259.125 51.3047L262.992 51.3047L262.992 36.9375Q262.992 32.7422 264.68 30.5859Q266.367 28.4297 270.094 28.4297Q272.742 28.4297 274.09 29.9883Q275.438 31.5469 275.438 34.6641L275.438 51.3047L279.281 51.3047L279.281 34.4766Q279.281 29.5781 277.125 27.3633ZM308.602 44.0625Q309.422 41.5781 309.422 38.4141Q309.422 34.2188 307.957 31.2539Q306.492 28.2891 303.855 26.7188Q301.219 25.1484 297.703 25.1484Q294.023 25.1484 291.363 26.707Q288.703 28.2656 287.273 31.2305Q285.844 34.1953 285.844 38.4141Q285.844 41.5781 286.699 44.0625Q287.555 46.5469 289.113 48.2578Q290.672 49.9688 292.816 50.8711Q294.961 51.7734 297.539 51.7734Q300.305 51.7734 302.496 50.8711Q304.688 49.9688 306.234 48.2578Q307.781 46.5469 308.602 44.0625ZM290.695 43.7812Q289.875 41.5078 289.875 38.4141Q289.875 33.7266 291.738 31.0781Q293.602 28.4297 297.609 28.4297Q300.328 28.4297 302.039 29.6484Q303.75 30.8672 304.57 33.1055Q305.391 35.3438 305.391 38.4141Q305.391 41.5078 304.57 43.7812Q303.75 46.0547 302.027 47.2969Q300.305 48.5391 297.633 48.5391Q294.938 48.5391 293.227 47.2969Q291.516 46.0547 290.695 43.7812ZM331.535 48.4102Q332.766 46.7344 332.766 44.2734Q332.766 42.1641 331.816 40.8164Q330.867 39.4688 329.109 38.5195Q327.352 37.5703 324.938 36.6797Q322.523 35.7656 321.047 35.0859Q319.57 34.4062 318.902 33.6328Q318.234 32.8594 318.234 31.6641Q318.234 30.1172 319.676 29.2266Q321.117 28.3359 323.812 28.3359Q325.688 28.3359 327.492 28.8047Q329.297 29.2734 330.891 29.9531L332.203 26.8359Q330.445 26.0625 328.418 25.6055Q326.391 25.1484 324.07 25.1484Q319.781 25.1484 317.145 26.8945Q314.508 28.6406 314.508 31.8984Q314.508 34.0312 315.48 35.3672Q316.453 36.7031 318.246 37.6289Q320.039 38.5547 322.5 39.4922Q324.984 40.4062 326.391 41.168Q327.797 41.9297 328.395 42.7383Q328.992 43.5469 328.992 44.6016Q328.992 46.4531 327.492 47.5312Q325.992 48.6094 322.664 48.6094Q320.391 48.6094 318.211 47.9766Q316.031 47.3438 314.461 46.5703L314.461 50.1562Q315.938 50.9297 317.906 51.3516Q319.875 51.7734 322.57 51.7734Q325.734 51.7734 328.02 50.9297Q330.305 50.0859 331.535 48.4102ZM360.352 44.0625Q361.172 41.5781 361.172 38.4141Q361.172 34.2188 359.707 31.2539Q358.242 28.2891 355.605 26.7188Q352.969 25.1484 349.453 25.1484Q345.773 25.1484 343.113 26.707Q340.453 28.2656 339.023 31.2305Q337.594 34.1953 337.594 38.4141Q337.594 41.5781 338.449 44.0625Q339.305 46.5469 340.863 48.2578Q342.422 49.9688 344.566 50.8711Q346.711 51.7734 349.289 51.7734Q352.055 51.7734 354.246 50.8711Q356.438 49.9688 357.984 48.2578Q359.531 46.5469 360.352 44.0625ZM342.445 43.7812Q341.625 41.5078 341.625 38.4141Q341.625 33.7266 343.488 31.0781Q345.352 28.4297 349.359 28.4297Q352.078 28.4297 353.789 29.6484Q355.5 30.8672 356.32 33.1055Q357.141 35.3438 357.141 38.4141Q357.141 41.5078 356.32 43.7812Q355.5 46.0547 353.777 47.2969Q352.055 48.5391 349.383 48.5391Q346.688 48.5391 344.977 47.2969Q343.266 46.0547 342.445 43.7812Z" fill="#FFFFFF" transform="translate(200 9)" />
  </g>
</svg>